<svg width="1363" height="163" viewBox="0 0 1363 163" fill="none" xmlns="http://www.w3.org/2000/svg">
<path d="M0 15C0 6.71573 6.71573 0 15 0H37V163H15C6.71573 163 0 156.284 0 148V15Z" fill="#424242"/>
<rect width="1097" height="163" transform="translate(37)" fill="#F0F0F0"/>
<path d="M108.41 43.9375V61H104.895L98.0391 49.5625V61H94.5234V43.9375H98.0391L104.906 55.3867V43.9375H108.41ZM118.758 57.9648V48.3203H122.133V61H118.957L118.758 57.9648ZM119.133 55.3633L120.129 55.3398C120.129 56.1836 120.031 56.9688 119.836 57.6953C119.641 58.4141 119.348 59.0391 118.957 59.5703C118.566 60.0938 118.074 60.5039 117.48 60.8008C116.887 61.0898 116.188 61.2344 115.383 61.2344C114.766 61.2344 114.195 61.1484 113.672 60.9766C113.156 60.7969 112.711 60.5195 112.336 60.1445C111.969 59.7617 111.68 59.2734 111.469 58.6797C111.266 58.0781 111.164 57.3555 111.164 56.5117V48.3203H114.539V56.5352C114.539 56.9102 114.582 57.2266 114.668 57.4844C114.762 57.7422 114.891 57.9531 115.055 58.1172C115.219 58.2812 115.41 58.3984 115.629 58.4688C115.855 58.5391 116.105 58.5742 116.379 58.5742C117.074 58.5742 117.621 58.4336 118.02 58.1523C118.426 57.8711 118.711 57.4883 118.875 57.0039C119.047 56.5117 119.133 55.9648 119.133 55.3633ZM139.781 56.5352C139.781 56.2305 139.734 55.957 139.641 55.7148C139.555 55.4648 139.391 55.2383 139.148 55.0352C138.906 54.8242 138.566 54.6172 138.129 54.4141C137.691 54.2109 137.125 54 136.43 53.7812C135.656 53.5312 134.922 53.25 134.227 52.9375C133.539 52.625 132.93 52.2617 132.398 51.8477C131.875 51.4258 131.461 50.9375 131.156 50.3828C130.859 49.8281 130.711 49.1836 130.711 48.4492C130.711 47.7383 130.867 47.0938 131.18 46.5156C131.492 45.9297 131.93 45.4297 132.492 45.0156C133.055 44.5938 133.719 44.2695 134.484 44.043C135.258 43.8164 136.105 43.7031 137.027 43.7031C138.285 43.7031 139.383 43.9297 140.32 44.3828C141.258 44.8359 141.984 45.457 142.5 46.2461C143.023 47.0352 143.285 47.9375 143.285 48.9531H139.793C139.793 48.4531 139.688 48.0156 139.477 47.6406C139.273 47.2578 138.961 46.957 138.539 46.7383C138.125 46.5195 137.602 46.4102 136.969 46.4102C136.359 46.4102 135.852 46.5039 135.445 46.6914C135.039 46.8711 134.734 47.1172 134.531 47.4297C134.328 47.7344 134.227 48.0781 134.227 48.4609C134.227 48.75 134.297 49.0117 134.438 49.2461C134.586 49.4805 134.805 49.6992 135.094 49.9023C135.383 50.1055 135.738 50.2969 136.16 50.4766C136.582 50.6562 137.07 50.832 137.625 51.0039C138.555 51.2852 139.371 51.6016 140.074 51.9531C140.785 52.3047 141.379 52.6992 141.855 53.1367C142.332 53.5742 142.691 54.0703 142.934 54.625C143.176 55.1797 143.297 55.8086 143.297 56.5117C143.297 57.2539 143.152 57.918 142.863 58.5039C142.574 59.0898 142.156 59.5859 141.609 59.9922C141.062 60.3984 140.41 60.707 139.652 60.918C138.895 61.1289 138.047 61.2344 137.109 61.2344C136.266 61.2344 135.434 61.125 134.613 60.9062C133.793 60.6797 133.047 60.3398 132.375 59.8867C131.711 59.4336 131.18 58.8555 130.781 58.1523C130.383 57.4492 130.184 56.6172 130.184 55.6562H133.711C133.711 56.1875 133.793 56.6367 133.957 57.0039C134.121 57.3711 134.352 57.668 134.648 57.8945C134.953 58.1211 135.312 58.2852 135.727 58.3867C136.148 58.4883 136.609 58.5391 137.109 58.5391C137.719 58.5391 138.219 58.4531 138.609 58.2812C139.008 58.1094 139.301 57.8711 139.488 57.5664C139.684 57.2617 139.781 56.918 139.781 56.5352ZM150.715 58.5977C151.129 58.5977 151.496 58.5195 151.816 58.3633C152.137 58.1992 152.387 57.9727 152.566 57.6836C152.754 57.3867 152.852 57.0391 152.859 56.6406H156.035C156.027 57.5312 155.789 58.3242 155.32 59.0195C154.852 59.707 154.223 60.25 153.434 60.6484C152.645 61.0391 151.762 61.2344 150.785 61.2344C149.801 61.2344 148.941 61.0703 148.207 60.7422C147.48 60.4141 146.875 59.9609 146.391 59.3828C145.906 58.7969 145.543 58.1172 145.301 57.3438C145.059 56.5625 144.938 55.7266 144.938 54.8359V54.4961C144.938 53.5977 145.059 52.7617 145.301 51.9883C145.543 51.207 145.906 50.5273 146.391 49.9492C146.875 49.3633 147.48 48.9062 148.207 48.5781C148.934 48.25 149.785 48.0859 150.762 48.0859C151.801 48.0859 152.711 48.2852 153.492 48.6836C154.281 49.082 154.898 49.6523 155.344 50.3945C155.797 51.1289 156.027 52 156.035 53.0078H152.859C152.852 52.5859 152.762 52.2031 152.59 51.8594C152.426 51.5156 152.184 51.2422 151.863 51.0391C151.551 50.8281 151.164 50.7227 150.703 50.7227C150.211 50.7227 149.809 50.8281 149.496 51.0391C149.184 51.2422 148.941 51.5234 148.77 51.8828C148.598 52.2344 148.477 52.6367 148.406 53.0898C148.344 53.5352 148.312 54.0039 148.312 54.4961V54.8359C148.312 55.3281 148.344 55.8008 148.406 56.2539C148.469 56.707 148.586 57.1094 148.758 57.4609C148.938 57.8125 149.184 58.0898 149.496 58.293C149.809 58.4961 150.215 58.5977 150.715 58.5977ZM164.836 58.1406V52.4922C164.836 52.0859 164.77 51.7383 164.637 51.4492C164.504 51.1523 164.297 50.9219 164.016 50.7578C163.742 50.5938 163.387 50.5117 162.949 50.5117C162.574 50.5117 162.25 50.5781 161.977 50.7109C161.703 50.8359 161.492 51.0195 161.344 51.2617C161.195 51.4961 161.121 51.7734 161.121 52.0938H157.746C157.746 51.5547 157.871 51.043 158.121 50.5586C158.371 50.0742 158.734 49.6484 159.211 49.2812C159.688 48.9062 160.254 48.6133 160.91 48.4023C161.574 48.1914 162.316 48.0859 163.137 48.0859C164.121 48.0859 164.996 48.25 165.762 48.5781C166.527 48.9062 167.129 49.3984 167.566 50.0547C168.012 50.7109 168.234 51.5312 168.234 52.5156V57.9414C168.234 58.6367 168.277 59.207 168.363 59.6523C168.449 60.0898 168.574 60.4727 168.738 60.8008V61H165.328C165.164 60.6562 165.039 60.2266 164.953 59.7109C164.875 59.1875 164.836 58.6641 164.836 58.1406ZM165.281 53.2773L165.305 55.1875H163.418C162.973 55.1875 162.586 55.2383 162.258 55.3398C161.93 55.4414 161.66 55.5859 161.449 55.7734C161.238 55.9531 161.082 56.1641 160.98 56.4062C160.887 56.6484 160.84 56.9141 160.84 57.2031C160.84 57.4922 160.906 57.7539 161.039 57.9883C161.172 58.2148 161.363 58.3945 161.613 58.5273C161.863 58.6523 162.156 58.7148 162.492 58.7148C163 58.7148 163.441 58.6133 163.816 58.4102C164.191 58.207 164.48 57.957 164.684 57.6602C164.895 57.3633 165.004 57.082 165.012 56.8164L165.902 58.2461C165.777 58.5664 165.605 58.8984 165.387 59.2422C165.176 59.5859 164.906 59.9102 164.578 60.2148C164.25 60.5117 163.855 60.7578 163.395 60.9531C162.934 61.1406 162.387 61.2344 161.754 61.2344C160.949 61.2344 160.219 61.0742 159.562 60.7539C158.914 60.4258 158.398 59.9766 158.016 59.4062C157.641 58.8281 157.453 58.1719 157.453 57.4375C157.453 56.7734 157.578 56.1836 157.828 55.668C158.078 55.1523 158.445 54.7188 158.93 54.3672C159.422 54.0078 160.035 53.7383 160.77 53.5586C161.504 53.3711 162.355 53.2773 163.324 53.2773H165.281ZM174.398 43V61H171.012V43H174.398ZM183.023 61.2344C182.039 61.2344 181.156 61.0781 180.375 60.7656C179.594 60.4453 178.93 60.0039 178.383 59.4414C177.844 58.8789 177.43 58.2266 177.141 57.4844C176.852 56.7344 176.707 55.9375 176.707 55.0938V54.625C176.707 53.6641 176.844 52.7852 177.117 51.9883C177.391 51.1914 177.781 50.5 178.289 49.9141C178.805 49.3281 179.43 48.8789 180.164 48.5664C180.898 48.2461 181.727 48.0859 182.648 48.0859C183.547 48.0859 184.344 48.2344 185.039 48.5312C185.734 48.8281 186.316 49.25 186.785 49.7969C187.262 50.3438 187.621 51 187.863 51.7656C188.105 52.5234 188.227 53.3672 188.227 54.2969V55.7031H178.148V53.4531H184.91V53.1953C184.91 52.7266 184.824 52.3086 184.652 51.9414C184.488 51.5664 184.238 51.2695 183.902 51.0508C183.566 50.832 183.137 50.7227 182.613 50.7227C182.168 50.7227 181.785 50.8203 181.465 51.0156C181.145 51.2109 180.883 51.4844 180.68 51.8359C180.484 52.1875 180.336 52.6016 180.234 53.0781C180.141 53.5469 180.094 54.0625 180.094 54.625V55.0938C180.094 55.6016 180.164 56.0703 180.305 56.5C180.453 56.9297 180.66 57.3008 180.926 57.6133C181.199 57.9258 181.527 58.168 181.91 58.3398C182.301 58.5117 182.742 58.5977 183.234 58.5977C183.844 58.5977 184.41 58.4805 184.934 58.2461C185.465 58.0039 185.922 57.6406 186.305 57.1562L187.945 58.9375C187.68 59.3203 187.316 59.6875 186.855 60.0391C186.402 60.3906 185.855 60.6797 185.215 60.9062C184.574 61.125 183.844 61.2344 183.023 61.2344ZM193.523 51.0859V61H190.148V48.3203H193.324L193.523 51.0859ZM197.344 48.2383L197.285 51.3672C197.121 51.3438 196.922 51.3242 196.688 51.3086C196.461 51.2852 196.254 51.2734 196.066 51.2734C195.59 51.2734 195.176 51.3359 194.824 51.4609C194.48 51.5781 194.191 51.7539 193.957 51.9883C193.73 52.2227 193.559 52.5078 193.441 52.8438C193.332 53.1797 193.27 53.5625 193.254 53.9922L192.574 53.7812C192.574 52.9609 192.656 52.207 192.82 51.5195C192.984 50.8242 193.223 50.2188 193.535 49.7031C193.855 49.1875 194.246 48.7891 194.707 48.5078C195.168 48.2266 195.695 48.0859 196.289 48.0859C196.477 48.0859 196.668 48.1016 196.863 48.1328C197.059 48.1562 197.219 48.1914 197.344 48.2383Z" fill="#888888"/>
<path d="M106.688 119H99.1172L99.1641 112.672H106.688C108.25 112.672 109.57 112.297 110.648 111.547C111.742 110.797 112.57 109.68 113.133 108.195C113.711 106.695 114 104.852 114 102.664V101.188C114 99.5469 113.836 98.1094 113.508 96.875C113.195 95.625 112.727 94.5859 112.102 93.7578C111.477 92.9141 110.695 92.2812 109.758 91.8594C108.836 91.4375 107.773 91.2266 106.57 91.2266H98.9766V84.875H106.57C108.883 84.875 111 85.2734 112.922 86.0703C114.859 86.8516 116.531 87.9766 117.938 89.4453C119.359 90.8984 120.453 92.625 121.219 94.625C122 96.6094 122.391 98.8125 122.391 101.234V102.664C122.391 105.07 122 107.273 121.219 109.273C120.453 111.273 119.367 113 117.961 114.453C116.555 115.906 114.891 117.031 112.969 117.828C111.062 118.609 108.969 119 106.688 119ZM103.828 84.875V119H95.6016V84.875H103.828ZM138.586 119.469C136.523 119.469 134.68 119.148 133.055 118.508C131.43 117.852 130.055 116.953 128.93 115.812C127.82 114.672 126.969 113.359 126.375 111.875C125.797 110.391 125.508 108.82 125.508 107.164V106.273C125.508 104.414 125.766 102.695 126.281 101.117C126.797 99.5234 127.562 98.1328 128.578 96.9453C129.594 95.7578 130.867 94.8359 132.398 94.1797C133.93 93.5078 135.711 93.1719 137.742 93.1719C139.539 93.1719 141.148 93.4609 142.57 94.0391C143.992 94.6172 145.195 95.4453 146.18 96.5234C147.18 97.6016 147.938 98.9062 148.453 100.438C148.984 101.969 149.25 103.688 149.25 105.594V108.805H128.531V103.859H141.539V103.25C141.555 102.406 141.406 101.688 141.094 101.094C140.797 100.5 140.359 100.047 139.781 99.7344C139.203 99.4219 138.5 99.2656 137.672 99.2656C136.812 99.2656 136.102 99.4531 135.539 99.8281C134.992 100.203 134.562 100.719 134.25 101.375C133.953 102.016 133.742 102.758 133.617 103.602C133.492 104.445 133.43 105.336 133.43 106.273V107.164C133.43 108.102 133.555 108.953 133.805 109.719C134.07 110.484 134.445 111.141 134.93 111.688C135.43 112.219 136.023 112.633 136.711 112.93C137.414 113.227 138.211 113.375 139.102 113.375C140.18 113.375 141.242 113.172 142.289 112.766C143.336 112.359 144.234 111.688 144.984 110.75L148.57 115.016C148.055 115.75 147.32 116.461 146.367 117.148C145.43 117.836 144.305 118.398 142.992 118.836C141.68 119.258 140.211 119.469 138.586 119.469ZM161.273 113.586L166.266 93.6406H174.586L166.289 119H161.367L161.273 113.586ZM158.32 93.6406L163.242 113.586L163.195 119H158.25L149.977 93.6406H158.32ZM188.883 119.469C186.82 119.469 184.977 119.148 183.352 118.508C181.727 117.852 180.352 116.953 179.227 115.812C178.117 114.672 177.266 113.359 176.672 111.875C176.094 110.391 175.805 108.82 175.805 107.164V106.273C175.805 104.414 176.062 102.695 176.578 101.117C177.094 99.5234 177.859 98.1328 178.875 96.9453C179.891 95.7578 181.164 94.8359 182.695 94.1797C184.227 93.5078 186.008 93.1719 188.039 93.1719C189.836 93.1719 191.445 93.4609 192.867 94.0391C194.289 94.6172 195.492 95.4453 196.477 96.5234C197.477 97.6016 198.234 98.9062 198.75 100.438C199.281 101.969 199.547 103.688 199.547 105.594V108.805H178.828V103.859H191.836V103.25C191.852 102.406 191.703 101.688 191.391 101.094C191.094 100.5 190.656 100.047 190.078 99.7344C189.5 99.4219 188.797 99.2656 187.969 99.2656C187.109 99.2656 186.398 99.4531 185.836 99.8281C185.289 100.203 184.859 100.719 184.547 101.375C184.25 102.016 184.039 102.758 183.914 103.602C183.789 104.445 183.727 105.336 183.727 106.273V107.164C183.727 108.102 183.852 108.953 184.102 109.719C184.367 110.484 184.742 111.141 185.227 111.688C185.727 112.219 186.32 112.633 187.008 112.93C187.711 113.227 188.508 113.375 189.398 113.375C190.477 113.375 191.539 113.172 192.586 112.766C193.633 112.359 194.531 111.688 195.281 110.75L198.867 115.016C198.352 115.75 197.617 116.461 196.664 117.148C195.727 117.836 194.602 118.398 193.289 118.836C191.977 119.258 190.508 119.469 188.883 119.469ZM211.102 83V119H203.18V83H211.102ZM214.992 106.578V106.086C214.992 104.227 215.258 102.516 215.789 100.953C216.32 99.375 217.102 98.0078 218.133 96.8516C219.164 95.6953 220.438 94.7969 221.953 94.1562C223.469 93.5 225.219 93.1719 227.203 93.1719C229.203 93.1719 230.961 93.5 232.477 94.1562C234.008 94.7969 235.289 95.6953 236.32 96.8516C237.352 98.0078 238.133 99.375 238.664 100.953C239.195 102.516 239.461 104.227 239.461 106.086V106.578C239.461 108.422 239.195 110.133 238.664 111.711C238.133 113.273 237.352 114.641 236.32 115.812C235.289 116.969 234.016 117.867 232.5 118.508C230.984 119.148 229.234 119.469 227.25 119.469C225.266 119.469 223.508 119.148 221.977 118.508C220.445 117.867 219.164 116.969 218.133 115.812C217.102 114.641 216.32 113.273 215.789 111.711C215.258 110.133 214.992 108.422 214.992 106.578ZM222.891 106.086V106.578C222.891 107.531 222.961 108.422 223.102 109.25C223.242 110.078 223.477 110.805 223.805 111.43C224.133 112.039 224.578 112.516 225.141 112.859C225.703 113.203 226.406 113.375 227.25 113.375C228.078 113.375 228.766 113.203 229.312 112.859C229.875 112.516 230.32 112.039 230.648 111.43C230.977 110.805 231.211 110.078 231.352 109.25C231.492 108.422 231.562 107.531 231.562 106.578V106.086C231.562 105.164 231.492 104.297 231.352 103.484C231.211 102.656 230.977 101.93 230.648 101.305C230.32 100.664 229.875 100.164 229.312 99.8047C228.75 99.4453 228.047 99.2656 227.203 99.2656C226.375 99.2656 225.68 99.4453 225.117 99.8047C224.57 100.164 224.133 100.664 223.805 101.305C223.477 101.93 223.242 102.656 223.102 103.484C222.961 104.297 222.891 105.164 222.891 106.086ZM250.945 98.5156V128.75H243.047V93.6406H250.406L250.945 98.5156ZM266.508 106.016V106.508C266.508 108.352 266.297 110.062 265.875 111.641C265.453 113.219 264.828 114.594 264 115.766C263.172 116.938 262.141 117.852 260.906 118.508C259.688 119.148 258.273 119.469 256.664 119.469C255.148 119.469 253.844 119.133 252.75 118.461C251.656 117.789 250.742 116.859 250.008 115.672C249.273 114.484 248.68 113.125 248.227 111.594C247.773 110.062 247.414 108.445 247.148 106.742V106.109C247.414 104.281 247.773 102.586 248.227 101.023C248.68 99.4453 249.273 98.0703 250.008 96.8984C250.742 95.7266 251.648 94.8125 252.727 94.1562C253.82 93.5 255.125 93.1719 256.641 93.1719C258.25 93.1719 259.664 93.4766 260.883 94.0859C262.117 94.6953 263.148 95.5703 263.977 96.7109C264.82 97.8359 265.453 99.1875 265.875 100.766C266.297 102.344 266.508 104.094 266.508 106.016ZM258.609 106.508V106.016C258.609 105.031 258.539 104.133 258.398 103.32C258.258 102.492 258.031 101.773 257.719 101.164C257.422 100.555 257.023 100.086 256.523 99.7578C256.023 99.4297 255.406 99.2656 254.672 99.2656C253.828 99.2656 253.117 99.3984 252.539 99.6641C251.977 99.9141 251.523 100.305 251.18 100.836C250.852 101.352 250.617 102 250.477 102.781C250.352 103.547 250.297 104.445 250.312 105.477V107.398C250.281 108.586 250.398 109.633 250.664 110.539C250.93 111.43 251.391 112.125 252.047 112.625C252.703 113.125 253.594 113.375 254.719 113.375C255.469 113.375 256.094 113.203 256.594 112.859C257.094 112.5 257.492 112.008 257.789 111.383C258.086 110.742 258.297 110.008 258.422 109.18C258.547 108.352 258.609 107.461 258.609 106.508ZM277.992 99.0078V119H270.094V93.6406H277.5L277.992 99.0078ZM277.031 105.453L275.227 105.5C275.227 103.719 275.438 102.078 275.859 100.578C276.281 99.0781 276.906 97.7734 277.734 96.6641C278.562 95.5547 279.578 94.6953 280.781 94.0859C282 93.4766 283.406 93.1719 285 93.1719C286.109 93.1719 287.117 93.3438 288.023 93.6875C288.93 94.0156 289.711 94.5391 290.367 95.2578C291.023 95.9609 291.523 96.8828 291.867 98.0234C292.227 99.1484 292.406 100.5 292.406 102.078V119H284.508V103.086C284.508 102.008 284.383 101.195 284.133 100.648C283.898 100.102 283.555 99.7344 283.102 99.5469C282.648 99.3594 282.094 99.2656 281.438 99.2656C280.75 99.2656 280.133 99.4219 279.586 99.7344C279.039 100.047 278.57 100.484 278.18 101.047C277.805 101.594 277.516 102.242 277.312 102.992C277.125 103.742 277.031 104.562 277.031 105.453ZM291.516 105.453L289.312 105.5C289.312 103.719 289.508 102.078 289.898 100.578C290.305 99.0781 290.906 97.7734 291.703 96.6641C292.516 95.5547 293.523 94.6953 294.727 94.0859C295.93 93.4766 297.328 93.1719 298.922 93.1719C300.078 93.1719 301.141 93.3438 302.109 93.6875C303.078 94.0312 303.914 94.5859 304.617 95.3516C305.32 96.1172 305.867 97.1328 306.258 98.3984C306.648 99.6484 306.844 101.195 306.844 103.039V119H298.922V103.039C298.922 101.992 298.797 101.203 298.547 100.672C298.312 100.125 297.969 99.7578 297.516 99.5703C297.062 99.3672 296.523 99.2656 295.898 99.2656C295.148 99.2656 294.5 99.4219 293.953 99.7344C293.406 100.047 292.945 100.484 292.57 101.047C292.211 101.594 291.945 102.242 291.773 102.992C291.602 103.742 291.516 104.562 291.516 105.453ZM323.648 119.469C321.586 119.469 319.742 119.148 318.117 118.508C316.492 117.852 315.117 116.953 313.992 115.812C312.883 114.672 312.031 113.359 311.438 111.875C310.859 110.391 310.57 108.82 310.57 107.164V106.273C310.57 104.414 310.828 102.695 311.344 101.117C311.859 99.5234 312.625 98.1328 313.641 96.9453C314.656 95.7578 315.93 94.8359 317.461 94.1797C318.992 93.5078 320.773 93.1719 322.805 93.1719C324.602 93.1719 326.211 93.4609 327.633 94.0391C329.055 94.6172 330.258 95.4453 331.242 96.5234C332.242 97.6016 333 98.9062 333.516 100.438C334.047 101.969 334.312 103.688 334.312 105.594V108.805H313.594V103.859H326.602V103.25C326.617 102.406 326.469 101.688 326.156 101.094C325.859 100.5 325.422 100.047 324.844 99.7344C324.266 99.4219 323.562 99.2656 322.734 99.2656C321.875 99.2656 321.164 99.4531 320.602 99.8281C320.055 100.203 319.625 100.719 319.312 101.375C319.016 102.016 318.805 102.758 318.68 103.602C318.555 104.445 318.492 105.336 318.492 106.273V107.164C318.492 108.102 318.617 108.953 318.867 109.719C319.133 110.484 319.508 111.141 319.992 111.688C320.492 112.219 321.086 112.633 321.773 112.93C322.477 113.227 323.273 113.375 324.164 113.375C325.242 113.375 326.305 113.172 327.352 112.766C328.398 112.359 329.297 111.688 330.047 110.75L333.633 115.016C333.117 115.75 332.383 116.461 331.43 117.148C330.492 117.836 329.367 118.398 328.055 118.836C326.742 119.258 325.273 119.469 323.648 119.469ZM345.281 99.0547V119H337.383V93.6406H344.789L345.281 99.0547ZM344.344 105.453L342.492 105.5C342.492 103.562 342.727 101.836 343.195 100.32C343.664 98.7891 344.328 97.4922 345.188 96.4297C346.047 95.3672 347.07 94.5625 348.258 94.0156C349.461 93.4531 350.797 93.1719 352.266 93.1719C353.438 93.1719 354.508 93.3438 355.477 93.6875C356.461 94.0312 357.305 94.5859 358.008 95.3516C358.727 96.1172 359.273 97.1328 359.648 98.3984C360.039 99.6484 360.234 101.195 360.234 103.039V119H352.289V103.016C352.289 102 352.148 101.227 351.867 100.695C351.586 100.148 351.18 99.7734 350.648 99.5703C350.117 99.3672 349.469 99.2656 348.703 99.2656C347.891 99.2656 347.203 99.4219 346.641 99.7344C346.078 100.047 345.625 100.484 345.281 101.047C344.953 101.594 344.711 102.242 344.555 102.992C344.414 103.742 344.344 104.562 344.344 105.453ZM377.977 93.6406V99.125H362.695V93.6406H377.977ZM365.906 87.3359H373.805V110.727C373.805 111.398 373.883 111.922 374.039 112.297C374.195 112.656 374.461 112.914 374.836 113.07C375.227 113.211 375.742 113.281 376.383 113.281C376.836 113.281 377.211 113.273 377.508 113.258C377.805 113.227 378.086 113.188 378.352 113.141V118.789C377.68 119.008 376.977 119.172 376.242 119.281C375.508 119.406 374.727 119.469 373.898 119.469C372.211 119.469 370.766 119.203 369.562 118.672C368.375 118.141 367.469 117.305 366.844 116.164C366.219 115.023 365.906 113.539 365.906 111.711V87.3359ZM398.062 101.07L405.305 96.5469C406.273 95.9219 406.867 95.3359 407.086 94.7891C407.32 94.2266 407.438 93.6797 407.438 93.1484C407.438 92.5078 407.203 91.9062 406.734 91.3438C406.281 90.7656 405.641 90.4766 404.812 90.4766C404.203 90.4766 403.688 90.6172 403.266 90.8984C402.859 91.1641 402.547 91.5234 402.328 91.9766C402.125 92.4297 402.023 92.9375 402.023 93.5C402.023 94.2031 402.219 94.9141 402.609 95.6328C403 96.3516 403.516 97.1094 404.156 97.9062C404.812 98.7031 405.539 99.5781 406.336 100.531L422.391 119H413.578L400.5 104.141C399.422 102.766 398.484 101.5 397.688 100.344C396.906 99.1875 396.297 98.0625 395.859 96.9688C395.422 95.875 395.203 94.75 395.203 93.5938C395.203 91.7969 395.594 90.2109 396.375 88.8359C397.172 87.4453 398.289 86.3594 399.727 85.5781C401.18 84.7812 402.883 84.3828 404.836 84.3828C406.648 84.3828 408.219 84.7578 409.547 85.5078C410.891 86.2578 411.93 87.2578 412.664 88.5078C413.398 89.7422 413.766 91.1016 413.766 92.5859C413.766 93.6172 413.57 94.5938 413.18 95.5156C412.789 96.4375 412.25 97.2812 411.562 98.0469C410.891 98.8125 410.117 99.5078 409.242 100.133L401.414 105.594C401.102 105.984 400.844 106.383 400.641 106.789C400.453 107.18 400.312 107.578 400.219 107.984C400.141 108.391 400.102 108.828 400.102 109.297C400.102 110.109 400.273 110.828 400.617 111.453C400.961 112.062 401.414 112.539 401.977 112.883C402.555 113.227 403.18 113.398 403.852 113.398C405.117 113.398 406.336 113.125 407.508 112.578C408.695 112.016 409.758 111.227 410.695 110.211C411.633 109.195 412.375 107.984 412.922 106.578C413.469 105.172 413.742 103.625 413.742 101.938H420.352C420.352 103.781 420.164 105.539 419.789 107.211C419.43 108.867 418.828 110.398 417.984 111.805C417.156 113.211 416.039 114.445 414.633 115.508C414.555 115.555 414.406 115.648 414.188 115.789C413.984 115.914 413.836 116 413.742 116.047C412.102 117.219 410.484 118.086 408.891 118.648C407.297 119.211 405.438 119.492 403.312 119.492C401.016 119.492 399.031 119.078 397.359 118.25C395.703 117.422 394.422 116.281 393.516 114.828C392.609 113.375 392.156 111.711 392.156 109.836C392.156 108.508 392.406 107.352 392.906 106.367C393.406 105.367 394.102 104.445 394.992 103.602C395.883 102.758 396.906 101.914 398.062 101.07ZM452.906 84.875V119H444.68V84.875H452.906ZM463.172 84.875V91.2266H434.648V84.875H463.172ZM476.461 119.469C474.398 119.469 472.555 119.148 470.93 118.508C469.305 117.852 467.93 116.953 466.805 115.812C465.695 114.672 464.844 113.359 464.25 111.875C463.672 110.391 463.383 108.82 463.383 107.164V106.273C463.383 104.414 463.641 102.695 464.156 101.117C464.672 99.5234 465.438 98.1328 466.453 96.9453C467.469 95.7578 468.742 94.8359 470.273 94.1797C471.805 93.5078 473.586 93.1719 475.617 93.1719C477.414 93.1719 479.023 93.4609 480.445 94.0391C481.867 94.6172 483.07 95.4453 484.055 96.5234C485.055 97.6016 485.812 98.9062 486.328 100.438C486.859 101.969 487.125 103.688 487.125 105.594V108.805H466.406V103.859H479.414V103.25C479.43 102.406 479.281 101.688 478.969 101.094C478.672 100.5 478.234 100.047 477.656 99.7344C477.078 99.4219 476.375 99.2656 475.547 99.2656C474.688 99.2656 473.977 99.4531 473.414 99.8281C472.867 100.203 472.438 100.719 472.125 101.375C471.828 102.016 471.617 102.758 471.492 103.602C471.367 104.445 471.305 105.336 471.305 106.273V107.164C471.305 108.102 471.43 108.953 471.68 109.719C471.945 110.484 472.32 111.141 472.805 111.688C473.305 112.219 473.898 112.633 474.586 112.93C475.289 113.227 476.086 113.375 476.977 113.375C478.055 113.375 479.117 113.172 480.164 112.766C481.211 112.359 482.109 111.688 482.859 110.75L486.445 115.016C485.93 115.75 485.195 116.461 484.242 117.148C483.305 117.836 482.18 118.398 480.867 118.836C479.555 119.258 478.086 119.469 476.461 119.469ZM503.625 111.875C503.625 111.438 503.477 111.062 503.18 110.75C502.898 110.422 502.398 110.125 501.68 109.859C500.961 109.578 499.953 109.297 498.656 109.016C497.422 108.75 496.258 108.398 495.164 107.961C494.086 107.523 493.141 106.992 492.328 106.367C491.516 105.742 490.875 105 490.406 104.141C489.953 103.281 489.727 102.297 489.727 101.188C489.727 100.109 489.953 99.0938 490.406 98.1406C490.875 97.1719 491.555 96.3203 492.445 95.5859C493.352 94.8359 494.453 94.25 495.75 93.8281C497.047 93.3906 498.523 93.1719 500.18 93.1719C502.461 93.1719 504.43 93.5234 506.086 94.2266C507.742 94.9141 509.016 95.8828 509.906 97.1328C510.812 98.3672 511.266 99.7969 511.266 101.422H503.367C503.367 100.781 503.258 100.234 503.039 99.7812C502.836 99.3281 502.5 98.9844 502.031 98.75C501.562 98.5 500.938 98.375 500.156 98.375C499.609 98.375 499.109 98.4766 498.656 98.6797C498.219 98.8828 497.867 99.1641 497.602 99.5234C497.336 99.8828 497.203 100.305 497.203 100.789C497.203 101.133 497.281 101.445 497.438 101.727C497.609 101.992 497.867 102.242 498.211 102.477C498.555 102.695 498.992 102.898 499.523 103.086C500.055 103.258 500.695 103.414 501.445 103.555C503.148 103.867 504.742 104.312 506.227 104.891C507.711 105.469 508.914 106.289 509.836 107.352C510.773 108.414 511.242 109.844 511.242 111.641C511.242 112.766 510.984 113.805 510.469 114.758C509.953 115.695 509.211 116.523 508.242 117.242C507.273 117.945 506.109 118.492 504.75 118.883C503.391 119.273 501.859 119.469 500.156 119.469C497.734 119.469 495.688 119.039 494.016 118.18C492.344 117.305 491.078 116.211 490.219 114.898C489.375 113.57 488.953 112.227 488.953 110.867H496.312C496.344 111.648 496.531 112.289 496.875 112.789C497.234 113.289 497.711 113.656 498.305 113.891C498.898 114.125 499.586 114.242 500.367 114.242C501.086 114.242 501.68 114.141 502.148 113.938C502.633 113.734 503 113.461 503.25 113.117C503.5 112.758 503.625 112.344 503.625 111.875ZM528.305 93.6406V99.125H513.023V93.6406H528.305ZM516.234 87.3359H524.133V110.727C524.133 111.398 524.211 111.922 524.367 112.297C524.523 112.656 524.789 112.914 525.164 113.07C525.555 113.211 526.07 113.281 526.711 113.281C527.164 113.281 527.539 113.273 527.836 113.258C528.133 113.227 528.414 113.188 528.68 113.141V118.789C528.008 119.008 527.305 119.172 526.57 119.281C525.836 119.406 525.055 119.469 524.227 119.469C522.539 119.469 521.094 119.203 519.891 118.672C518.703 118.141 517.797 117.305 517.172 116.164C516.547 115.023 516.234 113.539 516.234 111.711V87.3359ZM539.789 93.6406V119H531.867V93.6406H539.789ZM531.398 87.1016C531.398 85.9766 531.805 85.0547 532.617 84.3359C533.43 83.6172 534.484 83.2578 535.781 83.2578C537.078 83.2578 538.133 83.6172 538.945 84.3359C539.758 85.0547 540.164 85.9766 540.164 87.1016C540.164 88.2266 539.758 89.1484 538.945 89.8672C538.133 90.5859 537.078 90.9453 535.781 90.9453C534.484 90.9453 533.43 90.5859 532.617 89.8672C531.805 89.1484 531.398 88.2266 531.398 87.1016ZM552.422 99.0547V119H544.523V93.6406H551.93L552.422 99.0547ZM551.484 105.453L549.633 105.5C549.633 103.562 549.867 101.836 550.336 100.32C550.805 98.7891 551.469 97.4922 552.328 96.4297C553.188 95.3672 554.211 94.5625 555.398 94.0156C556.602 93.4531 557.938 93.1719 559.406 93.1719C560.578 93.1719 561.648 93.3438 562.617 93.6875C563.602 94.0312 564.445 94.5859 565.148 95.3516C565.867 96.1172 566.414 97.1328 566.789 98.3984C567.18 99.6484 567.375 101.195 567.375 103.039V119H559.43V103.016C559.43 102 559.289 101.227 559.008 100.695C558.727 100.148 558.32 99.7734 557.789 99.5703C557.258 99.3672 556.609 99.2656 555.844 99.2656C555.031 99.2656 554.344 99.4219 553.781 99.7344C553.219 100.047 552.766 100.484 552.422 101.047C552.094 101.594 551.852 102.242 551.695 102.992C551.555 103.742 551.484 104.562 551.484 105.453ZM587.695 93.6406H594.867V118.016C594.867 120.359 594.328 122.344 593.25 123.969C592.172 125.609 590.664 126.852 588.727 127.695C586.805 128.555 584.555 128.984 581.977 128.984C580.836 128.984 579.672 128.836 578.484 128.539C577.297 128.258 576.188 127.836 575.156 127.273C574.125 126.711 573.258 126.016 572.555 125.188L575.859 120.547C576.5 121.266 577.305 121.875 578.273 122.375C579.242 122.891 580.383 123.148 581.695 123.148C582.836 123.148 583.789 122.945 584.555 122.539C585.336 122.133 585.93 121.539 586.336 120.758C586.742 119.992 586.945 119.062 586.945 117.969V99.6406L587.695 93.6406ZM570.844 106.625V106.133C570.844 104.211 571.078 102.461 571.547 100.883C572.031 99.2891 572.719 97.9219 573.609 96.7812C574.516 95.625 575.609 94.7344 576.891 94.1094C578.172 93.4844 579.617 93.1719 581.227 93.1719C582.961 93.1719 584.383 93.5078 585.492 94.1797C586.617 94.8359 587.516 95.7578 588.188 96.9453C588.875 98.1328 589.406 99.5234 589.781 101.117C590.172 102.695 590.5 104.398 590.766 106.227V106.812C590.5 108.531 590.133 110.156 589.664 111.688C589.211 113.203 588.617 114.547 587.883 115.719C587.148 116.891 586.227 117.812 585.117 118.484C584.023 119.141 582.711 119.469 581.18 119.469C579.586 119.469 578.148 119.148 576.867 118.508C575.602 117.867 574.516 116.969 573.609 115.812C572.719 114.656 572.031 113.297 571.547 111.734C571.078 110.172 570.844 108.469 570.844 106.625ZM578.742 106.133V106.625C578.742 107.578 578.828 108.461 579 109.273C579.188 110.086 579.469 110.805 579.844 111.43C580.219 112.039 580.68 112.516 581.227 112.859C581.789 113.203 582.445 113.375 583.195 113.375C584.336 113.375 585.258 113.133 585.961 112.648C586.664 112.164 587.172 111.477 587.484 110.586C587.797 109.695 587.93 108.648 587.883 107.445V105.594C587.914 104.562 587.844 103.656 587.672 102.875C587.5 102.078 587.227 101.414 586.852 100.883C586.492 100.352 586.008 99.9531 585.398 99.6875C584.805 99.4062 584.086 99.2656 583.242 99.2656C582.508 99.2656 581.859 99.4375 581.297 99.7812C580.734 100.125 580.266 100.609 579.891 101.234C579.516 101.844 579.227 102.57 579.023 103.414C578.836 104.242 578.742 105.148 578.742 106.133Z" fill="black"/>
<path d="M1134 0H1348C1356.28 0 1363 6.71573 1363 15V148C1363 156.284 1356.28 163 1348 163H1134V0Z" fill="#505357"/>
<path d="M1220.17 104.167H1276.83" stroke="white" stroke-width="5" stroke-linecap="round" stroke-linejoin="round"/>
<path d="M1240 75.8334L1245.67 81.5L1257 70.1667" stroke="white" stroke-width="5" stroke-linecap="round" stroke-linejoin="round"/>
<path d="M1268.33 58.8333H1228.67C1225.54 58.8333 1223 61.3704 1223 64.5V87.1666C1223 90.2963 1225.54 92.8333 1228.67 92.8333H1268.33C1271.46 92.8333 1274 90.2963 1274 87.1666V64.5C1274 61.3704 1271.46 58.8333 1268.33 58.8333Z" stroke="white" stroke-width="5" stroke-linecap="round" stroke-linejoin="round"/>
</svg>
