<svg width="1364" height="164" viewBox="0 0 1364 164" fill="none" xmlns="http://www.w3.org/2000/svg">
<g clip-path="url(#clip0_1_38)">
<path d="M0.5 15.5C0.5 7.21573 7.21573 0.5 15.5 0.5H37.5V163.5H15.5C7.21573 163.5 0.5 156.784 0.5 148.5V15.5Z" fill="#424242"/>
<path d="M1134.5 0.5H37.5V163.5H1134.5V0.5Z" fill="#F0F0F0"/>
<path d="M102.406 54.4219L94.8945 51.7383V48.5859L105.102 52.875V55.1367L102.406 54.4219ZM94.8945 56.6719L102.418 53.9297L105.102 53.2852V55.5352L94.8945 59.8242V56.6719ZM120.043 55.418H115.695V52.6758H120.043C120.715 52.6758 121.262 52.5664 121.684 52.3477C122.105 52.1211 122.414 51.8086 122.609 51.4102C122.805 51.0117 122.902 50.5625 122.902 50.0625C122.902 49.5547 122.805 49.082 122.609 48.6445C122.414 48.207 122.105 47.8555 121.684 47.5898C121.262 47.3242 120.715 47.1914 120.043 47.1914H116.914V61.5H113.398V44.4375H120.043C121.379 44.4375 122.523 44.6797 123.477 45.1641C124.438 45.6406 125.172 46.3008 125.68 47.1445C126.188 47.9883 126.441 48.9531 126.441 50.0391C126.441 51.1406 126.188 52.0938 125.68 52.8984C125.172 53.7031 124.438 54.3242 123.477 54.7617C122.523 55.1992 121.379 55.418 120.043 55.418ZM132.031 51.5859V61.5H128.656V48.8203H131.832L132.031 51.5859ZM135.852 48.7383L135.793 51.8672C135.629 51.8438 135.43 51.8242 135.195 51.8086C134.969 51.7852 134.762 51.7734 134.574 51.7734C134.098 51.7734 133.684 51.8359 133.332 51.9609C132.988 52.0781 132.699 52.2539 132.465 52.4883C132.238 52.7227 132.066 53.0078 131.949 53.3438C131.84 53.6797 131.777 54.0625 131.762 54.4922L131.082 54.2812C131.082 53.4609 131.164 52.707 131.328 52.0195C131.492 51.3242 131.73 50.7188 132.043 50.2031C132.363 49.6875 132.754 49.2891 133.215 49.0078C133.676 48.7266 134.203 48.5859 134.797 48.5859C134.984 48.5859 135.176 48.6016 135.371 48.6328C135.566 48.6562 135.727 48.6914 135.852 48.7383ZM136.555 55.2891V55.043C136.555 54.1133 136.688 53.2578 136.953 52.4766C137.219 51.6875 137.605 51.0039 138.113 50.4258C138.621 49.8477 139.246 49.3984 139.988 49.0781C140.73 48.75 141.582 48.5859 142.543 48.5859C143.504 48.5859 144.359 48.75 145.109 49.0781C145.859 49.3984 146.488 49.8477 146.996 50.4258C147.512 51.0039 147.902 51.6875 148.168 52.4766C148.434 53.2578 148.566 54.1133 148.566 55.043V55.2891C148.566 56.2109 148.434 57.0664 148.168 57.8555C147.902 58.6367 147.512 59.3203 146.996 59.9062C146.488 60.4844 145.863 60.9336 145.121 61.2539C144.379 61.5742 143.527 61.7344 142.566 61.7344C141.605 61.7344 140.75 61.5742 140 61.2539C139.258 60.9336 138.629 60.4844 138.113 59.9062C137.605 59.3203 137.219 58.6367 136.953 57.8555C136.688 57.0664 136.555 56.2109 136.555 55.2891ZM139.93 55.043V55.2891C139.93 55.8203 139.977 56.3164 140.07 56.7773C140.164 57.2383 140.312 57.6445 140.516 57.9961C140.727 58.3398 141 58.6094 141.336 58.8047C141.672 59 142.082 59.0977 142.566 59.0977C143.035 59.0977 143.438 59 143.773 58.8047C144.109 58.6094 144.379 58.3398 144.582 57.9961C144.785 57.6445 144.934 57.2383 145.027 56.7773C145.129 56.3164 145.18 55.8203 145.18 55.2891V55.043C145.18 54.5273 145.129 54.043 145.027 53.5898C144.934 53.1289 144.781 52.7227 144.57 52.3711C144.367 52.0117 144.098 51.7305 143.762 51.5273C143.426 51.3242 143.02 51.2227 142.543 51.2227C142.066 51.2227 141.66 51.3242 141.324 51.5273C140.996 51.7305 140.727 52.0117 140.516 52.3711C140.312 52.7227 140.164 53.1289 140.07 53.5898C139.977 54.043 139.93 54.5273 139.93 55.043ZM150.828 48.8203H154.215V62.2617C154.215 63.1992 154.043 63.9922 153.699 64.6406C153.355 65.2891 152.859 65.7812 152.211 66.1172C151.562 66.4531 150.777 66.6211 149.855 66.6211C149.566 66.6211 149.285 66.6055 149.012 66.5742C148.73 66.543 148.441 66.4922 148.145 66.4219L148.156 63.832C148.344 63.8633 148.527 63.8867 148.707 63.9023C148.879 63.9258 149.055 63.9375 149.234 63.9375C149.586 63.9375 149.879 63.8789 150.113 63.7617C150.348 63.6445 150.523 63.4609 150.641 63.2109C150.766 62.9688 150.828 62.6523 150.828 62.2617V48.8203ZM150.559 45.5156C150.559 45.0234 150.73 44.6172 151.074 44.2969C151.426 43.9766 151.887 43.8164 152.457 43.8164C153.035 43.8164 153.496 43.9766 153.84 44.2969C154.184 44.6172 154.355 45.0234 154.355 45.5156C154.355 46.0078 154.184 46.4141 153.84 46.7344C153.496 47.0547 153.035 47.2148 152.457 47.2148C151.887 47.2148 151.426 47.0547 151.074 46.7344C150.73 46.4141 150.559 46.0078 150.559 45.5156ZM162.734 61.7344C161.75 61.7344 160.867 61.5781 160.086 61.2656C159.305 60.9453 158.641 60.5039 158.094 59.9414C157.555 59.3789 157.141 58.7266 156.852 57.9844C156.562 57.2344 156.418 56.4375 156.418 55.5938V55.125C156.418 54.1641 156.555 53.2852 156.828 52.4883C157.102 51.6914 157.492 51 158 50.4141C158.516 49.8281 159.141 49.3789 159.875 49.0664C160.609 48.7461 161.438 48.5859 162.359 48.5859C163.258 48.5859 164.055 48.7344 164.75 49.0312C165.445 49.3281 166.027 49.75 166.496 50.2969C166.973 50.8438 167.332 51.5 167.574 52.2656C167.816 53.0234 167.938 53.8672 167.938 54.7969V56.2031H157.859V53.9531H164.621V53.6953C164.621 53.2266 164.535 52.8086 164.363 52.4414C164.199 52.0664 163.949 51.7695 163.613 51.5508C163.277 51.332 162.848 51.2227 162.324 51.2227C161.879 51.2227 161.496 51.3203 161.176 51.5156C160.855 51.7109 160.594 51.9844 160.391 52.3359C160.195 52.6875 160.047 53.1016 159.945 53.5781C159.852 54.0469 159.805 54.5625 159.805 55.125V55.5938C159.805 56.1016 159.875 56.5703 160.016 57C160.164 57.4297 160.371 57.8008 160.637 58.1133C160.91 58.4258 161.238 58.668 161.621 58.8398C162.012 59.0117 162.453 59.0977 162.945 59.0977C163.555 59.0977 164.121 58.9805 164.645 58.7461C165.176 58.5039 165.633 58.1406 166.016 57.6562L167.656 59.4375C167.391 59.8203 167.027 60.1875 166.566 60.5391C166.113 60.8906 165.566 61.1797 164.926 61.4062C164.285 61.625 163.555 61.7344 162.734 61.7344ZM175.098 59.0977C175.512 59.0977 175.879 59.0195 176.199 58.8633C176.52 58.6992 176.77 58.4727 176.949 58.1836C177.137 57.8867 177.234 57.5391 177.242 57.1406H180.418C180.41 58.0312 180.172 58.8242 179.703 59.5195C179.234 60.207 178.605 60.75 177.816 61.1484C177.027 61.5391 176.145 61.7344 175.168 61.7344C174.184 61.7344 173.324 61.5703 172.59 61.2422C171.863 60.9141 171.258 60.4609 170.773 59.8828C170.289 59.2969 169.926 58.6172 169.684 57.8438C169.441 57.0625 169.32 56.2266 169.32 55.3359V54.9961C169.32 54.0977 169.441 53.2617 169.684 52.4883C169.926 51.707 170.289 51.0273 170.773 50.4492C171.258 49.8633 171.863 49.4062 172.59 49.0781C173.316 48.75 174.168 48.5859 175.145 48.5859C176.184 48.5859 177.094 48.7852 177.875 49.1836C178.664 49.582 179.281 50.1523 179.727 50.8945C180.18 51.6289 180.41 52.5 180.418 53.5078H177.242C177.234 53.0859 177.145 52.7031 176.973 52.3594C176.809 52.0156 176.566 51.7422 176.246 51.5391C175.934 51.3281 175.547 51.2227 175.086 51.2227C174.594 51.2227 174.191 51.3281 173.879 51.5391C173.566 51.7422 173.324 52.0234 173.152 52.3828C172.98 52.7344 172.859 53.1367 172.789 53.5898C172.727 54.0352 172.695 54.5039 172.695 54.9961V55.3359C172.695 55.8281 172.727 56.3008 172.789 56.7539C172.852 57.207 172.969 57.6094 173.141 57.9609C173.32 58.3125 173.566 58.5898 173.879 58.793C174.191 58.9961 174.598 59.0977 175.098 59.0977ZM188.586 48.8203V51.2109H181.203V48.8203H188.586ZM183.031 45.6914H186.406V57.6797C186.406 58.0469 186.453 58.3281 186.547 58.5234C186.648 58.7188 186.797 58.8555 186.992 58.9336C187.188 59.0039 187.434 59.0391 187.73 59.0391C187.941 59.0391 188.129 59.0312 188.293 59.0156C188.465 58.9922 188.609 58.9688 188.727 58.9453L188.738 61.4297C188.449 61.5234 188.137 61.5977 187.801 61.6523C187.465 61.707 187.094 61.7344 186.688 61.7344C185.945 61.7344 185.297 61.6133 184.742 61.3711C184.195 61.1211 183.773 60.7227 183.477 60.1758C183.18 59.6289 183.031 58.9102 183.031 58.0195V45.6914ZM203.691 44.4375V61.5H200.188V44.4375H203.691ZM208.941 44.4375V47.1914H195.02V44.4375H208.941ZM214.297 48.8203V61.5H210.91V48.8203H214.297ZM210.699 45.5156C210.699 45.0234 210.871 44.6172 211.215 44.2969C211.559 43.9766 212.02 43.8164 212.598 43.8164C213.168 43.8164 213.625 43.9766 213.969 44.2969C214.32 44.6172 214.496 45.0234 214.496 45.5156C214.496 46.0078 214.32 46.4141 213.969 46.7344C213.625 47.0547 213.168 47.2148 212.598 47.2148C212.02 47.2148 211.559 47.0547 211.215 46.7344C210.871 46.4141 210.699 46.0078 210.699 45.5156ZM223.297 48.8203V51.2109H215.914V48.8203H223.297ZM217.742 45.6914H221.117V57.6797C221.117 58.0469 221.164 58.3281 221.258 58.5234C221.359 58.7188 221.508 58.8555 221.703 58.9336C221.898 59.0039 222.145 59.0391 222.441 59.0391C222.652 59.0391 222.84 59.0312 223.004 59.0156C223.176 58.9922 223.32 58.9688 223.438 58.9453L223.449 61.4297C223.16 61.5234 222.848 61.5977 222.512 61.6523C222.176 61.707 221.805 61.7344 221.398 61.7344C220.656 61.7344 220.008 61.6133 219.453 61.3711C218.906 61.1211 218.484 60.7227 218.188 60.1758C217.891 59.6289 217.742 58.9102 217.742 58.0195V45.6914ZM228.781 43.5V61.5H225.395V43.5H228.781ZM237.406 61.7344C236.422 61.7344 235.539 61.5781 234.758 61.2656C233.977 60.9453 233.312 60.5039 232.766 59.9414C232.227 59.3789 231.812 58.7266 231.523 57.9844C231.234 57.2344 231.09 56.4375 231.09 55.5938V55.125C231.09 54.1641 231.227 53.2852 231.5 52.4883C231.773 51.6914 232.164 51 232.672 50.4141C233.188 49.8281 233.812 49.3789 234.547 49.0664C235.281 48.7461 236.109 48.5859 237.031 48.5859C237.93 48.5859 238.727 48.7344 239.422 49.0312C240.117 49.3281 240.699 49.75 241.168 50.2969C241.645 50.8438 242.004 51.5 242.246 52.2656C242.488 53.0234 242.609 53.8672 242.609 54.7969V56.2031H232.531V53.9531H239.293V53.6953C239.293 53.2266 239.207 52.8086 239.035 52.4414C238.871 52.0664 238.621 51.7695 238.285 51.5508C237.949 51.332 237.52 51.2227 236.996 51.2227C236.551 51.2227 236.168 51.3203 235.848 51.5156C235.527 51.7109 235.266 51.9844 235.062 52.3359C234.867 52.6875 234.719 53.1016 234.617 53.5781C234.523 54.0469 234.477 54.5625 234.477 55.125V55.5938C234.477 56.1016 234.547 56.5703 234.688 57C234.836 57.4297 235.043 57.8008 235.309 58.1133C235.582 58.4258 235.91 58.668 236.293 58.8398C236.684 59.0117 237.125 59.0977 237.617 59.0977C238.227 59.0977 238.793 58.9805 239.316 58.7461C239.848 58.5039 240.305 58.1406 240.688 57.6562L242.328 59.4375C242.062 59.8203 241.699 60.1875 241.238 60.5391C240.785 60.8906 240.238 61.1797 239.598 61.4062C238.957 61.625 238.227 61.7344 237.406 61.7344Z" fill="#888888"/>
<path d="M107.188 119.5H99.6172L99.6641 113.172H107.188C108.75 113.172 110.07 112.797 111.148 112.047C112.242 111.297 113.07 110.18 113.633 108.695C114.211 107.195 114.5 105.352 114.5 103.164V101.688C114.5 100.047 114.336 98.6094 114.008 97.375C113.695 96.125 113.227 95.0859 112.602 94.2578C111.977 93.4141 111.195 92.7812 110.258 92.3594C109.336 91.9375 108.273 91.7266 107.07 91.7266H99.4766V85.375H107.07C109.383 85.375 111.5 85.7734 113.422 86.5703C115.359 87.3516 117.031 88.4766 118.438 89.9453C119.859 91.3984 120.953 93.125 121.719 95.125C122.5 97.1094 122.891 99.3125 122.891 101.734V103.164C122.891 105.57 122.5 107.773 121.719 109.773C120.953 111.773 119.867 113.5 118.461 114.953C117.055 116.406 115.391 117.531 113.469 118.328C111.562 119.109 109.469 119.5 107.188 119.5ZM104.328 85.375V119.5H96.1016V85.375H104.328ZM139.086 119.969C137.023 119.969 135.18 119.648 133.555 119.008C131.93 118.352 130.555 117.453 129.43 116.312C128.32 115.172 127.469 113.859 126.875 112.375C126.297 110.891 126.008 109.32 126.008 107.664V106.773C126.008 104.914 126.266 103.195 126.781 101.617C127.297 100.023 128.062 98.6328 129.078 97.4453C130.094 96.2578 131.367 95.3359 132.898 94.6797C134.43 94.0078 136.211 93.6719 138.242 93.6719C140.039 93.6719 141.648 93.9609 143.07 94.5391C144.492 95.1172 145.695 95.9453 146.68 97.0234C147.68 98.1016 148.438 99.4062 148.953 100.938C149.484 102.469 149.75 104.188 149.75 106.094V109.305H129.031V104.359H142.039V103.75C142.055 102.906 141.906 102.188 141.594 101.594C141.297 101 140.859 100.547 140.281 100.234C139.703 99.9219 139 99.7656 138.172 99.7656C137.312 99.7656 136.602 99.9531 136.039 100.328C135.492 100.703 135.062 101.219 134.75 101.875C134.453 102.516 134.242 103.258 134.117 104.102C133.992 104.945 133.93 105.836 133.93 106.773V107.664C133.93 108.602 134.055 109.453 134.305 110.219C134.57 110.984 134.945 111.641 135.43 112.188C135.93 112.719 136.523 113.133 137.211 113.43C137.914 113.727 138.711 113.875 139.602 113.875C140.68 113.875 141.742 113.672 142.789 113.266C143.836 112.859 144.734 112.188 145.484 111.25L149.07 115.516C148.555 116.25 147.82 116.961 146.867 117.648C145.93 118.336 144.805 118.898 143.492 119.336C142.18 119.758 140.711 119.969 139.086 119.969ZM161.773 114.086L166.766 94.1406H175.086L166.789 119.5H161.867L161.773 114.086ZM158.82 94.1406L163.742 114.086L163.695 119.5H158.75L150.477 94.1406H158.82ZM189.383 119.969C187.32 119.969 185.477 119.648 183.852 119.008C182.227 118.352 180.852 117.453 179.727 116.312C178.617 115.172 177.766 113.859 177.172 112.375C176.594 110.891 176.305 109.32 176.305 107.664V106.773C176.305 104.914 176.562 103.195 177.078 101.617C177.594 100.023 178.359 98.6328 179.375 97.4453C180.391 96.2578 181.664 95.3359 183.195 94.6797C184.727 94.0078 186.508 93.6719 188.539 93.6719C190.336 93.6719 191.945 93.9609 193.367 94.5391C194.789 95.1172 195.992 95.9453 196.977 97.0234C197.977 98.1016 198.734 99.4062 199.25 100.938C199.781 102.469 200.047 104.188 200.047 106.094V109.305H179.328V104.359H192.336V103.75C192.352 102.906 192.203 102.188 191.891 101.594C191.594 101 191.156 100.547 190.578 100.234C190 99.9219 189.297 99.7656 188.469 99.7656C187.609 99.7656 186.898 99.9531 186.336 100.328C185.789 100.703 185.359 101.219 185.047 101.875C184.75 102.516 184.539 103.258 184.414 104.102C184.289 104.945 184.227 105.836 184.227 106.773V107.664C184.227 108.602 184.352 109.453 184.602 110.219C184.867 110.984 185.242 111.641 185.727 112.188C186.227 112.719 186.82 113.133 187.508 113.43C188.211 113.727 189.008 113.875 189.898 113.875C190.977 113.875 192.039 113.672 193.086 113.266C194.133 112.859 195.031 112.188 195.781 111.25L199.367 115.516C198.852 116.25 198.117 116.961 197.164 117.648C196.227 118.336 195.102 118.898 193.789 119.336C192.477 119.758 191.008 119.969 189.383 119.969ZM211.602 83.5V119.5H203.68V83.5H211.602ZM215.492 107.078V106.586C215.492 104.727 215.758 103.016 216.289 101.453C216.82 99.875 217.602 98.5078 218.633 97.3516C219.664 96.1953 220.938 95.2969 222.453 94.6562C223.969 94 225.719 93.6719 227.703 93.6719C229.703 93.6719 231.461 94 232.977 94.6562C234.508 95.2969 235.789 96.1953 236.82 97.3516C237.852 98.5078 238.633 99.875 239.164 101.453C239.695 103.016 239.961 104.727 239.961 106.586V107.078C239.961 108.922 239.695 110.633 239.164 112.211C238.633 113.773 237.852 115.141 236.82 116.312C235.789 117.469 234.516 118.367 233 119.008C231.484 119.648 229.734 119.969 227.75 119.969C225.766 119.969 224.008 119.648 222.477 119.008C220.945 118.367 219.664 117.469 218.633 116.312C217.602 115.141 216.82 113.773 216.289 112.211C215.758 110.633 215.492 108.922 215.492 107.078ZM223.391 106.586V107.078C223.391 108.031 223.461 108.922 223.602 109.75C223.742 110.578 223.977 111.305 224.305 111.93C224.633 112.539 225.078 113.016 225.641 113.359C226.203 113.703 226.906 113.875 227.75 113.875C228.578 113.875 229.266 113.703 229.812 113.359C230.375 113.016 230.82 112.539 231.148 111.93C231.477 111.305 231.711 110.578 231.852 109.75C231.992 108.922 232.062 108.031 232.062 107.078V106.586C232.062 105.664 231.992 104.797 231.852 103.984C231.711 103.156 231.477 102.43 231.148 101.805C230.82 101.164 230.375 100.664 229.812 100.305C229.25 99.9453 228.547 99.7656 227.703 99.7656C226.875 99.7656 226.18 99.9453 225.617 100.305C225.07 100.664 224.633 101.164 224.305 101.805C223.977 102.43 223.742 103.156 223.602 103.984C223.461 104.797 223.391 105.664 223.391 106.586ZM251.445 99.0156V129.25H243.547V94.1406H250.906L251.445 99.0156ZM267.008 106.516V107.008C267.008 108.852 266.797 110.562 266.375 112.141C265.953 113.719 265.328 115.094 264.5 116.266C263.672 117.438 262.641 118.352 261.406 119.008C260.188 119.648 258.773 119.969 257.164 119.969C255.648 119.969 254.344 119.633 253.25 118.961C252.156 118.289 251.242 117.359 250.508 116.172C249.773 114.984 249.18 113.625 248.727 112.094C248.273 110.562 247.914 108.945 247.648 107.242V106.609C247.914 104.781 248.273 103.086 248.727 101.523C249.18 99.9453 249.773 98.5703 250.508 97.3984C251.242 96.2266 252.148 95.3125 253.227 94.6562C254.32 94 255.625 93.6719 257.141 93.6719C258.75 93.6719 260.164 93.9766 261.383 94.5859C262.617 95.1953 263.648 96.0703 264.477 97.2109C265.32 98.3359 265.953 99.6875 266.375 101.266C266.797 102.844 267.008 104.594 267.008 106.516ZM259.109 107.008V106.516C259.109 105.531 259.039 104.633 258.898 103.82C258.758 102.992 258.531 102.273 258.219 101.664C257.922 101.055 257.523 100.586 257.023 100.258C256.523 99.9297 255.906 99.7656 255.172 99.7656C254.328 99.7656 253.617 99.8984 253.039 100.164C252.477 100.414 252.023 100.805 251.68 101.336C251.352 101.852 251.117 102.5 250.977 103.281C250.852 104.047 250.797 104.945 250.812 105.977V107.898C250.781 109.086 250.898 110.133 251.164 111.039C251.43 111.93 251.891 112.625 252.547 113.125C253.203 113.625 254.094 113.875 255.219 113.875C255.969 113.875 256.594 113.703 257.094 113.359C257.594 113 257.992 112.508 258.289 111.883C258.586 111.242 258.797 110.508 258.922 109.68C259.047 108.852 259.109 107.961 259.109 107.008ZM278.492 99.5078V119.5H270.594V94.1406H278L278.492 99.5078ZM277.531 105.953L275.727 106C275.727 104.219 275.938 102.578 276.359 101.078C276.781 99.5781 277.406 98.2734 278.234 97.1641C279.062 96.0547 280.078 95.1953 281.281 94.5859C282.5 93.9766 283.906 93.6719 285.5 93.6719C286.609 93.6719 287.617 93.8438 288.523 94.1875C289.43 94.5156 290.211 95.0391 290.867 95.7578C291.523 96.4609 292.023 97.3828 292.367 98.5234C292.727 99.6484 292.906 101 292.906 102.578V119.5H285.008V103.586C285.008 102.508 284.883 101.695 284.633 101.148C284.398 100.602 284.055 100.234 283.602 100.047C283.148 99.8594 282.594 99.7656 281.938 99.7656C281.25 99.7656 280.633 99.9219 280.086 100.234C279.539 100.547 279.07 100.984 278.68 101.547C278.305 102.094 278.016 102.742 277.812 103.492C277.625 104.242 277.531 105.062 277.531 105.953ZM292.016 105.953L289.812 106C289.812 104.219 290.008 102.578 290.398 101.078C290.805 99.5781 291.406 98.2734 292.203 97.1641C293.016 96.0547 294.023 95.1953 295.227 94.5859C296.43 93.9766 297.828 93.6719 299.422 93.6719C300.578 93.6719 301.641 93.8438 302.609 94.1875C303.578 94.5312 304.414 95.0859 305.117 95.8516C305.82 96.6172 306.367 97.6328 306.758 98.8984C307.148 100.148 307.344 101.695 307.344 103.539V119.5H299.422V103.539C299.422 102.492 299.297 101.703 299.047 101.172C298.812 100.625 298.469 100.258 298.016 100.07C297.562 99.8672 297.023 99.7656 296.398 99.7656C295.648 99.7656 295 99.9219 294.453 100.234C293.906 100.547 293.445 100.984 293.07 101.547C292.711 102.094 292.445 102.742 292.273 103.492C292.102 104.242 292.016 105.062 292.016 105.953ZM324.148 119.969C322.086 119.969 320.242 119.648 318.617 119.008C316.992 118.352 315.617 117.453 314.492 116.312C313.383 115.172 312.531 113.859 311.938 112.375C311.359 110.891 311.07 109.32 311.07 107.664V106.773C311.07 104.914 311.328 103.195 311.844 101.617C312.359 100.023 313.125 98.6328 314.141 97.4453C315.156 96.2578 316.43 95.3359 317.961 94.6797C319.492 94.0078 321.273 93.6719 323.305 93.6719C325.102 93.6719 326.711 93.9609 328.133 94.5391C329.555 95.1172 330.758 95.9453 331.742 97.0234C332.742 98.1016 333.5 99.4062 334.016 100.938C334.547 102.469 334.812 104.188 334.812 106.094V109.305H314.094V104.359H327.102V103.75C327.117 102.906 326.969 102.188 326.656 101.594C326.359 101 325.922 100.547 325.344 100.234C324.766 99.9219 324.062 99.7656 323.234 99.7656C322.375 99.7656 321.664 99.9531 321.102 100.328C320.555 100.703 320.125 101.219 319.812 101.875C319.516 102.516 319.305 103.258 319.18 104.102C319.055 104.945 318.992 105.836 318.992 106.773V107.664C318.992 108.602 319.117 109.453 319.367 110.219C319.633 110.984 320.008 111.641 320.492 112.188C320.992 112.719 321.586 113.133 322.273 113.43C322.977 113.727 323.773 113.875 324.664 113.875C325.742 113.875 326.805 113.672 327.852 113.266C328.898 112.859 329.797 112.188 330.547 111.25L334.133 115.516C333.617 116.25 332.883 116.961 331.93 117.648C330.992 118.336 329.867 118.898 328.555 119.336C327.242 119.758 325.773 119.969 324.148 119.969ZM345.781 99.5547V119.5H337.883V94.1406H345.289L345.781 99.5547ZM344.844 105.953L342.992 106C342.992 104.062 343.227 102.336 343.695 100.82C344.164 99.2891 344.828 97.9922 345.688 96.9297C346.547 95.8672 347.57 95.0625 348.758 94.5156C349.961 93.9531 351.297 93.6719 352.766 93.6719C353.938 93.6719 355.008 93.8438 355.977 94.1875C356.961 94.5312 357.805 95.0859 358.508 95.8516C359.227 96.6172 359.773 97.6328 360.148 98.8984C360.539 100.148 360.734 101.695 360.734 103.539V119.5H352.789V103.516C352.789 102.5 352.648 101.727 352.367 101.195C352.086 100.648 351.68 100.273 351.148 100.07C350.617 99.8672 349.969 99.7656 349.203 99.7656C348.391 99.7656 347.703 99.9219 347.141 100.234C346.578 100.547 346.125 100.984 345.781 101.547C345.453 102.094 345.211 102.742 345.055 103.492C344.914 104.242 344.844 105.062 344.844 105.953ZM378.477 94.1406V99.625H363.195V94.1406H378.477ZM366.406 87.8359H374.305V111.227C374.305 111.898 374.383 112.422 374.539 112.797C374.695 113.156 374.961 113.414 375.336 113.57C375.727 113.711 376.242 113.781 376.883 113.781C377.336 113.781 377.711 113.773 378.008 113.758C378.305 113.727 378.586 113.688 378.852 113.641V119.289C378.18 119.508 377.477 119.672 376.742 119.781C376.008 119.906 375.227 119.969 374.398 119.969C372.711 119.969 371.266 119.703 370.062 119.172C368.875 118.641 367.969 117.805 367.344 116.664C366.719 115.523 366.406 114.039 366.406 112.211V87.8359ZM398.562 101.57L405.805 97.0469C406.773 96.4219 407.367 95.8359 407.586 95.2891C407.82 94.7266 407.938 94.1797 407.938 93.6484C407.938 93.0078 407.703 92.4062 407.234 91.8438C406.781 91.2656 406.141 90.9766 405.312 90.9766C404.703 90.9766 404.188 91.1172 403.766 91.3984C403.359 91.6641 403.047 92.0234 402.828 92.4766C402.625 92.9297 402.523 93.4375 402.523 94C402.523 94.7031 402.719 95.4141 403.109 96.1328C403.5 96.8516 404.016 97.6094 404.656 98.4062C405.312 99.2031 406.039 100.078 406.836 101.031L422.891 119.5H414.078L401 104.641C399.922 103.266 398.984 102 398.188 100.844C397.406 99.6875 396.797 98.5625 396.359 97.4688C395.922 96.375 395.703 95.25 395.703 94.0938C395.703 92.2969 396.094 90.7109 396.875 89.3359C397.672 87.9453 398.789 86.8594 400.227 86.0781C401.68 85.2812 403.383 84.8828 405.336 84.8828C407.148 84.8828 408.719 85.2578 410.047 86.0078C411.391 86.7578 412.43 87.7578 413.164 89.0078C413.898 90.2422 414.266 91.6016 414.266 93.0859C414.266 94.1172 414.07 95.0938 413.68 96.0156C413.289 96.9375 412.75 97.7812 412.062 98.5469C411.391 99.3125 410.617 100.008 409.742 100.633L401.914 106.094C401.602 106.484 401.344 106.883 401.141 107.289C400.953 107.68 400.812 108.078 400.719 108.484C400.641 108.891 400.602 109.328 400.602 109.797C400.602 110.609 400.773 111.328 401.117 111.953C401.461 112.562 401.914 113.039 402.477 113.383C403.055 113.727 403.68 113.898 404.352 113.898C405.617 113.898 406.836 113.625 408.008 113.078C409.195 112.516 410.258 111.727 411.195 110.711C412.133 109.695 412.875 108.484 413.422 107.078C413.969 105.672 414.242 104.125 414.242 102.438H420.852C420.852 104.281 420.664 106.039 420.289 107.711C419.93 109.367 419.328 110.898 418.484 112.305C417.656 113.711 416.539 114.945 415.133 116.008C415.055 116.055 414.906 116.148 414.688 116.289C414.484 116.414 414.336 116.5 414.242 116.547C412.602 117.719 410.984 118.586 409.391 119.148C407.797 119.711 405.938 119.992 403.812 119.992C401.516 119.992 399.531 119.578 397.859 118.75C396.203 117.922 394.922 116.781 394.016 115.328C393.109 113.875 392.656 112.211 392.656 110.336C392.656 109.008 392.906 107.852 393.406 106.867C393.906 105.867 394.602 104.945 395.492 104.102C396.383 103.258 397.406 102.414 398.562 101.57ZM453.406 85.375V119.5H445.18V85.375H453.406ZM463.672 85.375V91.7266H435.148V85.375H463.672ZM476.961 119.969C474.898 119.969 473.055 119.648 471.43 119.008C469.805 118.352 468.43 117.453 467.305 116.312C466.195 115.172 465.344 113.859 464.75 112.375C464.172 110.891 463.883 109.32 463.883 107.664V106.773C463.883 104.914 464.141 103.195 464.656 101.617C465.172 100.023 465.938 98.6328 466.953 97.4453C467.969 96.2578 469.242 95.3359 470.773 94.6797C472.305 94.0078 474.086 93.6719 476.117 93.6719C477.914 93.6719 479.523 93.9609 480.945 94.5391C482.367 95.1172 483.57 95.9453 484.555 97.0234C485.555 98.1016 486.312 99.4062 486.828 100.938C487.359 102.469 487.625 104.188 487.625 106.094V109.305H466.906V104.359H479.914V103.75C479.93 102.906 479.781 102.188 479.469 101.594C479.172 101 478.734 100.547 478.156 100.234C477.578 99.9219 476.875 99.7656 476.047 99.7656C475.188 99.7656 474.477 99.9531 473.914 100.328C473.367 100.703 472.938 101.219 472.625 101.875C472.328 102.516 472.117 103.258 471.992 104.102C471.867 104.945 471.805 105.836 471.805 106.773V107.664C471.805 108.602 471.93 109.453 472.18 110.219C472.445 110.984 472.82 111.641 473.305 112.188C473.805 112.719 474.398 113.133 475.086 113.43C475.789 113.727 476.586 113.875 477.477 113.875C478.555 113.875 479.617 113.672 480.664 113.266C481.711 112.859 482.609 112.188 483.359 111.25L486.945 115.516C486.43 116.25 485.695 116.961 484.742 117.648C483.805 118.336 482.68 118.898 481.367 119.336C480.055 119.758 478.586 119.969 476.961 119.969ZM504.125 112.375C504.125 111.938 503.977 111.562 503.68 111.25C503.398 110.922 502.898 110.625 502.18 110.359C501.461 110.078 500.453 109.797 499.156 109.516C497.922 109.25 496.758 108.898 495.664 108.461C494.586 108.023 493.641 107.492 492.828 106.867C492.016 106.242 491.375 105.5 490.906 104.641C490.453 103.781 490.227 102.797 490.227 101.688C490.227 100.609 490.453 99.5938 490.906 98.6406C491.375 97.6719 492.055 96.8203 492.945 96.0859C493.852 95.3359 494.953 94.75 496.25 94.3281C497.547 93.8906 499.023 93.6719 500.68 93.6719C502.961 93.6719 504.93 94.0234 506.586 94.7266C508.242 95.4141 509.516 96.3828 510.406 97.6328C511.312 98.8672 511.766 100.297 511.766 101.922H503.867C503.867 101.281 503.758 100.734 503.539 100.281C503.336 99.8281 503 99.4844 502.531 99.25C502.062 99 501.438 98.875 500.656 98.875C500.109 98.875 499.609 98.9766 499.156 99.1797C498.719 99.3828 498.367 99.6641 498.102 100.023C497.836 100.383 497.703 100.805 497.703 101.289C497.703 101.633 497.781 101.945 497.938 102.227C498.109 102.492 498.367 102.742 498.711 102.977C499.055 103.195 499.492 103.398 500.023 103.586C500.555 103.758 501.195 103.914 501.945 104.055C503.648 104.367 505.242 104.812 506.727 105.391C508.211 105.969 509.414 106.789 510.336 107.852C511.273 108.914 511.742 110.344 511.742 112.141C511.742 113.266 511.484 114.305 510.969 115.258C510.453 116.195 509.711 117.023 508.742 117.742C507.773 118.445 506.609 118.992 505.25 119.383C503.891 119.773 502.359 119.969 500.656 119.969C498.234 119.969 496.188 119.539 494.516 118.68C492.844 117.805 491.578 116.711 490.719 115.398C489.875 114.07 489.453 112.727 489.453 111.367H496.812C496.844 112.148 497.031 112.789 497.375 113.289C497.734 113.789 498.211 114.156 498.805 114.391C499.398 114.625 500.086 114.742 500.867 114.742C501.586 114.742 502.18 114.641 502.648 114.438C503.133 114.234 503.5 113.961 503.75 113.617C504 113.258 504.125 112.844 504.125 112.375ZM528.805 94.1406V99.625H513.523V94.1406H528.805ZM516.734 87.8359H524.633V111.227C524.633 111.898 524.711 112.422 524.867 112.797C525.023 113.156 525.289 113.414 525.664 113.57C526.055 113.711 526.57 113.781 527.211 113.781C527.664 113.781 528.039 113.773 528.336 113.758C528.633 113.727 528.914 113.688 529.18 113.641V119.289C528.508 119.508 527.805 119.672 527.07 119.781C526.336 119.906 525.555 119.969 524.727 119.969C523.039 119.969 521.594 119.703 520.391 119.172C519.203 118.641 518.297 117.805 517.672 116.664C517.047 115.523 516.734 114.039 516.734 112.211V87.8359ZM540.289 94.1406V119.5H532.367V94.1406H540.289ZM531.898 87.6016C531.898 86.4766 532.305 85.5547 533.117 84.8359C533.93 84.1172 534.984 83.7578 536.281 83.7578C537.578 83.7578 538.633 84.1172 539.445 84.8359C540.258 85.5547 540.664 86.4766 540.664 87.6016C540.664 88.7266 540.258 89.6484 539.445 90.3672C538.633 91.0859 537.578 91.4453 536.281 91.4453C534.984 91.4453 533.93 91.0859 533.117 90.3672C532.305 89.6484 531.898 88.7266 531.898 87.6016ZM552.922 99.5547V119.5H545.023V94.1406H552.43L552.922 99.5547ZM551.984 105.953L550.133 106C550.133 104.062 550.367 102.336 550.836 100.82C551.305 99.2891 551.969 97.9922 552.828 96.9297C553.688 95.8672 554.711 95.0625 555.898 94.5156C557.102 93.9531 558.438 93.6719 559.906 93.6719C561.078 93.6719 562.148 93.8438 563.117 94.1875C564.102 94.5312 564.945 95.0859 565.648 95.8516C566.367 96.6172 566.914 97.6328 567.289 98.8984C567.68 100.148 567.875 101.695 567.875 103.539V119.5H559.93V103.516C559.93 102.5 559.789 101.727 559.508 101.195C559.227 100.648 558.82 100.273 558.289 100.07C557.758 99.8672 557.109 99.7656 556.344 99.7656C555.531 99.7656 554.844 99.9219 554.281 100.234C553.719 100.547 553.266 100.984 552.922 101.547C552.594 102.094 552.352 102.742 552.195 103.492C552.055 104.242 551.984 105.062 551.984 105.953ZM588.195 94.1406H595.367V118.516C595.367 120.859 594.828 122.844 593.75 124.469C592.672 126.109 591.164 127.352 589.227 128.195C587.305 129.055 585.055 129.484 582.477 129.484C581.336 129.484 580.172 129.336 578.984 129.039C577.797 128.758 576.688 128.336 575.656 127.773C574.625 127.211 573.758 126.516 573.055 125.688L576.359 121.047C577 121.766 577.805 122.375 578.773 122.875C579.742 123.391 580.883 123.648 582.195 123.648C583.336 123.648 584.289 123.445 585.055 123.039C585.836 122.633 586.43 122.039 586.836 121.258C587.242 120.492 587.445 119.562 587.445 118.469V100.141L588.195 94.1406ZM571.344 107.125V106.633C571.344 104.711 571.578 102.961 572.047 101.383C572.531 99.7891 573.219 98.4219 574.109 97.2812C575.016 96.125 576.109 95.2344 577.391 94.6094C578.672 93.9844 580.117 93.6719 581.727 93.6719C583.461 93.6719 584.883 94.0078 585.992 94.6797C587.117 95.3359 588.016 96.2578 588.688 97.4453C589.375 98.6328 589.906 100.023 590.281 101.617C590.672 103.195 591 104.898 591.266 106.727V107.312C591 109.031 590.633 110.656 590.164 112.188C589.711 113.703 589.117 115.047 588.383 116.219C587.648 117.391 586.727 118.312 585.617 118.984C584.523 119.641 583.211 119.969 581.68 119.969C580.086 119.969 578.648 119.648 577.367 119.008C576.102 118.367 575.016 117.469 574.109 116.312C573.219 115.156 572.531 113.797 572.047 112.234C571.578 110.672 571.344 108.969 571.344 107.125ZM579.242 106.633V107.125C579.242 108.078 579.328 108.961 579.5 109.773C579.688 110.586 579.969 111.305 580.344 111.93C580.719 112.539 581.18 113.016 581.727 113.359C582.289 113.703 582.945 113.875 583.695 113.875C584.836 113.875 585.758 113.633 586.461 113.148C587.164 112.664 587.672 111.977 587.984 111.086C588.297 110.195 588.43 109.148 588.383 107.945V106.094C588.414 105.062 588.344 104.156 588.172 103.375C588 102.578 587.727 101.914 587.352 101.383C586.992 100.852 586.508 100.453 585.898 100.188C585.305 99.9062 584.586 99.7656 583.742 99.7656C583.008 99.7656 582.359 99.9375 581.797 100.281C581.234 100.625 580.766 101.109 580.391 101.734C580.016 102.344 579.727 103.07 579.523 103.914C579.336 104.742 579.242 105.648 579.242 106.633Z" fill="black"/>
<path d="M1134.5 0.5H1348.5C1356.78 0.5 1363.5 7.21573 1363.5 15.5V148.5C1363.5 156.784 1356.78 163.5 1348.5 163.5H1134.5V0.5Z" fill="#091C25"/>
<path d="M1220.67 104.667H1277.33" stroke="white" stroke-width="5" stroke-linecap="round" stroke-linejoin="round"/>
<path d="M1240.5 76.3334L1246.17 82L1257.5 70.6667" stroke="white" stroke-width="5" stroke-linecap="round" stroke-linejoin="round"/>
<path d="M1268.83 59.3333H1229.17C1226.04 59.3333 1223.5 61.8704 1223.5 65V87.6666C1223.5 90.7963 1226.04 93.3333 1229.17 93.3333H1268.83C1271.96 93.3333 1274.5 90.7963 1274.5 87.6666V65C1274.5 61.8704 1271.96 59.3333 1268.83 59.3333Z" stroke="white" stroke-width="5" stroke-linecap="round" stroke-linejoin="round"/>
</g>
<defs>
<clipPath id="clip0_1_38">
<rect width="1363" height="163" fill="white" transform="translate(0.5 0.5)"/>
</clipPath>
</defs>
</svg>
