<svg width="1364" height="164" viewBox="0 0 1364 164" fill="none" xmlns="http://www.w3.org/2000/svg">
<g clip-path="url(#clip0_1_31)">
<path d="M0.5 15.5C0.5 7.21573 7.21573 0.5 15.5 0.5H37.5V163.5H15.5C7.21573 163.5 0.5 156.784 0.5 148.5V15.5Z" fill="#091C25"/>
<path d="M1134.5 0.5H37.5V163.5H1134.5V0.5Z" fill="#F0F0F0"/>
<path d="M103.304 39.568L102.984 55.824L105.672 56.08C105.672 56.6773 105.491 57.3173 105.128 58H97.7681L97.6721 56.88C98.8241 56.496 99.8055 56.24 100.616 56.112C100.573 54.7253 100.499 51.8667 100.392 47.536C100.307 43.2053 100.232 39.856 100.168 37.488C99.3575 37.36 98.3975 37.104 97.2881 36.72L97.3841 35.6H103.72L115.4 54.256L114.856 37.488C114.067 37.3387 113.117 37.0827 112.008 36.72L112.104 35.6H120.104C120.467 36.2827 120.648 36.9227 120.648 37.52C119.581 37.6053 118.728 37.648 118.088 37.648L117.768 58H114.664L103.304 39.568ZM130.861 55.888C131.48 55.888 132.173 55.76 132.941 55.504C133.709 55.2267 134.338 54.896 134.829 54.512C134.744 49.968 134.669 46.5227 134.605 44.176C133.282 44.176 132.301 44.048 131.661 43.792L131.789 42.128C133.602 41.808 135.021 41.648 136.045 41.648C137.09 41.648 137.752 41.6693 138.029 41.712C138.029 42.096 137.965 42.608 137.837 43.248C137.73 43.888 137.656 44.24 137.613 44.304L137.229 55.728C138.36 55.792 139.277 55.92 139.981 56.112L139.917 57.744C138.978 58.0427 138.072 58.192 137.197 58.192C136.322 58.192 135.789 58.1813 135.597 58.16C135.192 57.3493 134.957 56.6027 134.893 55.92C133.848 56.7093 132.877 57.3173 131.981 57.744C131.106 58.1707 130.53 58.384 130.253 58.384C128.376 58.384 127.01 57.8827 126.157 56.88C125.325 55.856 124.909 54.3627 124.909 52.4C124.909 52.3787 125.005 49.648 125.197 44.208C123.96 44.208 122.818 44.0693 121.773 43.792L121.901 42.128C123.714 41.808 125.122 41.648 126.125 41.648C127.128 41.648 127.768 41.6693 128.045 41.712C128.045 42.224 127.981 42.7893 127.853 43.408C127.725 44.0267 127.65 44.3253 127.629 44.304L127.661 51.216C127.661 52.8373 127.864 54.0213 128.269 54.768C128.674 55.5147 129.538 55.888 130.861 55.888ZM157.949 55.856C161.128 55.856 162.717 54.5653 162.717 51.984C162.717 50.7253 161.938 49.6587 160.381 48.784C159.677 48.3787 158.898 47.9947 158.045 47.632C157.213 47.2693 156.37 46.8747 155.517 46.448C154.664 46.0213 153.885 45.5627 153.181 45.072C152.498 44.5813 151.933 43.9627 151.485 43.216C151.058 42.4693 150.845 41.6267 150.845 40.688C150.845 39.152 151.464 37.8507 152.701 36.784C153.96 35.696 155.677 35.152 157.853 35.152C160.029 35.152 162.322 35.8133 164.733 37.136C164.733 38.352 164.584 39.8773 164.285 41.712C163.816 41.776 163.197 41.808 162.429 41.808L161.469 38.096C161.213 37.968 160.701 37.84 159.933 37.712C159.186 37.584 158.525 37.52 157.949 37.52C156.712 37.52 155.752 37.7867 155.069 38.32C154.386 38.832 154.045 39.5573 154.045 40.496C154.045 41.4133 154.44 42.2453 155.229 42.992C156.04 43.7173 157.01 44.3467 158.141 44.88C159.293 45.392 160.434 45.9253 161.565 46.48C162.717 47.0347 163.688 47.76 164.477 48.656C165.288 49.5307 165.693 50.5547 165.693 51.728C165.693 53.8613 164.978 55.5147 163.549 56.688C162.12 57.84 160.253 58.416 157.949 58.416C156.69 58.416 155.325 58.224 153.853 57.84C152.402 57.4347 151.197 56.9227 150.237 56.304C150.28 54.8747 150.44 53.2213 150.717 51.344C151.186 51.28 151.805 51.248 152.573 51.248L153.245 55.088C153.714 55.28 154.418 55.4613 155.357 55.632C156.317 55.7813 157.181 55.856 157.949 55.856ZM175.909 58.384C173.349 58.384 171.439 57.6693 170.181 56.24C168.922 54.7893 168.293 52.7307 168.293 50.064C168.293 44.2613 170.874 41.36 176.037 41.36C176.869 41.36 177.733 41.488 178.629 41.744C179.525 41.9787 180.229 42.2453 180.741 42.544C180.677 44.528 180.474 45.936 180.133 46.768C179.749 46.8747 179.439 46.928 179.205 46.928H178.661C178.554 46.928 178.426 46.9173 178.277 46.896L177.477 43.376C176.773 43.312 176.367 43.28 176.261 43.28C174.725 43.28 173.498 43.7493 172.581 44.688C171.685 45.6267 171.237 47.2053 171.237 49.424C171.237 51.6427 171.578 53.328 172.261 54.48C172.965 55.632 174.309 56.208 176.293 56.208C177.231 56.208 178.703 55.76 180.709 54.864C181.114 55.4187 181.327 55.9093 181.349 56.336C180.261 56.976 179.194 57.4773 178.149 57.84C177.103 58.2027 176.357 58.384 175.909 58.384ZM196.25 47.536L196.09 55.792C197.008 55.856 197.925 56.0053 198.842 56.24L198.778 57.36C198.437 57.5307 197.818 57.7227 196.922 57.936C196.048 58.128 195.184 58.224 194.33 58.224C193.946 57.456 193.733 56.72 193.69 56.016C191.258 57.616 189.552 58.416 188.57 58.416C187.056 58.416 185.84 58.0107 184.922 57.2C184.005 56.3893 183.546 55.2587 183.546 53.808C183.546 50.4587 185.594 48.7307 189.69 48.624C192.08 48.56 193.285 48.528 193.306 48.528L193.274 47.44C193.232 45.968 192.954 44.912 192.442 44.272C191.93 43.6107 191.013 43.28 189.69 43.28C189.136 43.28 188.538 43.408 187.898 43.664L187.13 46.864C187.024 46.8853 186.842 46.896 186.586 46.896L185.274 46.8C184.933 45.8827 184.752 44.6133 184.73 42.992C185.136 42.7787 186.064 42.4587 187.514 42.032C188.965 41.584 189.893 41.36 190.298 41.36C192.474 41.36 194.01 41.84 194.906 42.8C195.802 43.76 196.25 45.3387 196.25 47.536ZM189.274 56.24C189.893 56.24 191.322 55.5467 193.562 54.16L193.402 50.16C191.952 50.288 190.736 50.4053 189.754 50.512C188.773 50.6187 187.984 50.9067 187.386 51.376C186.789 51.824 186.49 52.5387 186.49 53.52C186.49 55.3333 187.418 56.24 189.274 56.24ZM204.956 34.224C205.618 34.224 206.087 34.2453 206.364 34.288C206.364 35.0347 206.226 35.888 205.948 36.848C205.756 49.4347 205.66 55.76 205.66 55.824L208.348 56.08C208.348 56.6773 208.167 57.3173 207.804 58H200.444L200.348 56.88C201.33 56.5387 202.29 56.2827 203.228 56.112L202.908 36.752C201.735 36.688 200.796 36.56 200.092 36.368L200.22 34.704C201.308 34.384 202.887 34.224 204.956 34.224ZM218.202 56.208C219.141 56.208 220.613 55.76 222.618 54.864C223.023 55.4187 223.237 55.9093 223.258 56.336C222.17 56.976 221.103 57.4773 220.058 57.84C219.013 58.2027 218.266 58.384 217.818 58.384C215.343 58.384 213.455 57.648 212.154 56.176C210.853 54.6827 210.202 52.6027 210.202 49.936C210.202 47.2693 210.831 45.1787 212.09 43.664C213.37 42.128 215.279 41.36 217.818 41.36C219.781 41.36 221.274 42.064 222.298 43.472C223.343 44.88 223.866 46.768 223.866 49.136C223.695 49.4347 223.557 49.6373 223.45 49.744L213.146 49.584C213.167 51.7387 213.541 53.3813 214.266 54.512C215.013 55.6427 216.325 56.208 218.202 56.208ZM220.954 47.76C220.954 46.352 220.698 45.264 220.186 44.496C219.674 43.7067 218.821 43.312 217.626 43.312C216.431 43.312 215.365 43.536 214.426 43.984C213.786 45.264 213.381 46.576 213.21 47.92C214.895 47.8987 217.477 47.8453 220.954 47.76ZM236.273 44.048C236.166 43.9413 235.932 43.888 235.569 43.888C235.206 43.888 234.662 44.016 233.937 44.272C233.233 44.528 232.593 44.8267 232.017 45.168C231.889 49.904 231.804 53.456 231.761 55.824L234.449 56.08C234.449 56.6773 234.268 57.3173 233.905 58H226.545L226.449 56.88C227.43 56.5387 228.39 56.2827 229.329 56.112C229.201 50.6933 229.094 46.6827 229.009 44.08C227.836 44.016 226.897 43.888 226.193 43.696L226.321 42.032C227.452 41.712 229.126 41.552 231.345 41.552C231.686 42.0853 231.9 42.768 231.985 43.6C234.438 42.1067 235.9 41.36 236.369 41.36C236.838 41.36 237.382 41.456 238.001 41.648C238.62 41.8187 239.078 42.0107 239.377 42.224C239.377 44.3573 239.174 46.096 238.769 47.44C238.47 47.5253 238.118 47.568 237.713 47.568C237.329 47.568 237.062 47.5573 236.913 47.536L236.273 44.048Z" fill="#888888"/>
<path d="M107.188 119.5H99.6172L99.6641 113.172H107.188C108.75 113.172 110.07 112.797 111.148 112.047C112.242 111.297 113.07 110.18 113.633 108.695C114.211 107.195 114.5 105.352 114.5 103.164V101.688C114.5 100.047 114.336 98.6094 114.008 97.375C113.695 96.125 113.227 95.0859 112.602 94.2578C111.977 93.4141 111.195 92.7812 110.258 92.3594C109.336 91.9375 108.273 91.7266 107.07 91.7266H99.4766V85.375H107.07C109.383 85.375 111.5 85.7734 113.422 86.5703C115.359 87.3516 117.031 88.4766 118.438 89.9453C119.859 91.3984 120.953 93.125 121.719 95.125C122.5 97.1094 122.891 99.3125 122.891 101.734V103.164C122.891 105.57 122.5 107.773 121.719 109.773C120.953 111.773 119.867 113.5 118.461 114.953C117.055 116.406 115.391 117.531 113.469 118.328C111.562 119.109 109.469 119.5 107.188 119.5ZM104.328 85.375V119.5H96.1016V85.375H104.328ZM139.086 119.969C137.023 119.969 135.18 119.648 133.555 119.008C131.93 118.352 130.555 117.453 129.43 116.312C128.32 115.172 127.469 113.859 126.875 112.375C126.297 110.891 126.008 109.32 126.008 107.664V106.773C126.008 104.914 126.266 103.195 126.781 101.617C127.297 100.023 128.062 98.6328 129.078 97.4453C130.094 96.2578 131.367 95.3359 132.898 94.6797C134.43 94.0078 136.211 93.6719 138.242 93.6719C140.039 93.6719 141.648 93.9609 143.07 94.5391C144.492 95.1172 145.695 95.9453 146.68 97.0234C147.68 98.1016 148.438 99.4062 148.953 100.938C149.484 102.469 149.75 104.188 149.75 106.094V109.305H129.031V104.359H142.039V103.75C142.055 102.906 141.906 102.188 141.594 101.594C141.297 101 140.859 100.547 140.281 100.234C139.703 99.9219 139 99.7656 138.172 99.7656C137.312 99.7656 136.602 99.9531 136.039 100.328C135.492 100.703 135.062 101.219 134.75 101.875C134.453 102.516 134.242 103.258 134.117 104.102C133.992 104.945 133.93 105.836 133.93 106.773V107.664C133.93 108.602 134.055 109.453 134.305 110.219C134.57 110.984 134.945 111.641 135.43 112.188C135.93 112.719 136.523 113.133 137.211 113.43C137.914 113.727 138.711 113.875 139.602 113.875C140.68 113.875 141.742 113.672 142.789 113.266C143.836 112.859 144.734 112.188 145.484 111.25L149.07 115.516C148.555 116.25 147.82 116.961 146.867 117.648C145.93 118.336 144.805 118.898 143.492 119.336C142.18 119.758 140.711 119.969 139.086 119.969ZM160.93 99.5078V119.5H153.031V94.1406H160.438L160.93 99.5078ZM159.969 105.953L158.164 106C158.164 104.219 158.375 102.578 158.797 101.078C159.219 99.5781 159.844 98.2734 160.672 97.1641C161.5 96.0547 162.516 95.1953 163.719 94.5859C164.938 93.9766 166.344 93.6719 167.938 93.6719C169.047 93.6719 170.055 93.8438 170.961 94.1875C171.867 94.5156 172.648 95.0391 173.305 95.7578C173.961 96.4609 174.461 97.3828 174.805 98.5234C175.164 99.6484 175.344 101 175.344 102.578V119.5H167.445V103.586C167.445 102.508 167.32 101.695 167.07 101.148C166.836 100.602 166.492 100.234 166.039 100.047C165.586 99.8594 165.031 99.7656 164.375 99.7656C163.688 99.7656 163.07 99.9219 162.523 100.234C161.977 100.547 161.508 100.984 161.117 101.547C160.742 102.094 160.453 102.742 160.25 103.492C160.062 104.242 159.969 105.062 159.969 105.953ZM174.453 105.953L172.25 106C172.25 104.219 172.445 102.578 172.836 101.078C173.242 99.5781 173.844 98.2734 174.641 97.1641C175.453 96.0547 176.461 95.1953 177.664 94.5859C178.867 93.9766 180.266 93.6719 181.859 93.6719C183.016 93.6719 184.078 93.8438 185.047 94.1875C186.016 94.5312 186.852 95.0859 187.555 95.8516C188.258 96.6172 188.805 97.6328 189.195 98.8984C189.586 100.148 189.781 101.695 189.781 103.539V119.5H181.859V103.539C181.859 102.492 181.734 101.703 181.484 101.172C181.25 100.625 180.906 100.258 180.453 100.07C180 99.8672 179.461 99.7656 178.836 99.7656C178.086 99.7656 177.438 99.9219 176.891 100.234C176.344 100.547 175.883 100.984 175.508 101.547C175.148 102.094 174.883 102.742 174.711 103.492C174.539 104.242 174.453 105.062 174.453 105.953ZM193.32 107.078V106.586C193.32 104.727 193.586 103.016 194.117 101.453C194.648 99.875 195.43 98.5078 196.461 97.3516C197.492 96.1953 198.766 95.2969 200.281 94.6562C201.797 94 203.547 93.6719 205.531 93.6719C207.531 93.6719 209.289 94 210.805 94.6562C212.336 95.2969 213.617 96.1953 214.648 97.3516C215.68 98.5078 216.461 99.875 216.992 101.453C217.523 103.016 217.789 104.727 217.789 106.586V107.078C217.789 108.922 217.523 110.633 216.992 112.211C216.461 113.773 215.68 115.141 214.648 116.312C213.617 117.469 212.344 118.367 210.828 119.008C209.312 119.648 207.562 119.969 205.578 119.969C203.594 119.969 201.836 119.648 200.305 119.008C198.773 118.367 197.492 117.469 196.461 116.312C195.43 115.141 194.648 113.773 194.117 112.211C193.586 110.633 193.32 108.922 193.32 107.078ZM201.219 106.586V107.078C201.219 108.031 201.289 108.922 201.43 109.75C201.57 110.578 201.805 111.305 202.133 111.93C202.461 112.539 202.906 113.016 203.469 113.359C204.031 113.703 204.734 113.875 205.578 113.875C206.406 113.875 207.094 113.703 207.641 113.359C208.203 113.016 208.648 112.539 208.977 111.93C209.305 111.305 209.539 110.578 209.68 109.75C209.82 108.922 209.891 108.031 209.891 107.078V106.586C209.891 105.664 209.82 104.797 209.68 103.984C209.539 103.156 209.305 102.43 208.977 101.805C208.648 101.164 208.203 100.664 207.641 100.305C207.078 99.9453 206.375 99.7656 205.531 99.7656C204.703 99.7656 204.008 99.9453 203.445 100.305C202.898 100.664 202.461 101.164 202.133 101.805C201.805 102.43 201.57 103.156 201.43 103.984C201.289 104.797 201.219 105.664 201.219 106.586Z" fill="black"/>
<path d="M1134.5 0.5H1348.5C1356.78 0.5 1363.5 7.21573 1363.5 15.5V148.5C1363.5 156.784 1356.78 163.5 1348.5 163.5H1134.5V0.5Z" fill="#091C25"/>
<path d="M1280.57 48H1217.43L1215 50.4286V113.571L1217.43 116H1280.57L1283 113.571V50.4286L1280.57 48ZM1278.14 111.143H1234.43V101.429H1245.6C1247.06 104.343 1250.46 106.286 1253.86 106.286C1259.2 106.286 1263.57 101.914 1263.57 96.5714C1263.57 91.2286 1259.2 86.8571 1253.86 86.8571C1248.51 86.8571 1244.14 91.2286 1244.14 96.5714H1229.57V111.143H1219.86V52.8571H1229.57V64.0286C1226.66 65.4857 1224.71 68.8857 1224.71 72.2857C1224.71 77.6286 1229.09 82 1234.43 82C1239.77 82 1244.14 77.6286 1244.14 72.2857H1253.86C1253.86 77.6286 1258.23 82 1263.57 82C1268.91 82 1273.29 77.6286 1273.29 72.2857C1273.29 66.9429 1268.91 62.5714 1263.57 62.5714C1260.17 62.5714 1256.77 64.5143 1255.31 67.4286H1242.69C1241.23 64.5143 1237.83 62.5714 1234.43 62.5714V52.8571H1278.14V111.143ZM1249 96.5714C1249 93.6571 1250.94 91.7143 1253.86 91.7143C1256.77 91.7143 1258.71 93.6571 1258.71 96.5714C1258.71 99.4857 1256.77 101.429 1253.86 101.429C1250.94 101.429 1249 99.4857 1249 96.5714ZM1234.43 67.4286C1237.34 67.4286 1239.29 69.3714 1239.29 72.2857C1239.29 75.2 1237.34 77.1429 1234.43 77.1429C1231.51 77.1429 1229.57 75.2 1229.57 72.2857C1229.57 69.3714 1231.51 67.4286 1234.43 67.4286ZM1263.57 67.4286C1266.49 67.4286 1268.43 69.3714 1268.43 72.2857C1268.43 75.2 1266.49 77.1429 1263.57 77.1429C1260.66 77.1429 1258.71 75.2 1258.71 72.2857C1258.71 69.3714 1260.66 67.4286 1263.57 67.4286Z" fill="white"/>
</g>
<defs>
<clipPath id="clip0_1_31">
<rect width="1363" height="163" fill="white" transform="translate(0.5 0.5)"/>
</clipPath>
</defs>
</svg>
