<svg width="1364" height="164" viewBox="0 0 1364 164" fill="none" xmlns="http://www.w3.org/2000/svg">
<g clip-path="url(#clip0_1_19)">
<path d="M0.5 15.5C0.5 7.21573 7.21573 0.5 15.5 0.5H37.5V163.5H15.5C7.21573 163.5 0.5 156.784 0.5 148.5V15.5Z" fill="#091C25"/>
<path d="M109.719 107.922H101.234V101.57H109.719C110.875 101.57 111.812 101.375 112.531 100.984C113.25 100.594 113.773 100.055 114.102 99.3672C114.445 98.6641 114.617 97.875 114.617 97C114.617 96.0625 114.445 95.1953 114.102 94.3984C113.773 93.6016 113.25 92.9609 112.531 92.4766C111.812 91.9766 110.875 91.7266 109.719 91.7266H104.328V119.5H96.1016V85.375H109.719C112.453 85.375 114.805 85.875 116.773 86.875C118.758 87.875 120.281 89.25 121.344 91C122.406 92.7344 122.938 94.7188 122.938 96.9531C122.938 99.1562 122.406 101.078 121.344 102.719C120.281 104.359 118.758 105.641 116.773 106.562C114.805 107.469 112.453 107.922 109.719 107.922ZM134.961 100.422V119.5H127.062V94.1406H134.445L134.961 100.422ZM142.461 93.9531L142.32 101.289C142.008 101.258 141.586 101.219 141.055 101.172C140.523 101.125 140.078 101.102 139.719 101.102C138.797 101.102 138 101.211 137.328 101.43C136.672 101.633 136.125 101.945 135.688 102.367C135.266 102.773 134.953 103.289 134.75 103.914C134.562 104.539 134.477 105.266 134.492 106.094L133.062 105.156C133.062 103.453 133.227 101.906 133.555 100.516C133.898 99.1094 134.383 97.8984 135.008 96.8828C135.633 95.8516 136.391 95.0625 137.281 94.5156C138.172 93.9531 139.172 93.6719 140.281 93.6719C140.672 93.6719 141.055 93.6953 141.43 93.7422C141.82 93.7891 142.164 93.8594 142.461 93.9531ZM143.352 107.078V106.586C143.352 104.727 143.617 103.016 144.148 101.453C144.68 99.875 145.461 98.5078 146.492 97.3516C147.523 96.1953 148.797 95.2969 150.312 94.6562C151.828 94 153.578 93.6719 155.562 93.6719C157.562 93.6719 159.32 94 160.836 94.6562C162.367 95.2969 163.648 96.1953 164.68 97.3516C165.711 98.5078 166.492 99.875 167.023 101.453C167.555 103.016 167.82 104.727 167.82 106.586V107.078C167.82 108.922 167.555 110.633 167.023 112.211C166.492 113.773 165.711 115.141 164.68 116.312C163.648 117.469 162.375 118.367 160.859 119.008C159.344 119.648 157.594 119.969 155.609 119.969C153.625 119.969 151.867 119.648 150.336 119.008C148.805 118.367 147.523 117.469 146.492 116.312C145.461 115.141 144.68 113.773 144.148 112.211C143.617 110.633 143.352 108.922 143.352 107.078ZM151.25 106.586V107.078C151.25 108.031 151.32 108.922 151.461 109.75C151.602 110.578 151.836 111.305 152.164 111.93C152.492 112.539 152.938 113.016 153.5 113.359C154.062 113.703 154.766 113.875 155.609 113.875C156.438 113.875 157.125 113.703 157.672 113.359C158.234 113.016 158.68 112.539 159.008 111.93C159.336 111.305 159.57 110.578 159.711 109.75C159.852 108.922 159.922 108.031 159.922 107.078V106.586C159.922 105.664 159.852 104.797 159.711 103.984C159.57 103.156 159.336 102.43 159.008 101.805C158.68 101.164 158.234 100.664 157.672 100.305C157.109 99.9453 156.406 99.7656 155.562 99.7656C154.734 99.7656 154.039 99.9453 153.477 100.305C152.93 100.664 152.492 101.164 152.164 101.805C151.836 102.43 151.602 103.156 151.461 103.984C151.32 104.797 151.25 105.664 151.25 106.586ZM171.922 94.1406H179.844V120.32C179.844 122.352 179.453 124.062 178.672 125.453C177.891 126.859 176.773 127.922 175.32 128.641C173.867 129.375 172.133 129.742 170.117 129.742C169.445 129.742 168.828 129.711 168.266 129.648C167.688 129.602 167.055 129.5 166.367 129.344V123.367C166.773 123.43 167.148 123.477 167.492 123.508C167.836 123.555 168.211 123.578 168.617 123.578C169.336 123.578 169.938 123.461 170.422 123.227C170.906 122.992 171.273 122.633 171.523 122.148C171.789 121.664 171.922 121.055 171.922 120.32V94.1406ZM171.336 87.6016C171.336 86.4766 171.742 85.5547 172.555 84.8359C173.367 84.1172 174.422 83.7578 175.719 83.7578C177.016 83.7578 178.07 84.1172 178.883 84.8359C179.695 85.5547 180.102 86.4766 180.102 87.6016C180.102 88.7266 179.695 89.6484 178.883 90.3672C178.07 91.0859 177.016 91.4453 175.719 91.4453C174.422 91.4453 173.367 91.0859 172.555 90.3672C171.742 89.6484 171.336 88.7266 171.336 87.6016ZM196.602 119.969C194.539 119.969 192.695 119.648 191.07 119.008C189.445 118.352 188.07 117.453 186.945 116.312C185.836 115.172 184.984 113.859 184.391 112.375C183.812 110.891 183.523 109.32 183.523 107.664V106.773C183.523 104.914 183.781 103.195 184.297 101.617C184.812 100.023 185.578 98.6328 186.594 97.4453C187.609 96.2578 188.883 95.3359 190.414 94.6797C191.945 94.0078 193.727 93.6719 195.758 93.6719C197.555 93.6719 199.164 93.9609 200.586 94.5391C202.008 95.1172 203.211 95.9453 204.195 97.0234C205.195 98.1016 205.953 99.4062 206.469 100.938C207 102.469 207.266 104.188 207.266 106.094V109.305H186.547V104.359H199.555V103.75C199.57 102.906 199.422 102.188 199.109 101.594C198.812 101 198.375 100.547 197.797 100.234C197.219 99.9219 196.516 99.7656 195.688 99.7656C194.828 99.7656 194.117 99.9531 193.555 100.328C193.008 100.703 192.578 101.219 192.266 101.875C191.969 102.516 191.758 103.258 191.633 104.102C191.508 104.945 191.445 105.836 191.445 106.773V107.664C191.445 108.602 191.57 109.453 191.82 110.219C192.086 110.984 192.461 111.641 192.945 112.188C193.445 112.719 194.039 113.133 194.727 113.43C195.43 113.727 196.227 113.875 197.117 113.875C198.195 113.875 199.258 113.672 200.305 113.266C201.352 112.859 202.25 112.188 203 111.25L206.586 115.516C206.07 116.25 205.336 116.961 204.383 117.648C203.445 118.336 202.32 118.898 201.008 119.336C199.695 119.758 198.227 119.969 196.602 119.969ZM221.188 113.875C221.922 113.875 222.547 113.742 223.062 113.477C223.594 113.195 223.992 112.805 224.258 112.305C224.539 111.789 224.672 111.172 224.656 110.453H232.086C232.102 112.359 231.633 114.031 230.68 115.469C229.742 116.891 228.461 118 226.836 118.797C225.227 119.578 223.406 119.969 221.375 119.969C219.391 119.969 217.656 119.648 216.172 119.008C214.688 118.352 213.445 117.445 212.445 116.289C211.461 115.117 210.719 113.75 210.219 112.188C209.734 110.625 209.492 108.93 209.492 107.102V106.562C209.492 104.734 209.734 103.039 210.219 101.477C210.719 99.8984 211.461 98.5312 212.445 97.375C213.445 96.2031 214.68 95.2969 216.148 94.6562C217.633 94 219.359 93.6719 221.328 93.6719C223.438 93.6719 225.297 94.0703 226.906 94.8672C228.531 95.6641 229.805 96.8203 230.727 98.3359C231.648 99.8516 232.102 101.688 232.086 103.844H224.656C224.672 103.078 224.555 102.391 224.305 101.781C224.055 101.172 223.664 100.688 223.133 100.328C222.617 99.9531 221.953 99.7656 221.141 99.7656C220.328 99.7656 219.672 99.9453 219.172 100.305C218.672 100.664 218.289 101.164 218.023 101.805C217.773 102.43 217.602 103.148 217.508 103.961C217.43 104.773 217.391 105.641 217.391 106.562V107.102C217.391 108.039 217.43 108.922 217.508 109.75C217.602 110.562 217.781 111.281 218.047 111.906C218.312 112.516 218.695 113 219.195 113.359C219.695 113.703 220.359 113.875 221.188 113.875ZM248.82 94.1406V99.625H233.539V94.1406H248.82ZM236.75 87.8359H244.648V111.227C244.648 111.898 244.727 112.422 244.883 112.797C245.039 113.156 245.305 113.414 245.68 113.57C246.07 113.711 246.586 113.781 247.227 113.781C247.68 113.781 248.055 113.773 248.352 113.758C248.648 113.727 248.93 113.688 249.195 113.641V119.289C248.523 119.508 247.82 119.672 247.086 119.781C246.352 119.906 245.57 119.969 244.742 119.969C243.055 119.969 241.609 119.703 240.406 119.172C239.219 118.641 238.312 117.805 237.688 116.664C237.062 115.523 236.75 114.039 236.75 112.211V87.8359ZM287.281 98.9219V105.25H269.773V98.9219H287.281ZM272.516 85.375V119.5H264.289V85.375H272.516ZM292.812 85.375V119.5H284.609V85.375H292.812ZM306.008 94.1406V119.5H298.086V94.1406H306.008ZM297.617 87.6016C297.617 86.4766 298.023 85.5547 298.836 84.8359C299.648 84.1172 300.703 83.7578 302 83.7578C303.297 83.7578 304.352 84.1172 305.164 84.8359C305.977 85.5547 306.383 86.4766 306.383 87.6016C306.383 88.7266 305.977 89.6484 305.164 90.3672C304.352 91.0859 303.297 91.4453 302 91.4453C300.703 91.4453 299.648 91.0859 298.836 90.3672C298.023 89.6484 297.617 88.7266 297.617 87.6016ZM326.82 94.1406H333.992V118.516C333.992 120.859 333.453 122.844 332.375 124.469C331.297 126.109 329.789 127.352 327.852 128.195C325.93 129.055 323.68 129.484 321.102 129.484C319.961 129.484 318.797 129.336 317.609 129.039C316.422 128.758 315.312 128.336 314.281 127.773C313.25 127.211 312.383 126.516 311.68 125.688L314.984 121.047C315.625 121.766 316.43 122.375 317.398 122.875C318.367 123.391 319.508 123.648 320.82 123.648C321.961 123.648 322.914 123.445 323.68 123.039C324.461 122.633 325.055 122.039 325.461 121.258C325.867 120.492 326.07 119.562 326.07 118.469V100.141L326.82 94.1406ZM309.969 107.125V106.633C309.969 104.711 310.203 102.961 310.672 101.383C311.156 99.7891 311.844 98.4219 312.734 97.2812C313.641 96.125 314.734 95.2344 316.016 94.6094C317.297 93.9844 318.742 93.6719 320.352 93.6719C322.086 93.6719 323.508 94.0078 324.617 94.6797C325.742 95.3359 326.641 96.2578 327.312 97.4453C328 98.6328 328.531 100.023 328.906 101.617C329.297 103.195 329.625 104.898 329.891 106.727V107.312C329.625 109.031 329.258 110.656 328.789 112.188C328.336 113.703 327.742 115.047 327.008 116.219C326.273 117.391 325.352 118.312 324.242 118.984C323.148 119.641 321.836 119.969 320.305 119.969C318.711 119.969 317.273 119.648 315.992 119.008C314.727 118.367 313.641 117.469 312.734 116.312C311.844 115.156 311.156 113.797 310.672 112.234C310.203 110.672 309.969 108.969 309.969 107.125ZM317.867 106.633V107.125C317.867 108.078 317.953 108.961 318.125 109.773C318.312 110.586 318.594 111.305 318.969 111.93C319.344 112.539 319.805 113.016 320.352 113.359C320.914 113.703 321.57 113.875 322.32 113.875C323.461 113.875 324.383 113.633 325.086 113.148C325.789 112.664 326.297 111.977 326.609 111.086C326.922 110.195 327.055 109.148 327.008 107.945V106.094C327.039 105.062 326.969 104.156 326.797 103.375C326.625 102.578 326.352 101.914 325.977 101.383C325.617 100.852 325.133 100.453 324.523 100.188C323.93 99.9062 323.211 99.7656 322.367 99.7656C321.633 99.7656 320.984 99.9375 320.422 100.281C319.859 100.625 319.391 101.109 319.016 101.734C318.641 102.344 318.352 103.07 318.148 103.914C317.961 104.742 317.867 105.648 317.867 106.633ZM346.273 83.5V119.5H338.375V83.5H346.273ZM345.336 105.953L343.484 106C343.484 104.219 343.703 102.578 344.141 101.078C344.578 99.5781 345.203 98.2734 346.016 97.1641C346.828 96.0547 347.805 95.1953 348.945 94.5859C350.086 93.9766 351.352 93.6719 352.742 93.6719C353.992 93.6719 355.133 93.8516 356.164 94.2109C357.211 94.5703 358.109 95.1484 358.859 95.9453C359.625 96.7422 360.211 97.7812 360.617 99.0625C361.039 100.344 361.25 101.906 361.25 103.75V119.5H353.305V103.703C353.305 102.672 353.156 101.875 352.859 101.312C352.578 100.734 352.172 100.336 351.641 100.117C351.109 99.8828 350.461 99.7656 349.695 99.7656C348.773 99.7656 348.023 99.9219 347.445 100.234C346.867 100.547 346.422 100.984 346.109 101.547C345.812 102.094 345.609 102.742 345.5 103.492C345.391 104.242 345.336 105.062 345.336 105.953ZM373.977 83.5V119.5H366.055V83.5H373.977ZM387.195 94.1406V119.5H379.273V94.1406H387.195ZM378.805 87.6016C378.805 86.4766 379.211 85.5547 380.023 84.8359C380.836 84.1172 381.891 83.7578 383.188 83.7578C384.484 83.7578 385.539 84.1172 386.352 84.8359C387.164 85.5547 387.57 86.4766 387.57 87.6016C387.57 88.7266 387.164 89.6484 386.352 90.3672C385.539 91.0859 384.484 91.4453 383.188 91.4453C381.891 91.4453 380.836 91.0859 380.023 90.3672C379.211 89.6484 378.805 88.7266 378.805 87.6016ZM408.008 94.1406H415.18V118.516C415.18 120.859 414.641 122.844 413.562 124.469C412.484 126.109 410.977 127.352 409.039 128.195C407.117 129.055 404.867 129.484 402.289 129.484C401.148 129.484 399.984 129.336 398.797 129.039C397.609 128.758 396.5 128.336 395.469 127.773C394.438 127.211 393.57 126.516 392.867 125.688L396.172 121.047C396.812 121.766 397.617 122.375 398.586 122.875C399.555 123.391 400.695 123.648 402.008 123.648C403.148 123.648 404.102 123.445 404.867 123.039C405.648 122.633 406.242 122.039 406.648 121.258C407.055 120.492 407.258 119.562 407.258 118.469V100.141L408.008 94.1406ZM391.156 107.125V106.633C391.156 104.711 391.391 102.961 391.859 101.383C392.344 99.7891 393.031 98.4219 393.922 97.2812C394.828 96.125 395.922 95.2344 397.203 94.6094C398.484 93.9844 399.93 93.6719 401.539 93.6719C403.273 93.6719 404.695 94.0078 405.805 94.6797C406.93 95.3359 407.828 96.2578 408.5 97.4453C409.188 98.6328 409.719 100.023 410.094 101.617C410.484 103.195 410.812 104.898 411.078 106.727V107.312C410.812 109.031 410.445 110.656 409.977 112.188C409.523 113.703 408.93 115.047 408.195 116.219C407.461 117.391 406.539 118.312 405.43 118.984C404.336 119.641 403.023 119.969 401.492 119.969C399.898 119.969 398.461 119.648 397.18 119.008C395.914 118.367 394.828 117.469 393.922 116.312C393.031 115.156 392.344 113.797 391.859 112.234C391.391 110.672 391.156 108.969 391.156 107.125ZM399.055 106.633V107.125C399.055 108.078 399.141 108.961 399.312 109.773C399.5 110.586 399.781 111.305 400.156 111.93C400.531 112.539 400.992 113.016 401.539 113.359C402.102 113.703 402.758 113.875 403.508 113.875C404.648 113.875 405.57 113.633 406.273 113.148C406.977 112.664 407.484 111.977 407.797 111.086C408.109 110.195 408.242 109.148 408.195 107.945V106.094C408.227 105.062 408.156 104.156 407.984 103.375C407.812 102.578 407.539 101.914 407.164 101.383C406.805 100.852 406.32 100.453 405.711 100.188C405.117 99.9062 404.398 99.7656 403.555 99.7656C402.82 99.7656 402.172 99.9375 401.609 100.281C401.047 100.625 400.578 101.109 400.203 101.734C399.828 102.344 399.539 103.07 399.336 103.914C399.148 104.742 399.055 105.648 399.055 106.633ZM427.461 83.5V119.5H419.562V83.5H427.461ZM426.523 105.953L424.672 106C424.672 104.219 424.891 102.578 425.328 101.078C425.766 99.5781 426.391 98.2734 427.203 97.1641C428.016 96.0547 428.992 95.1953 430.133 94.5859C431.273 93.9766 432.539 93.6719 433.93 93.6719C435.18 93.6719 436.32 93.8516 437.352 94.2109C438.398 94.5703 439.297 95.1484 440.047 95.9453C440.812 96.7422 441.398 97.7812 441.805 99.0625C442.227 100.344 442.438 101.906 442.438 103.75V119.5H434.492V103.703C434.492 102.672 434.344 101.875 434.047 101.312C433.766 100.734 433.359 100.336 432.828 100.117C432.297 99.8828 431.648 99.7656 430.883 99.7656C429.961 99.7656 429.211 99.9219 428.633 100.234C428.055 100.547 427.609 100.984 427.297 101.547C427 102.094 426.797 102.742 426.688 103.492C426.578 104.242 426.523 105.062 426.523 105.953ZM460.18 94.1406V99.625H444.898V94.1406H460.18ZM448.109 87.8359H456.008V111.227C456.008 111.898 456.086 112.422 456.242 112.797C456.398 113.156 456.664 113.414 457.039 113.57C457.43 113.711 457.945 113.781 458.586 113.781C459.039 113.781 459.414 113.773 459.711 113.758C460.008 113.727 460.289 113.688 460.555 113.641V119.289C459.883 119.508 459.18 119.672 458.445 119.781C457.711 119.906 456.93 119.969 456.102 119.969C454.414 119.969 452.969 119.703 451.766 119.172C450.578 118.641 449.672 117.805 449.047 116.664C448.422 115.523 448.109 114.039 448.109 112.211V87.8359ZM476.609 112.375C476.609 111.938 476.461 111.562 476.164 111.25C475.883 110.922 475.383 110.625 474.664 110.359C473.945 110.078 472.938 109.797 471.641 109.516C470.406 109.25 469.242 108.898 468.148 108.461C467.07 108.023 466.125 107.492 465.312 106.867C464.5 106.242 463.859 105.5 463.391 104.641C462.938 103.781 462.711 102.797 462.711 101.688C462.711 100.609 462.938 99.5938 463.391 98.6406C463.859 97.6719 464.539 96.8203 465.43 96.0859C466.336 95.3359 467.438 94.75 468.734 94.3281C470.031 93.8906 471.508 93.6719 473.164 93.6719C475.445 93.6719 477.414 94.0234 479.07 94.7266C480.727 95.4141 482 96.3828 482.891 97.6328C483.797 98.8672 484.25 100.297 484.25 101.922H476.352C476.352 101.281 476.242 100.734 476.023 100.281C475.82 99.8281 475.484 99.4844 475.016 99.25C474.547 99 473.922 98.875 473.141 98.875C472.594 98.875 472.094 98.9766 471.641 99.1797C471.203 99.3828 470.852 99.6641 470.586 100.023C470.32 100.383 470.188 100.805 470.188 101.289C470.188 101.633 470.266 101.945 470.422 102.227C470.594 102.492 470.852 102.742 471.195 102.977C471.539 103.195 471.977 103.398 472.508 103.586C473.039 103.758 473.68 103.914 474.43 104.055C476.133 104.367 477.727 104.812 479.211 105.391C480.695 105.969 481.898 106.789 482.82 107.852C483.758 108.914 484.227 110.344 484.227 112.141C484.227 113.266 483.969 114.305 483.453 115.258C482.938 116.195 482.195 117.023 481.227 117.742C480.258 118.445 479.094 118.992 477.734 119.383C476.375 119.773 474.844 119.969 473.141 119.969C470.719 119.969 468.672 119.539 467 118.68C465.328 117.805 464.062 116.711 463.203 115.398C462.359 114.07 461.938 112.727 461.938 111.367H469.297C469.328 112.148 469.516 112.789 469.859 113.289C470.219 113.789 470.695 114.156 471.289 114.391C471.883 114.625 472.57 114.742 473.352 114.742C474.07 114.742 474.664 114.641 475.133 114.438C475.617 114.234 475.984 113.961 476.234 113.617C476.484 113.258 476.609 112.844 476.609 112.375Z" fill="black"/>
<path d="M1134.5 0.5H1348.5C1356.78 0.5 1363.5 7.21573 1363.5 15.5V148.5C1363.5 156.784 1356.78 163.5 1348.5 163.5H1134.5V0.5Z" fill="#091C25"/>
<path d="M1258.28 111.295L1258.67 117.533C1258.7 118.05 1258.32 118.505 1257.8 118.582C1255.91 118.859 1253.98 119 1252.06 119C1250.15 119 1248.22 118.859 1246.33 118.582C1245.8 118.505 1245.43 118.05 1245.46 117.533L1245.79 112.177C1241.76 111.391 1237.98 109.871 1234.55 107.648L1230.89 111.663C1230.54 112.05 1229.94 112.112 1229.51 111.805C1226.41 109.588 1223.69 106.936 1221.4 103.923C1221.09 103.506 1221.15 102.925 1221.55 102.581L1225.68 99.0235C1223.39 95.6861 1221.83 92.0191 1221.02 88.0987L1215.51 88.421C1214.98 88.4525 1214.51 88.0844 1214.43 87.5723C1214.14 85.7408 1214 83.8658 1214 81.9989C1214 80.1323 1214.14 78.2573 1214.43 76.4255C1214.51 75.9134 1214.98 75.537 1215.51 75.5768L1221.02 75.8991C1221.83 71.98 1223.39 68.3127 1225.68 64.9753L1221.55 61.4166C1221.15 61.0732 1221.09 60.4915 1221.4 60.0751C1223.68 57.065 1226.41 54.4132 1229.51 52.1928C1229.94 51.8858 1230.54 51.948 1230.89 52.3344L1234.55 56.3498C1238.01 54.119 1241.92 52.5541 1245.98 51.7839L1245.54 46.4743C1245.5 45.9495 1245.88 45.4818 1246.42 45.4043C1250.14 44.8652 1253.99 44.8652 1257.71 45.4043C1258.25 45.4818 1258.63 45.9496 1258.59 46.4743L1258.07 52.6893C1258.02 53.2401 1257.52 53.6503 1256.96 53.605C1256.39 53.5601 1255.97 53.0776 1256.02 52.5273L1256.46 47.2572C1253.55 46.9128 1250.58 46.9128 1247.67 47.2572L1248.11 52.5268C1248.16 53.046 1247.78 53.5109 1247.25 53.5949C1242.86 54.2915 1238.62 55.9843 1234.98 58.4899C1234.55 58.7849 1233.96 58.7181 1233.61 58.3373L1229.98 54.3537C1227.6 56.1511 1225.47 58.2247 1223.62 60.534L1227.72 64.065C1228.11 64.4035 1228.18 64.9749 1227.88 65.3912C1225.31 68.9236 1223.62 72.8693 1222.88 77.1188C1222.79 77.6218 1222.32 77.9795 1221.8 77.9485L1216.34 77.6288C1216.15 79.0723 1216.06 80.5384 1216.06 81.999C1216.06 83.4599 1216.15 84.9259 1216.34 86.3692L1221.8 86.0495C1222.32 86.0157 1222.79 86.3767 1222.88 86.8793C1223.62 91.1301 1225.31 95.0761 1227.88 98.6078C1228.18 99.0242 1228.11 99.5954 1227.72 99.934L1223.62 103.464C1225.47 105.776 1227.61 107.849 1229.98 109.644L1233.61 105.661C1233.96 105.279 1234.55 105.213 1234.98 105.508C1238.61 108.008 1242.67 109.643 1247.04 110.369C1247.56 110.455 1247.93 110.906 1247.9 111.415L1247.57 116.729C1250.54 117.089 1253.59 117.089 1256.56 116.729L1256.23 111.415C1256.2 110.863 1256.63 110.39 1257.2 110.357C1257.76 110.327 1258.25 110.744 1258.28 111.295ZM1280.37 68.0195C1282.02 68.0195 1283.36 69.3234 1283.36 70.9259C1283.36 72.5285 1282.02 73.8323 1280.37 73.8323C1279.99 73.8323 1279.63 73.7564 1279.3 73.631L1276.5 76.447C1276.3 76.642 1276.04 76.7524 1275.76 76.7524H1261.47C1260.9 76.7524 1260.44 76.3048 1260.44 75.7524C1260.44 75.2 1260.9 74.7524 1261.47 74.7524H1275.32L1277.75 72.3052C1277.52 71.8928 1277.38 71.4277 1277.38 70.9261C1277.38 69.3232 1278.72 68.0195 1280.37 68.0195ZM1279.43 70.9259C1279.43 71.4256 1279.85 71.8321 1280.37 71.8321C1280.88 71.8321 1281.3 71.4256 1281.3 70.9259C1281.3 70.4263 1280.88 70.0197 1280.37 70.0197C1279.85 70.0196 1279.43 70.4261 1279.43 70.9259ZM1269.2 65.3892L1273.01 60.0583C1272.62 59.5691 1272.39 58.9651 1272.39 58.3029C1272.39 56.7003 1273.73 55.3965 1275.37 55.3965C1277.02 55.3965 1278.36 56.7003 1278.36 58.3029C1278.36 59.9054 1277.02 61.2092 1275.37 61.2092C1275.16 61.2092 1274.95 61.1835 1274.74 61.1403L1270.58 66.9604C1270.39 67.229 1270.07 67.3895 1269.73 67.3895H1258.42C1257.85 67.3895 1257.39 66.9419 1257.39 66.3895C1257.39 65.8371 1257.85 65.3895 1258.42 65.3895L1269.2 65.3892ZM1274.44 58.3029C1274.44 58.8025 1274.86 59.2091 1275.37 59.2091C1275.89 59.2091 1276.31 58.8025 1276.31 58.3029C1276.31 57.8032 1275.89 57.3967 1275.37 57.3967C1274.86 57.3965 1274.44 57.8031 1274.44 58.3029ZM1278.12 105.696C1278.12 107.298 1276.78 108.602 1275.13 108.602C1273.48 108.602 1272.14 107.298 1272.14 105.696C1272.14 104.912 1272.46 104.203 1272.98 103.679L1269.19 98.3852H1258.42C1257.85 98.3852 1257.39 97.9376 1257.39 97.3852C1257.39 96.8328 1257.85 96.3852 1258.42 96.3852H1269.73C1270.07 96.3852 1270.39 96.5456 1270.58 96.8143L1274.87 102.815C1274.96 102.807 1275.04 102.789 1275.13 102.789C1276.78 102.789 1278.12 104.093 1278.12 105.696ZM1276.06 105.696C1276.06 105.196 1275.64 104.789 1275.13 104.789C1274.61 104.789 1274.19 105.196 1274.19 105.696C1274.19 106.195 1274.61 106.602 1275.13 106.602C1275.64 106.602 1276.06 106.195 1276.06 105.696ZM1283.11 93.3506C1283.11 94.9532 1281.77 96.257 1280.12 96.257C1278.47 96.257 1277.13 94.9532 1277.13 93.3506C1277.13 92.7267 1277.34 92.1518 1277.68 91.6777L1275.32 89.3004H1261.47C1260.9 89.3004 1260.44 88.8528 1260.44 88.3004C1260.44 87.748 1260.9 87.3004 1261.47 87.3004H1275.76C1276.04 87.3004 1276.3 87.4109 1276.5 87.6058L1279.41 90.5363C1279.64 90.4817 1279.87 90.4444 1280.12 90.4444C1281.77 90.4443 1283.11 91.7479 1283.11 93.3506ZM1281.05 93.3506C1281.05 92.851 1280.63 92.4444 1280.12 92.4444C1279.61 92.4444 1279.19 92.851 1279.19 93.3506C1279.19 93.8503 1279.61 94.2569 1280.12 94.2569C1280.63 94.2569 1281.05 93.8503 1281.05 93.3506ZM1284 82.0261C1284 83.6286 1282.66 84.9324 1281.01 84.9324C1279.72 84.9324 1278.64 84.1352 1278.21 83.0258H1255.66V100.704C1255.66 104.326 1252.63 107.273 1248.91 107.273C1246.18 107.273 1243.77 105.718 1242.71 103.335C1242.67 103.336 1242.63 103.337 1242.58 103.337C1238.86 103.337 1235.83 100.39 1235.83 96.7674C1235.83 96.5939 1235.83 96.4203 1235.85 96.2475C1234.24 95.9353 1232.72 95.1326 1231.48 93.9249C1229.89 92.3756 1229.01 90.3161 1229.01 88.1253C1229.01 85.9345 1229.89 83.8749 1231.48 82.326C1231.6 82.2098 1231.73 82.1079 1231.86 81.9992C1231.73 81.8903 1231.6 81.7884 1231.48 81.6724C1229.89 80.1232 1229.01 78.0636 1229.01 75.8731C1229.01 73.6823 1229.89 71.6227 1231.48 70.0735C1232.72 68.8658 1234.24 68.063 1235.85 67.7509C1235.83 67.578 1235.83 67.4046 1235.83 67.231C1235.83 63.6085 1238.86 60.6615 1242.58 60.6615C1242.63 60.6615 1242.67 60.6618 1242.71 60.6628C1243.77 58.2799 1246.18 56.7252 1248.91 56.7252C1252.63 56.7252 1255.66 59.6721 1255.66 63.2944V81.0259H1278.21C1278.64 79.9168 1279.72 79.12 1281.01 79.12C1282.66 79.1198 1284 80.4235 1284 82.0261ZM1232.94 80.2581C1233.22 80.5356 1233.55 80.7792 1233.89 80.999H1253.61V63.2941C1253.61 60.7745 1251.5 58.725 1248.91 58.725C1247.18 58.725 1245.64 59.6203 1244.82 61.0297C1245.65 61.313 1246.42 61.7544 1247.09 62.3364C1247.1 62.3432 1247.1 62.3529 1247.11 62.3598C1247.49 62.1858 1247.92 62.0815 1248.37 62.0815C1250.01 62.0815 1251.36 63.3853 1251.36 64.9874C1251.36 66.59 1250.01 67.8938 1248.37 67.8938C1246.72 67.8938 1245.38 66.59 1245.38 64.9874C1245.38 64.5541 1245.48 64.1465 1245.66 63.7768C1244.8 63.0582 1243.72 62.6612 1242.58 62.6612C1239.99 62.6612 1237.88 64.7111 1237.88 67.2307C1237.88 67.3749 1237.9 67.5183 1237.91 67.6615C1239.13 67.784 1240.3 68.1579 1241.35 68.77C1241.81 68.4875 1242.35 68.3176 1242.93 68.3176C1244.58 68.3176 1245.92 69.6214 1245.92 71.2239C1245.92 72.8262 1244.58 74.1299 1242.93 74.1299C1241.28 74.1299 1239.94 72.8261 1239.94 71.2239C1239.94 70.93 1240 70.6516 1240.08 70.3839C1239.16 69.888 1238.13 69.6172 1237.05 69.6139C1235.56 69.6935 1234.1 70.357 1232.94 71.4873C1231.73 72.6588 1231.07 74.2162 1231.07 75.8728C1231.07 77.5293 1231.73 79.0866 1232.94 80.2581ZM1242 71.2241C1242 71.7237 1242.42 72.13 1242.93 72.13C1243.45 72.13 1243.86 71.7237 1243.86 71.2241C1243.86 70.7244 1243.45 70.3179 1242.93 70.3179C1242.42 70.3177 1242 70.7243 1242 71.2241ZM1248.37 65.8938C1248.88 65.8938 1249.3 65.4872 1249.3 64.9876C1249.3 64.4879 1248.88 64.0816 1248.37 64.0816C1247.85 64.0816 1247.43 64.4879 1247.43 64.9876C1247.43 65.4872 1247.85 65.8938 1248.37 65.8938ZM1253.61 100.704V82.999H1233.87C1233.53 83.2166 1233.22 83.4651 1232.94 83.7399C1231.73 84.9112 1231.07 86.4685 1231.07 88.1251C1231.07 89.7817 1231.73 91.3391 1232.94 92.5106C1234.1 93.6409 1235.56 94.3044 1237.05 94.384C1238.11 94.3807 1239.13 94.12 1240.04 93.6388C1239.98 93.4112 1239.94 93.1768 1239.94 92.9315C1239.94 91.3289 1241.28 90.0251 1242.93 90.0251C1244.58 90.0251 1245.92 91.3289 1245.92 92.9315C1245.92 94.5341 1244.58 95.8379 1242.93 95.8379C1242.29 95.8379 1241.7 95.6364 1241.21 95.3008C1240.2 95.8682 1239.08 96.2192 1237.91 96.3365C1237.9 96.4797 1237.88 96.6231 1237.88 96.7674C1237.88 99.287 1239.99 101.336 1242.58 101.336C1243.69 101.336 1244.76 100.955 1245.6 100.265C1245.46 99.9261 1245.38 99.5564 1245.38 99.1677C1245.38 97.5652 1246.72 96.2614 1248.37 96.2614C1250.01 96.2614 1251.36 97.5652 1251.36 99.1677C1251.36 100.77 1250.01 102.074 1248.37 102.074C1247.87 102.074 1247.41 101.945 1247 101.736C1246.35 102.279 1245.61 102.698 1244.82 102.968C1245.64 104.378 1247.18 105.273 1248.91 105.273C1251.5 105.273 1253.61 103.224 1253.61 100.704ZM1248.37 100.074C1248.88 100.074 1249.3 99.6675 1249.3 99.1679C1249.3 98.6682 1248.88 98.2617 1248.37 98.2617C1247.85 98.2617 1247.43 98.6682 1247.43 99.1679C1247.43 99.6675 1247.85 100.074 1248.37 100.074ZM1242.93 93.8379C1243.45 93.8379 1243.86 93.4313 1243.86 92.9316C1243.86 92.432 1243.45 92.0254 1242.93 92.0254C1242.42 92.0254 1242 92.432 1242 92.9316C1242 93.0993 1242.05 93.2544 1242.13 93.3892C1242.15 93.4087 1242.17 93.4252 1242.18 93.4463C1242.2 93.4687 1242.21 93.4933 1242.23 93.5166C1242.4 93.7114 1242.65 93.8379 1242.93 93.8379ZM1281.94 82.0261C1281.94 81.5264 1281.52 81.1198 1281.01 81.1198C1280.5 81.1198 1280.08 81.5264 1280.08 82.0261C1280.08 82.5257 1280.5 82.9323 1281.01 82.9323C1281.52 82.9323 1281.94 82.5257 1281.94 82.0261Z" fill="white"/>
<mask id="mask0_1_19" style="mask-type:luminance" maskUnits="userSpaceOnUse" x="1213" y="44" width="72" height="76">
<path d="M1285 44H1213V120H1285V44Z" fill="white"/>
<path d="M1258.28 111.295L1258.67 117.533C1258.7 118.05 1258.32 118.505 1257.8 118.582C1255.91 118.859 1253.98 119 1252.06 119C1250.15 119 1248.22 118.859 1246.33 118.582C1245.8 118.505 1245.43 118.05 1245.46 117.533L1245.79 112.177C1241.76 111.391 1237.98 109.871 1234.55 107.648L1230.89 111.663C1230.54 112.05 1229.94 112.112 1229.51 111.805C1226.41 109.588 1223.69 106.936 1221.4 103.923C1221.09 103.506 1221.15 102.925 1221.55 102.581L1225.68 99.0235C1223.39 95.6861 1221.83 92.0191 1221.02 88.0987L1215.51 88.421C1214.98 88.4525 1214.51 88.0844 1214.43 87.5723C1214.14 85.7408 1214 83.8658 1214 81.9989C1214 80.1323 1214.14 78.2573 1214.43 76.4255C1214.51 75.9134 1214.98 75.537 1215.51 75.5768L1221.02 75.8991C1221.83 71.98 1223.39 68.3127 1225.68 64.9753L1221.55 61.4166C1221.15 61.0732 1221.09 60.4915 1221.4 60.0751C1223.68 57.065 1226.41 54.4132 1229.51 52.1928C1229.94 51.8858 1230.54 51.948 1230.89 52.3344L1234.55 56.3498C1238.01 54.119 1241.92 52.5541 1245.98 51.7839L1245.54 46.4743C1245.5 45.9495 1245.88 45.4818 1246.42 45.4043C1250.14 44.8652 1253.99 44.8652 1257.71 45.4043C1258.25 45.4818 1258.63 45.9496 1258.59 46.4743L1258.07 52.6893C1258.02 53.2401 1257.52 53.6503 1256.96 53.605C1256.39 53.5601 1255.97 53.0776 1256.02 52.5273L1256.46 47.2572C1253.55 46.9128 1250.58 46.9128 1247.67 47.2572L1248.11 52.5268C1248.16 53.046 1247.78 53.5109 1247.25 53.5949C1242.86 54.2915 1238.62 55.9843 1234.98 58.4899C1234.55 58.7849 1233.96 58.7181 1233.61 58.3373L1229.98 54.3537C1227.6 56.1511 1225.47 58.2247 1223.62 60.534L1227.72 64.065C1228.11 64.4035 1228.18 64.9749 1227.88 65.3912C1225.31 68.9236 1223.62 72.8693 1222.88 77.1188C1222.79 77.6218 1222.32 77.9795 1221.8 77.9485L1216.34 77.6288C1216.15 79.0723 1216.06 80.5384 1216.06 81.999C1216.06 83.4599 1216.15 84.9259 1216.34 86.3692L1221.8 86.0495C1222.32 86.0157 1222.79 86.3767 1222.88 86.8793C1223.62 91.1301 1225.31 95.0761 1227.88 98.6078C1228.18 99.0242 1228.11 99.5954 1227.72 99.934L1223.62 103.464C1225.47 105.776 1227.61 107.849 1229.98 109.644L1233.61 105.661C1233.96 105.279 1234.55 105.213 1234.98 105.508C1238.61 108.008 1242.67 109.643 1247.04 110.369C1247.56 110.455 1247.93 110.906 1247.9 111.415L1247.57 116.729C1250.54 117.089 1253.59 117.089 1256.56 116.729L1256.23 111.415C1256.2 110.863 1256.63 110.39 1257.2 110.357C1257.76 110.327 1258.25 110.744 1258.28 111.295ZM1280.37 68.0195C1282.02 68.0195 1283.36 69.3234 1283.36 70.9259C1283.36 72.5285 1282.02 73.8323 1280.37 73.8323C1279.99 73.8323 1279.63 73.7564 1279.3 73.631L1276.5 76.447C1276.3 76.642 1276.04 76.7524 1275.76 76.7524H1261.47C1260.9 76.7524 1260.44 76.3048 1260.44 75.7524C1260.44 75.2 1260.9 74.7524 1261.47 74.7524H1275.32L1277.75 72.3052C1277.52 71.8928 1277.38 71.4277 1277.38 70.9261C1277.38 69.3232 1278.72 68.0195 1280.37 68.0195ZM1279.43 70.9259C1279.43 71.4256 1279.85 71.8321 1280.37 71.8321C1280.88 71.8321 1281.3 71.4256 1281.3 70.9259C1281.3 70.4263 1280.88 70.0197 1280.37 70.0197C1279.85 70.0196 1279.43 70.4261 1279.43 70.9259ZM1269.2 65.3892L1273.01 60.0583C1272.62 59.5691 1272.39 58.9651 1272.39 58.3029C1272.39 56.7003 1273.73 55.3965 1275.37 55.3965C1277.02 55.3965 1278.36 56.7003 1278.36 58.3029C1278.36 59.9054 1277.02 61.2092 1275.37 61.2092C1275.16 61.2092 1274.95 61.1835 1274.74 61.1403L1270.58 66.9604C1270.39 67.229 1270.07 67.3895 1269.73 67.3895H1258.42C1257.85 67.3895 1257.39 66.9419 1257.39 66.3895C1257.39 65.8371 1257.85 65.3895 1258.42 65.3895L1269.2 65.3892ZM1274.44 58.3029C1274.44 58.8025 1274.86 59.2091 1275.37 59.2091C1275.89 59.2091 1276.31 58.8025 1276.31 58.3029C1276.31 57.8032 1275.89 57.3967 1275.37 57.3967C1274.86 57.3965 1274.44 57.8031 1274.44 58.3029ZM1278.12 105.696C1278.12 107.298 1276.78 108.602 1275.13 108.602C1273.48 108.602 1272.14 107.298 1272.14 105.696C1272.14 104.912 1272.46 104.203 1272.98 103.679L1269.19 98.3852H1258.42C1257.85 98.3852 1257.39 97.9376 1257.39 97.3852C1257.39 96.8328 1257.85 96.3852 1258.42 96.3852H1269.73C1270.07 96.3852 1270.39 96.5456 1270.58 96.8143L1274.87 102.815C1274.96 102.807 1275.04 102.789 1275.13 102.789C1276.78 102.789 1278.12 104.093 1278.12 105.696ZM1276.06 105.696C1276.06 105.196 1275.64 104.789 1275.13 104.789C1274.61 104.789 1274.19 105.196 1274.19 105.696C1274.19 106.195 1274.61 106.602 1275.13 106.602C1275.64 106.602 1276.06 106.195 1276.06 105.696ZM1283.11 93.3506C1283.11 94.9532 1281.77 96.257 1280.12 96.257C1278.47 96.257 1277.13 94.9532 1277.13 93.3506C1277.13 92.7267 1277.34 92.1518 1277.68 91.6777L1275.32 89.3004H1261.47C1260.9 89.3004 1260.44 88.8528 1260.44 88.3004C1260.44 87.748 1260.9 87.3004 1261.47 87.3004H1275.76C1276.04 87.3004 1276.3 87.4109 1276.5 87.6058L1279.41 90.5363C1279.64 90.4817 1279.87 90.4444 1280.12 90.4444C1281.77 90.4443 1283.11 91.7479 1283.11 93.3506ZM1281.05 93.3506C1281.05 92.851 1280.63 92.4444 1280.12 92.4444C1279.61 92.4444 1279.19 92.851 1279.19 93.3506C1279.19 93.8503 1279.61 94.2569 1280.12 94.2569C1280.63 94.2569 1281.05 93.8503 1281.05 93.3506ZM1284 82.0261C1284 83.6286 1282.66 84.9324 1281.01 84.9324C1279.72 84.9324 1278.64 84.1352 1278.21 83.0258H1255.66V100.704C1255.66 104.326 1252.63 107.273 1248.91 107.273C1246.18 107.273 1243.77 105.718 1242.71 103.335C1242.67 103.336 1242.63 103.337 1242.58 103.337C1238.86 103.337 1235.83 100.39 1235.83 96.7674C1235.83 96.5939 1235.83 96.4203 1235.85 96.2475C1234.24 95.9353 1232.72 95.1326 1231.48 93.9249C1229.89 92.3756 1229.01 90.3161 1229.01 88.1253C1229.01 85.9345 1229.89 83.8749 1231.48 82.326C1231.6 82.2098 1231.73 82.1079 1231.86 81.9992C1231.73 81.8903 1231.6 81.7884 1231.48 81.6724C1229.89 80.1232 1229.01 78.0636 1229.01 75.8731C1229.01 73.6823 1229.89 71.6227 1231.48 70.0735C1232.72 68.8658 1234.24 68.063 1235.85 67.7509C1235.83 67.578 1235.83 67.4046 1235.83 67.231C1235.83 63.6085 1238.86 60.6615 1242.58 60.6615C1242.63 60.6615 1242.67 60.6618 1242.71 60.6628C1243.77 58.2799 1246.18 56.7252 1248.91 56.7252C1252.63 56.7252 1255.66 59.6721 1255.66 63.2944V81.0259H1278.21C1278.64 79.9168 1279.72 79.12 1281.01 79.12C1282.66 79.1198 1284 80.4235 1284 82.0261ZM1232.94 80.2581C1233.22 80.5356 1233.55 80.7792 1233.89 80.999H1253.61V63.2941C1253.61 60.7745 1251.5 58.725 1248.91 58.725C1247.18 58.725 1245.64 59.6203 1244.82 61.0297C1245.65 61.313 1246.42 61.7544 1247.09 62.3364C1247.1 62.3432 1247.1 62.3529 1247.11 62.3598C1247.49 62.1858 1247.92 62.0815 1248.37 62.0815C1250.01 62.0815 1251.36 63.3853 1251.36 64.9874C1251.36 66.59 1250.01 67.8938 1248.37 67.8938C1246.72 67.8938 1245.38 66.59 1245.38 64.9874C1245.38 64.5541 1245.48 64.1465 1245.66 63.7768C1244.8 63.0582 1243.72 62.6612 1242.58 62.6612C1239.99 62.6612 1237.88 64.7111 1237.88 67.2307C1237.88 67.3749 1237.9 67.5183 1237.91 67.6615C1239.13 67.784 1240.3 68.1579 1241.35 68.77C1241.81 68.4875 1242.35 68.3176 1242.93 68.3176C1244.58 68.3176 1245.92 69.6214 1245.92 71.2239C1245.92 72.8262 1244.58 74.1299 1242.93 74.1299C1241.28 74.1299 1239.94 72.8261 1239.94 71.2239C1239.94 70.93 1240 70.6516 1240.08 70.3839C1239.16 69.888 1238.13 69.6172 1237.05 69.6139C1235.56 69.6935 1234.1 70.357 1232.94 71.4873C1231.73 72.6588 1231.07 74.2162 1231.07 75.8728C1231.07 77.5293 1231.73 79.0866 1232.94 80.2581ZM1242 71.2241C1242 71.7237 1242.42 72.13 1242.93 72.13C1243.45 72.13 1243.86 71.7237 1243.86 71.2241C1243.86 70.7244 1243.45 70.3179 1242.93 70.3179C1242.42 70.3177 1242 70.7243 1242 71.2241ZM1248.37 65.8938C1248.88 65.8938 1249.3 65.4872 1249.3 64.9876C1249.3 64.4879 1248.88 64.0816 1248.37 64.0816C1247.85 64.0816 1247.43 64.4879 1247.43 64.9876C1247.43 65.4872 1247.85 65.8938 1248.37 65.8938ZM1253.61 100.704V82.999H1233.87C1233.53 83.2166 1233.22 83.4651 1232.94 83.7399C1231.73 84.9112 1231.07 86.4685 1231.07 88.1251C1231.07 89.7817 1231.73 91.3391 1232.94 92.5106C1234.1 93.6409 1235.56 94.3044 1237.05 94.384C1238.11 94.3807 1239.13 94.12 1240.04 93.6388C1239.98 93.4112 1239.94 93.1768 1239.94 92.9315C1239.94 91.3289 1241.28 90.0251 1242.93 90.0251C1244.58 90.0251 1245.92 91.3289 1245.92 92.9315C1245.92 94.5341 1244.58 95.8379 1242.93 95.8379C1242.29 95.8379 1241.7 95.6364 1241.21 95.3008C1240.2 95.8682 1239.08 96.2192 1237.91 96.3365C1237.9 96.4797 1237.88 96.6231 1237.88 96.7674C1237.88 99.287 1239.99 101.336 1242.58 101.336C1243.69 101.336 1244.76 100.955 1245.6 100.265C1245.46 99.9261 1245.38 99.5564 1245.38 99.1677C1245.38 97.5652 1246.72 96.2614 1248.37 96.2614C1250.01 96.2614 1251.36 97.5652 1251.36 99.1677C1251.36 100.77 1250.01 102.074 1248.37 102.074C1247.87 102.074 1247.41 101.945 1247 101.736C1246.35 102.279 1245.61 102.698 1244.82 102.968C1245.64 104.378 1247.18 105.273 1248.91 105.273C1251.5 105.273 1253.61 103.224 1253.61 100.704ZM1248.37 100.074C1248.88 100.074 1249.3 99.6675 1249.3 99.1679C1249.3 98.6682 1248.88 98.2617 1248.37 98.2617C1247.85 98.2617 1247.43 98.6682 1247.43 99.1679C1247.43 99.6675 1247.85 100.074 1248.37 100.074ZM1242.93 93.8379C1243.45 93.8379 1243.86 93.4313 1243.86 92.9316C1243.86 92.432 1243.45 92.0254 1242.93 92.0254C1242.42 92.0254 1242 92.432 1242 92.9316C1242 93.0993 1242.05 93.2544 1242.13 93.3892C1242.15 93.4087 1242.17 93.4252 1242.18 93.4463C1242.2 93.4687 1242.21 93.4933 1242.23 93.5166C1242.4 93.7114 1242.65 93.8379 1242.93 93.8379ZM1281.94 82.0261C1281.94 81.5264 1281.52 81.1198 1281.01 81.1198C1280.5 81.1198 1280.08 81.5264 1280.08 82.0261C1280.08 82.5257 1280.5 82.9323 1281.01 82.9323C1281.52 82.9323 1281.94 82.5257 1281.94 82.0261Z" fill="black"/>
</mask>
<g mask="url(#mask0_1_19)">
<path d="M1258.28 111.295L1258.67 117.533C1258.7 118.05 1258.32 118.505 1257.8 118.582C1255.91 118.859 1253.98 119 1252.06 119C1250.15 119 1248.22 118.859 1246.33 118.582C1245.8 118.505 1245.43 118.05 1245.46 117.533L1245.79 112.177C1241.76 111.391 1237.98 109.871 1234.55 107.648L1230.89 111.663C1230.54 112.05 1229.94 112.112 1229.51 111.805C1226.41 109.588 1223.69 106.936 1221.4 103.923C1221.09 103.506 1221.15 102.925 1221.55 102.581L1225.68 99.0235C1223.39 95.6861 1221.83 92.0191 1221.02 88.0987L1215.51 88.421C1214.98 88.4525 1214.51 88.0844 1214.43 87.5723C1214.14 85.7408 1214 83.8658 1214 81.9989C1214 80.1323 1214.14 78.2573 1214.43 76.4255C1214.51 75.9134 1214.98 75.537 1215.51 75.5768L1221.02 75.8991C1221.83 71.98 1223.39 68.3127 1225.68 64.9753L1221.55 61.4166C1221.15 61.0732 1221.09 60.4915 1221.4 60.0751C1223.68 57.065 1226.41 54.4132 1229.51 52.1928C1229.94 51.8858 1230.54 51.948 1230.89 52.3344L1234.55 56.3498C1238.01 54.119 1241.92 52.5541 1245.98 51.7839L1245.54 46.4743C1245.5 45.9495 1245.88 45.4818 1246.42 45.4043C1250.14 44.8652 1253.99 44.8652 1257.71 45.4043C1258.25 45.4818 1258.63 45.9496 1258.59 46.4743L1258.07 52.6893C1258.02 53.2401 1257.52 53.6503 1256.96 53.605C1256.39 53.5601 1255.97 53.0776 1256.02 52.5273L1256.46 47.2572C1253.55 46.9128 1250.58 46.9128 1247.67 47.2572L1248.11 52.5268C1248.16 53.046 1247.78 53.5109 1247.25 53.5949C1242.86 54.2915 1238.62 55.9843 1234.98 58.4899C1234.55 58.7849 1233.96 58.7181 1233.61 58.3373L1229.98 54.3537C1227.6 56.1511 1225.47 58.2247 1223.62 60.534L1227.72 64.065C1228.11 64.4035 1228.18 64.9749 1227.88 65.3912C1225.31 68.9236 1223.62 72.8693 1222.88 77.1188C1222.79 77.6218 1222.32 77.9795 1221.8 77.9485L1216.34 77.6288C1216.15 79.0723 1216.06 80.5384 1216.06 81.999C1216.06 83.4599 1216.15 84.9259 1216.34 86.3692L1221.8 86.0495C1222.32 86.0157 1222.79 86.3767 1222.88 86.8793C1223.62 91.1301 1225.31 95.0761 1227.88 98.6078C1228.18 99.0242 1228.11 99.5954 1227.72 99.934L1223.62 103.464C1225.47 105.776 1227.61 107.849 1229.98 109.644L1233.61 105.661C1233.96 105.279 1234.55 105.213 1234.98 105.508C1238.61 108.008 1242.67 109.643 1247.04 110.369C1247.56 110.455 1247.93 110.906 1247.9 111.415L1247.57 116.729C1250.54 117.089 1253.59 117.089 1256.56 116.729L1256.23 111.415C1256.2 110.863 1256.63 110.39 1257.2 110.357C1257.76 110.327 1258.25 110.744 1258.28 111.295ZM1280.37 68.0195C1282.02 68.0195 1283.36 69.3234 1283.36 70.9259C1283.36 72.5285 1282.02 73.8323 1280.37 73.8323C1279.99 73.8323 1279.63 73.7564 1279.3 73.631L1276.5 76.447C1276.3 76.642 1276.04 76.7524 1275.76 76.7524H1261.47C1260.9 76.7524 1260.44 76.3048 1260.44 75.7524C1260.44 75.2 1260.9 74.7524 1261.47 74.7524H1275.32L1277.75 72.3052C1277.52 71.8928 1277.38 71.4277 1277.38 70.9261C1277.38 69.3232 1278.72 68.0195 1280.37 68.0195ZM1279.43 70.9259C1279.43 71.4256 1279.85 71.8321 1280.37 71.8321C1280.88 71.8321 1281.3 71.4256 1281.3 70.9259C1281.3 70.4263 1280.88 70.0197 1280.37 70.0197C1279.85 70.0196 1279.43 70.4261 1279.43 70.9259ZM1269.2 65.3892L1273.01 60.0583C1272.62 59.5691 1272.39 58.9651 1272.39 58.3029C1272.39 56.7003 1273.73 55.3965 1275.37 55.3965C1277.02 55.3965 1278.36 56.7003 1278.36 58.3029C1278.36 59.9054 1277.02 61.2092 1275.37 61.2092C1275.16 61.2092 1274.95 61.1835 1274.74 61.1403L1270.58 66.9604C1270.39 67.229 1270.07 67.3895 1269.73 67.3895H1258.42C1257.85 67.3895 1257.39 66.9419 1257.39 66.3895C1257.39 65.8371 1257.85 65.3895 1258.42 65.3895L1269.2 65.3892ZM1274.44 58.3029C1274.44 58.8025 1274.86 59.2091 1275.37 59.2091C1275.89 59.2091 1276.31 58.8025 1276.31 58.3029C1276.31 57.8032 1275.89 57.3967 1275.37 57.3967C1274.86 57.3965 1274.44 57.8031 1274.44 58.3029ZM1278.12 105.696C1278.12 107.298 1276.78 108.602 1275.13 108.602C1273.48 108.602 1272.14 107.298 1272.14 105.696C1272.14 104.912 1272.46 104.203 1272.98 103.679L1269.19 98.3852H1258.42C1257.85 98.3852 1257.39 97.9376 1257.39 97.3852C1257.39 96.8328 1257.85 96.3852 1258.42 96.3852H1269.73C1270.07 96.3852 1270.39 96.5456 1270.58 96.8143L1274.87 102.815C1274.96 102.807 1275.04 102.789 1275.13 102.789C1276.78 102.789 1278.12 104.093 1278.12 105.696ZM1276.06 105.696C1276.06 105.196 1275.64 104.789 1275.13 104.789C1274.61 104.789 1274.19 105.196 1274.19 105.696C1274.19 106.195 1274.61 106.602 1275.13 106.602C1275.64 106.602 1276.06 106.195 1276.06 105.696ZM1283.11 93.3506C1283.11 94.9532 1281.77 96.257 1280.12 96.257C1278.47 96.257 1277.13 94.9532 1277.13 93.3506C1277.13 92.7267 1277.34 92.1518 1277.68 91.6777L1275.32 89.3004H1261.47C1260.9 89.3004 1260.44 88.8528 1260.44 88.3004C1260.44 87.748 1260.9 87.3004 1261.47 87.3004H1275.76C1276.04 87.3004 1276.3 87.4109 1276.5 87.6058L1279.41 90.5363C1279.64 90.4817 1279.87 90.4444 1280.12 90.4444C1281.77 90.4443 1283.11 91.7479 1283.11 93.3506ZM1281.05 93.3506C1281.05 92.851 1280.63 92.4444 1280.12 92.4444C1279.61 92.4444 1279.19 92.851 1279.19 93.3506C1279.19 93.8503 1279.61 94.2569 1280.12 94.2569C1280.63 94.2569 1281.05 93.8503 1281.05 93.3506ZM1284 82.0261C1284 83.6286 1282.66 84.9324 1281.01 84.9324C1279.72 84.9324 1278.64 84.1352 1278.21 83.0258H1255.66V100.704C1255.66 104.326 1252.63 107.273 1248.91 107.273C1246.18 107.273 1243.77 105.718 1242.71 103.335C1242.67 103.336 1242.63 103.337 1242.58 103.337C1238.86 103.337 1235.83 100.39 1235.83 96.7674C1235.83 96.5939 1235.83 96.4203 1235.85 96.2475C1234.24 95.9353 1232.72 95.1326 1231.48 93.9249C1229.89 92.3756 1229.01 90.3161 1229.01 88.1253C1229.01 85.9345 1229.89 83.8749 1231.48 82.326C1231.6 82.2098 1231.73 82.1079 1231.86 81.9992C1231.73 81.8903 1231.6 81.7884 1231.48 81.6724C1229.89 80.1232 1229.01 78.0636 1229.01 75.8731C1229.01 73.6823 1229.89 71.6227 1231.48 70.0735C1232.72 68.8658 1234.24 68.063 1235.85 67.7509C1235.83 67.578 1235.83 67.4046 1235.83 67.231C1235.83 63.6085 1238.86 60.6615 1242.58 60.6615C1242.63 60.6615 1242.67 60.6618 1242.71 60.6628C1243.77 58.2799 1246.18 56.7252 1248.91 56.7252C1252.63 56.7252 1255.66 59.6721 1255.66 63.2944V81.0259H1278.21C1278.64 79.9168 1279.72 79.12 1281.01 79.12C1282.66 79.1198 1284 80.4235 1284 82.0261ZM1232.94 80.2581C1233.22 80.5356 1233.55 80.7792 1233.89 80.999H1253.61V63.2941C1253.61 60.7745 1251.5 58.725 1248.91 58.725C1247.18 58.725 1245.64 59.6203 1244.82 61.0297C1245.65 61.313 1246.42 61.7544 1247.09 62.3364C1247.1 62.3432 1247.1 62.3529 1247.11 62.3598C1247.49 62.1858 1247.92 62.0815 1248.37 62.0815C1250.01 62.0815 1251.36 63.3853 1251.36 64.9874C1251.36 66.59 1250.01 67.8938 1248.37 67.8938C1246.72 67.8938 1245.38 66.59 1245.38 64.9874C1245.38 64.5541 1245.48 64.1465 1245.66 63.7768C1244.8 63.0582 1243.72 62.6612 1242.58 62.6612C1239.99 62.6612 1237.88 64.7111 1237.88 67.2307C1237.88 67.3749 1237.9 67.5183 1237.91 67.6615C1239.13 67.784 1240.3 68.1579 1241.35 68.77C1241.81 68.4875 1242.35 68.3176 1242.93 68.3176C1244.58 68.3176 1245.92 69.6214 1245.92 71.2239C1245.92 72.8262 1244.58 74.1299 1242.93 74.1299C1241.28 74.1299 1239.94 72.8261 1239.94 71.2239C1239.94 70.93 1240 70.6516 1240.08 70.3839C1239.16 69.888 1238.13 69.6172 1237.05 69.6139C1235.56 69.6935 1234.1 70.357 1232.94 71.4873C1231.73 72.6588 1231.07 74.2162 1231.07 75.8728C1231.07 77.5293 1231.73 79.0866 1232.94 80.2581ZM1242 71.2241C1242 71.7237 1242.42 72.13 1242.93 72.13C1243.45 72.13 1243.86 71.7237 1243.86 71.2241C1243.86 70.7244 1243.45 70.3179 1242.93 70.3179C1242.42 70.3177 1242 70.7243 1242 71.2241ZM1248.37 65.8938C1248.88 65.8938 1249.3 65.4872 1249.3 64.9876C1249.3 64.4879 1248.88 64.0816 1248.37 64.0816C1247.85 64.0816 1247.43 64.4879 1247.43 64.9876C1247.43 65.4872 1247.85 65.8938 1248.37 65.8938ZM1253.61 100.704V82.999H1233.87C1233.53 83.2166 1233.22 83.4651 1232.94 83.7399C1231.73 84.9112 1231.07 86.4685 1231.07 88.1251C1231.07 89.7817 1231.73 91.3391 1232.94 92.5106C1234.1 93.6409 1235.56 94.3044 1237.05 94.384C1238.11 94.3807 1239.13 94.12 1240.04 93.6388C1239.98 93.4112 1239.94 93.1768 1239.94 92.9315C1239.94 91.3289 1241.28 90.0251 1242.93 90.0251C1244.58 90.0251 1245.92 91.3289 1245.92 92.9315C1245.92 94.5341 1244.58 95.8379 1242.93 95.8379C1242.29 95.8379 1241.7 95.6364 1241.21 95.3008C1240.2 95.8682 1239.08 96.2192 1237.91 96.3365C1237.9 96.4797 1237.88 96.6231 1237.88 96.7674C1237.88 99.287 1239.99 101.336 1242.58 101.336C1243.69 101.336 1244.76 100.955 1245.6 100.265C1245.46 99.9261 1245.38 99.5564 1245.38 99.1677C1245.38 97.5652 1246.72 96.2614 1248.37 96.2614C1250.01 96.2614 1251.36 97.5652 1251.36 99.1677C1251.36 100.77 1250.01 102.074 1248.37 102.074C1247.87 102.074 1247.41 101.945 1247 101.736C1246.35 102.279 1245.61 102.698 1244.82 102.968C1245.64 104.378 1247.18 105.273 1248.91 105.273C1251.5 105.273 1253.61 103.224 1253.61 100.704ZM1248.37 100.074C1248.88 100.074 1249.3 99.6675 1249.3 99.1679C1249.3 98.6682 1248.88 98.2617 1248.37 98.2617C1247.85 98.2617 1247.43 98.6682 1247.43 99.1679C1247.43 99.6675 1247.85 100.074 1248.37 100.074ZM1242.93 93.8379C1243.45 93.8379 1243.86 93.4313 1243.86 92.9316C1243.86 92.432 1243.45 92.0254 1242.93 92.0254C1242.42 92.0254 1242 92.432 1242 92.9316C1242 93.0993 1242.05 93.2544 1242.13 93.3892C1242.15 93.4087 1242.17 93.4252 1242.18 93.4463C1242.2 93.4687 1242.21 93.4933 1242.23 93.5166C1242.4 93.7114 1242.65 93.8379 1242.93 93.8379ZM1281.94 82.0261C1281.94 81.5264 1281.52 81.1198 1281.01 81.1198C1280.5 81.1198 1280.08 81.5264 1280.08 82.0261C1280.08 82.5257 1280.5 82.9323 1281.01 82.9323C1281.52 82.9323 1281.94 82.5257 1281.94 82.0261Z" stroke="white"/>
</g>
<path d="M103.304 36.568L102.984 52.824L105.672 53.08C105.672 53.6773 105.491 54.3173 105.128 55H97.7681L97.6721 53.88C98.8241 53.496 99.8055 53.24 100.616 53.112C100.573 51.7253 100.499 48.8667 100.392 44.536C100.307 40.2053 100.232 36.856 100.168 34.488C99.3575 34.36 98.3975 34.104 97.2881 33.72L97.3841 32.6H103.72L115.4 51.256L114.856 34.488C114.067 34.3387 113.117 34.0827 112.008 33.72L112.104 32.6H120.104C120.467 33.2827 120.648 33.9227 120.648 34.52C119.581 34.6053 118.728 34.648 118.088 34.648L117.768 55H114.664L103.304 36.568ZM130.861 52.888C131.48 52.888 132.173 52.76 132.941 52.504C133.709 52.2267 134.338 51.896 134.829 51.512C134.744 46.968 134.669 43.5227 134.605 41.176C133.282 41.176 132.301 41.048 131.661 40.792L131.789 39.128C133.602 38.808 135.021 38.648 136.045 38.648C137.09 38.648 137.752 38.6693 138.029 38.712C138.029 39.096 137.965 39.608 137.837 40.248C137.73 40.888 137.656 41.24 137.613 41.304L137.229 52.728C138.36 52.792 139.277 52.92 139.981 53.112L139.917 54.744C138.978 55.0427 138.072 55.192 137.197 55.192C136.322 55.192 135.789 55.1813 135.597 55.16C135.192 54.3493 134.957 53.6027 134.893 52.92C133.848 53.7093 132.877 54.3173 131.981 54.744C131.106 55.1707 130.53 55.384 130.253 55.384C128.376 55.384 127.01 54.8827 126.157 53.88C125.325 52.856 124.909 51.3627 124.909 49.4C124.909 49.3787 125.005 46.648 125.197 41.208C123.96 41.208 122.818 41.0693 121.773 40.792L121.901 39.128C123.714 38.808 125.122 38.648 126.125 38.648C127.128 38.648 127.768 38.6693 128.045 38.712C128.045 39.224 127.981 39.7893 127.853 40.408C127.725 41.0267 127.65 41.3253 127.629 41.304L127.661 48.216C127.661 49.8373 127.864 51.0213 128.269 51.768C128.674 52.5147 129.538 52.888 130.861 52.888ZM157.949 52.856C161.128 52.856 162.717 51.5653 162.717 48.984C162.717 47.7253 161.938 46.6587 160.381 45.784C159.677 45.3787 158.898 44.9947 158.045 44.632C157.213 44.2693 156.37 43.8747 155.517 43.448C154.664 43.0213 153.885 42.5627 153.181 42.072C152.498 41.5813 151.933 40.9627 151.485 40.216C151.058 39.4693 150.845 38.6267 150.845 37.688C150.845 36.152 151.464 34.8507 152.701 33.784C153.96 32.696 155.677 32.152 157.853 32.152C160.029 32.152 162.322 32.8133 164.733 34.136C164.733 35.352 164.584 36.8773 164.285 38.712C163.816 38.776 163.197 38.808 162.429 38.808L161.469 35.096C161.213 34.968 160.701 34.84 159.933 34.712C159.186 34.584 158.525 34.52 157.949 34.52C156.712 34.52 155.752 34.7867 155.069 35.32C154.386 35.832 154.045 36.5573 154.045 37.496C154.045 38.4133 154.44 39.2453 155.229 39.992C156.04 40.7173 157.01 41.3467 158.141 41.88C159.293 42.392 160.434 42.9253 161.565 43.48C162.717 44.0347 163.688 44.76 164.477 45.656C165.288 46.5307 165.693 47.5547 165.693 48.728C165.693 50.8613 164.978 52.5147 163.549 53.688C162.12 54.84 160.253 55.416 157.949 55.416C156.69 55.416 155.325 55.224 153.853 54.84C152.402 54.4347 151.197 53.9227 150.237 53.304C150.28 51.8747 150.44 50.2213 150.717 48.344C151.186 48.28 151.805 48.248 152.573 48.248L153.245 52.088C153.714 52.28 154.418 52.4613 155.357 52.632C156.317 52.7813 157.181 52.856 157.949 52.856ZM175.909 55.384C173.349 55.384 171.439 54.6693 170.181 53.24C168.922 51.7893 168.293 49.7307 168.293 47.064C168.293 41.2613 170.874 38.36 176.037 38.36C176.869 38.36 177.733 38.488 178.629 38.744C179.525 38.9787 180.229 39.2453 180.741 39.544C180.677 41.528 180.474 42.936 180.133 43.768C179.749 43.8747 179.439 43.928 179.205 43.928H178.661C178.554 43.928 178.426 43.9173 178.277 43.896L177.477 40.376C176.773 40.312 176.367 40.28 176.261 40.28C174.725 40.28 173.498 40.7493 172.581 41.688C171.685 42.6267 171.237 44.2053 171.237 46.424C171.237 48.6427 171.578 50.328 172.261 51.48C172.965 52.632 174.309 53.208 176.293 53.208C177.231 53.208 178.703 52.76 180.709 51.864C181.114 52.4187 181.327 52.9093 181.349 53.336C180.261 53.976 179.194 54.4773 178.149 54.84C177.103 55.2027 176.357 55.384 175.909 55.384ZM196.25 44.536L196.09 52.792C197.008 52.856 197.925 53.0053 198.842 53.24L198.778 54.36C198.437 54.5307 197.818 54.7227 196.922 54.936C196.048 55.128 195.184 55.224 194.33 55.224C193.946 54.456 193.733 53.72 193.69 53.016C191.258 54.616 189.552 55.416 188.57 55.416C187.056 55.416 185.84 55.0107 184.922 54.2C184.005 53.3893 183.546 52.2587 183.546 50.808C183.546 47.4587 185.594 45.7307 189.69 45.624C192.08 45.56 193.285 45.528 193.306 45.528L193.274 44.44C193.232 42.968 192.954 41.912 192.442 41.272C191.93 40.6107 191.013 40.28 189.69 40.28C189.136 40.28 188.538 40.408 187.898 40.664L187.13 43.864C187.024 43.8853 186.842 43.896 186.586 43.896L185.274 43.8C184.933 42.8827 184.752 41.6133 184.73 39.992C185.136 39.7787 186.064 39.4587 187.514 39.032C188.965 38.584 189.893 38.36 190.298 38.36C192.474 38.36 194.01 38.84 194.906 39.8C195.802 40.76 196.25 42.3387 196.25 44.536ZM189.274 53.24C189.893 53.24 191.322 52.5467 193.562 51.16L193.402 47.16C191.952 47.288 190.736 47.4053 189.754 47.512C188.773 47.6187 187.984 47.9067 187.386 48.376C186.789 48.824 186.49 49.5387 186.49 50.52C186.49 52.3333 187.418 53.24 189.274 53.24ZM204.956 31.224C205.618 31.224 206.087 31.2453 206.364 31.288C206.364 32.0347 206.226 32.888 205.948 33.848C205.756 46.4347 205.66 52.76 205.66 52.824L208.348 53.08C208.348 53.6773 208.167 54.3173 207.804 55H200.444L200.348 53.88C201.33 53.5387 202.29 53.2827 203.228 53.112L202.908 33.752C201.735 33.688 200.796 33.56 200.092 33.368L200.22 31.704C201.308 31.384 202.887 31.224 204.956 31.224ZM218.202 53.208C219.141 53.208 220.613 52.76 222.618 51.864C223.023 52.4187 223.237 52.9093 223.258 53.336C222.17 53.976 221.103 54.4773 220.058 54.84C219.013 55.2027 218.266 55.384 217.818 55.384C215.343 55.384 213.455 54.648 212.154 53.176C210.853 51.6827 210.202 49.6027 210.202 46.936C210.202 44.2693 210.831 42.1787 212.09 40.664C213.37 39.128 215.279 38.36 217.818 38.36C219.781 38.36 221.274 39.064 222.298 40.472C223.343 41.88 223.866 43.768 223.866 46.136C223.695 46.4347 223.557 46.6373 223.45 46.744L213.146 46.584C213.167 48.7387 213.541 50.3813 214.266 51.512C215.013 52.6427 216.325 53.208 218.202 53.208ZM220.954 44.76C220.954 43.352 220.698 42.264 220.186 41.496C219.674 40.7067 218.821 40.312 217.626 40.312C216.431 40.312 215.365 40.536 214.426 40.984C213.786 42.264 213.381 43.576 213.21 44.92C214.895 44.8987 217.477 44.8453 220.954 44.76ZM236.273 41.048C236.166 40.9413 235.932 40.888 235.569 40.888C235.206 40.888 234.662 41.016 233.937 41.272C233.233 41.528 232.593 41.8267 232.017 42.168C231.889 46.904 231.804 50.456 231.761 52.824L234.449 53.08C234.449 53.6773 234.268 54.3173 233.905 55H226.545L226.449 53.88C227.43 53.5387 228.39 53.2827 229.329 53.112C229.201 47.6933 229.094 43.6827 229.009 41.08C227.836 41.016 226.897 40.888 226.193 40.696L226.321 39.032C227.452 38.712 229.126 38.552 231.345 38.552C231.686 39.0853 231.9 39.768 231.985 40.6C234.438 39.1067 235.9 38.36 236.369 38.36C236.838 38.36 237.382 38.456 238.001 38.648C238.62 38.8187 239.078 39.0107 239.377 39.224C239.377 41.3573 239.174 43.096 238.769 44.44C238.47 44.5253 238.118 44.568 237.713 44.568C237.329 44.568 237.062 44.5573 236.913 44.536L236.273 41.048Z" fill="#888888"/>
</g>
<defs>
<clipPath id="clip0_1_19">
<rect width="1363" height="163" fill="white" transform="translate(0.5 0.5)"/>
</clipPath>
</defs>
</svg>
