<svg width="1364" height="164" viewBox="0 0 1364 164" fill="none" xmlns="http://www.w3.org/2000/svg">
<g clip-path="url(#clip0_1_2)">
<path d="M0.5 15.5C0.5 7.21573 7.21573 0.5 15.5 0.5H37.5V163.5H15.5C7.21573 163.5 0.5 156.784 0.5 148.5V15.5Z" fill="#091C25"/>
<path d="M1134.5 0.5H37.5V163.5H1134.5V0.5Z" fill="#F0F0F0"/>
<path d="M103.304 27.568L102.984 43.824L105.672 44.08C105.672 44.6773 105.491 45.3173 105.128 46H97.7681L97.6721 44.88C98.8241 44.496 99.8055 44.24 100.616 44.112C100.573 42.7253 100.499 39.8667 100.392 35.536C100.307 31.2053 100.232 27.856 100.168 25.488C99.3575 25.36 98.3975 25.104 97.2881 24.72L97.3841 23.6H103.72L115.4 42.256L114.856 25.488C114.067 25.3387 113.117 25.0827 112.008 24.72L112.104 23.6H120.104C120.467 24.2827 120.648 24.9227 120.648 25.52C119.581 25.6053 118.728 25.648 118.088 25.648L117.768 46H114.664L103.304 27.568ZM130.861 43.888C131.48 43.888 132.173 43.76 132.941 43.504C133.709 43.2267 134.338 42.896 134.829 42.512C134.744 37.968 134.669 34.5227 134.605 32.176C133.282 32.176 132.301 32.048 131.661 31.792L131.789 30.128C133.602 29.808 135.021 29.648 136.045 29.648C137.09 29.648 137.752 29.6693 138.029 29.712C138.029 30.096 137.965 30.608 137.837 31.248C137.73 31.888 137.656 32.24 137.613 32.304L137.229 43.728C138.36 43.792 139.277 43.92 139.981 44.112L139.917 45.744C138.978 46.0427 138.072 46.192 137.197 46.192C136.322 46.192 135.789 46.1813 135.597 46.16C135.192 45.3493 134.957 44.6027 134.893 43.92C133.848 44.7093 132.877 45.3173 131.981 45.744C131.106 46.1707 130.53 46.384 130.253 46.384C128.376 46.384 127.01 45.8827 126.157 44.88C125.325 43.856 124.909 42.3627 124.909 40.4C124.909 40.3787 125.005 37.648 125.197 32.208C123.96 32.208 122.818 32.0693 121.773 31.792L121.901 30.128C123.714 29.808 125.122 29.648 126.125 29.648C127.128 29.648 127.768 29.6693 128.045 29.712C128.045 30.224 127.981 30.7893 127.853 31.408C127.725 32.0267 127.65 32.3253 127.629 32.304L127.661 39.216C127.661 40.8373 127.864 42.0213 128.269 42.768C128.674 43.5147 129.538 43.888 130.861 43.888ZM157.949 43.856C161.128 43.856 162.717 42.5653 162.717 39.984C162.717 38.7253 161.938 37.6587 160.381 36.784C159.677 36.3787 158.898 35.9947 158.045 35.632C157.213 35.2693 156.37 34.8747 155.517 34.448C154.664 34.0213 153.885 33.5627 153.181 33.072C152.498 32.5813 151.933 31.9627 151.485 31.216C151.058 30.4693 150.845 29.6267 150.845 28.688C150.845 27.152 151.464 25.8507 152.701 24.784C153.96 23.696 155.677 23.152 157.853 23.152C160.029 23.152 162.322 23.8133 164.733 25.136C164.733 26.352 164.584 27.8773 164.285 29.712C163.816 29.776 163.197 29.808 162.429 29.808L161.469 26.096C161.213 25.968 160.701 25.84 159.933 25.712C159.186 25.584 158.525 25.52 157.949 25.52C156.712 25.52 155.752 25.7867 155.069 26.32C154.386 26.832 154.045 27.5573 154.045 28.496C154.045 29.4133 154.44 30.2453 155.229 30.992C156.04 31.7173 157.01 32.3467 158.141 32.88C159.293 33.392 160.434 33.9253 161.565 34.48C162.717 35.0347 163.688 35.76 164.477 36.656C165.288 37.5307 165.693 38.5547 165.693 39.728C165.693 41.8613 164.978 43.5147 163.549 44.688C162.12 45.84 160.253 46.416 157.949 46.416C156.69 46.416 155.325 46.224 153.853 45.84C152.402 45.4347 151.197 44.9227 150.237 44.304C150.28 42.8747 150.44 41.2213 150.717 39.344C151.186 39.28 151.805 39.248 152.573 39.248L153.245 43.088C153.714 43.28 154.418 43.4613 155.357 43.632C156.317 43.7813 157.181 43.856 157.949 43.856ZM175.909 46.384C173.349 46.384 171.439 45.6693 170.181 44.24C168.922 42.7893 168.293 40.7307 168.293 38.064C168.293 32.2613 170.874 29.36 176.037 29.36C176.869 29.36 177.733 29.488 178.629 29.744C179.525 29.9787 180.229 30.2453 180.741 30.544C180.677 32.528 180.474 33.936 180.133 34.768C179.749 34.8747 179.439 34.928 179.205 34.928H178.661C178.554 34.928 178.426 34.9173 178.277 34.896L177.477 31.376C176.773 31.312 176.367 31.28 176.261 31.28C174.725 31.28 173.498 31.7493 172.581 32.688C171.685 33.6267 171.237 35.2053 171.237 37.424C171.237 39.6427 171.578 41.328 172.261 42.48C172.965 43.632 174.309 44.208 176.293 44.208C177.231 44.208 178.703 43.76 180.709 42.864C181.114 43.4187 181.327 43.9093 181.349 44.336C180.261 44.976 179.194 45.4773 178.149 45.84C177.103 46.2027 176.357 46.384 175.909 46.384ZM196.25 35.536L196.09 43.792C197.008 43.856 197.925 44.0053 198.842 44.24L198.778 45.36C198.437 45.5307 197.818 45.7227 196.922 45.936C196.048 46.128 195.184 46.224 194.33 46.224C193.946 45.456 193.733 44.72 193.69 44.016C191.258 45.616 189.552 46.416 188.57 46.416C187.056 46.416 185.84 46.0107 184.922 45.2C184.005 44.3893 183.546 43.2587 183.546 41.808C183.546 38.4587 185.594 36.7307 189.69 36.624C192.08 36.56 193.285 36.528 193.306 36.528L193.274 35.44C193.232 33.968 192.954 32.912 192.442 32.272C191.93 31.6107 191.013 31.28 189.69 31.28C189.136 31.28 188.538 31.408 187.898 31.664L187.13 34.864C187.024 34.8853 186.842 34.896 186.586 34.896L185.274 34.8C184.933 33.8827 184.752 32.6133 184.73 30.992C185.136 30.7787 186.064 30.4587 187.514 30.032C188.965 29.584 189.893 29.36 190.298 29.36C192.474 29.36 194.01 29.84 194.906 30.8C195.802 31.76 196.25 33.3387 196.25 35.536ZM189.274 44.24C189.893 44.24 191.322 43.5467 193.562 42.16L193.402 38.16C191.952 38.288 190.736 38.4053 189.754 38.512C188.773 38.6187 187.984 38.9067 187.386 39.376C186.789 39.824 186.49 40.5387 186.49 41.52C186.49 43.3333 187.418 44.24 189.274 44.24ZM204.956 22.224C205.618 22.224 206.087 22.2453 206.364 22.288C206.364 23.0347 206.226 23.888 205.948 24.848C205.756 37.4347 205.66 43.76 205.66 43.824L208.348 44.08C208.348 44.6773 208.167 45.3173 207.804 46H200.444L200.348 44.88C201.33 44.5387 202.29 44.2827 203.228 44.112L202.908 24.752C201.735 24.688 200.796 24.56 200.092 24.368L200.22 22.704C201.308 22.384 202.887 22.224 204.956 22.224ZM218.202 44.208C219.141 44.208 220.613 43.76 222.618 42.864C223.023 43.4187 223.237 43.9093 223.258 44.336C222.17 44.976 221.103 45.4773 220.058 45.84C219.013 46.2027 218.266 46.384 217.818 46.384C215.343 46.384 213.455 45.648 212.154 44.176C210.853 42.6827 210.202 40.6027 210.202 37.936C210.202 35.2693 210.831 33.1787 212.09 31.664C213.37 30.128 215.279 29.36 217.818 29.36C219.781 29.36 221.274 30.064 222.298 31.472C223.343 32.88 223.866 34.768 223.866 37.136C223.695 37.4347 223.557 37.6373 223.45 37.744L213.146 37.584C213.167 39.7387 213.541 41.3813 214.266 42.512C215.013 43.6427 216.325 44.208 218.202 44.208ZM220.954 35.76C220.954 34.352 220.698 33.264 220.186 32.496C219.674 31.7067 218.821 31.312 217.626 31.312C216.431 31.312 215.365 31.536 214.426 31.984C213.786 33.264 213.381 34.576 213.21 35.92C214.895 35.8987 217.477 35.8453 220.954 35.76ZM236.273 32.048C236.166 31.9413 235.932 31.888 235.569 31.888C235.206 31.888 234.662 32.016 233.937 32.272C233.233 32.528 232.593 32.8267 232.017 33.168C231.889 37.904 231.804 41.456 231.761 43.824L234.449 44.08C234.449 44.6773 234.268 45.3173 233.905 46H226.545L226.449 44.88C227.43 44.5387 228.39 44.2827 229.329 44.112C229.201 38.6933 229.094 34.6827 229.009 32.08C227.836 32.016 226.897 31.888 226.193 31.696L226.321 30.032C227.452 29.712 229.126 29.552 231.345 29.552C231.686 30.0853 231.9 30.768 231.985 31.6C234.438 30.1067 235.9 29.36 236.369 29.36C236.838 29.36 237.382 29.456 238.001 29.648C238.62 29.8187 239.078 30.0107 239.377 30.224C239.377 32.3573 239.174 34.096 238.769 35.44C238.47 35.5253 238.118 35.568 237.713 35.568C237.329 35.568 237.062 35.5573 236.913 35.536L236.273 32.048Z" fill="#888888"/>
<path d="M109.719 107.922H101.234V101.57H109.719C110.875 101.57 111.812 101.375 112.531 100.984C113.25 100.594 113.773 100.055 114.102 99.3672C114.445 98.6641 114.617 97.875 114.617 97C114.617 96.0625 114.445 95.1953 114.102 94.3984C113.773 93.6016 113.25 92.9609 112.531 92.4766C111.812 91.9766 110.875 91.7266 109.719 91.7266H104.328V119.5H96.1016V85.375H109.719C112.453 85.375 114.805 85.875 116.773 86.875C118.758 87.875 120.281 89.25 121.344 91C122.406 92.7344 122.938 94.7188 122.938 96.9531C122.938 99.1562 122.406 101.078 121.344 102.719C120.281 104.359 118.758 105.641 116.773 106.562C114.805 107.469 112.453 107.922 109.719 107.922ZM134.961 100.422V119.5H127.062V94.1406H134.445L134.961 100.422ZM142.461 93.9531L142.32 101.289C142.008 101.258 141.586 101.219 141.055 101.172C140.523 101.125 140.078 101.102 139.719 101.102C138.797 101.102 138 101.211 137.328 101.43C136.672 101.633 136.125 101.945 135.688 102.367C135.266 102.773 134.953 103.289 134.75 103.914C134.562 104.539 134.477 105.266 134.492 106.094L133.062 105.156C133.062 103.453 133.227 101.906 133.555 100.516C133.898 99.1094 134.383 97.8984 135.008 96.8828C135.633 95.8516 136.391 95.0625 137.281 94.5156C138.172 93.9531 139.172 93.6719 140.281 93.6719C140.672 93.6719 141.055 93.6953 141.43 93.7422C141.82 93.7891 142.164 93.8594 142.461 93.9531ZM143.352 107.078V106.586C143.352 104.727 143.617 103.016 144.148 101.453C144.68 99.875 145.461 98.5078 146.492 97.3516C147.523 96.1953 148.797 95.2969 150.312 94.6562C151.828 94 153.578 93.6719 155.562 93.6719C157.562 93.6719 159.32 94 160.836 94.6562C162.367 95.2969 163.648 96.1953 164.68 97.3516C165.711 98.5078 166.492 99.875 167.023 101.453C167.555 103.016 167.82 104.727 167.82 106.586V107.078C167.82 108.922 167.555 110.633 167.023 112.211C166.492 113.773 165.711 115.141 164.68 116.312C163.648 117.469 162.375 118.367 160.859 119.008C159.344 119.648 157.594 119.969 155.609 119.969C153.625 119.969 151.867 119.648 150.336 119.008C148.805 118.367 147.523 117.469 146.492 116.312C145.461 115.141 144.68 113.773 144.148 112.211C143.617 110.633 143.352 108.922 143.352 107.078ZM151.25 106.586V107.078C151.25 108.031 151.32 108.922 151.461 109.75C151.602 110.578 151.836 111.305 152.164 111.93C152.492 112.539 152.938 113.016 153.5 113.359C154.062 113.703 154.766 113.875 155.609 113.875C156.438 113.875 157.125 113.703 157.672 113.359C158.234 113.016 158.68 112.539 159.008 111.93C159.336 111.305 159.57 110.578 159.711 109.75C159.852 108.922 159.922 108.031 159.922 107.078V106.586C159.922 105.664 159.852 104.797 159.711 103.984C159.57 103.156 159.336 102.43 159.008 101.805C158.68 101.164 158.234 100.664 157.672 100.305C157.109 99.9453 156.406 99.7656 155.562 99.7656C154.734 99.7656 154.039 99.9453 153.477 100.305C152.93 100.664 152.492 101.164 152.164 101.805C151.836 102.43 151.602 103.156 151.461 103.984C151.32 104.797 151.25 105.664 151.25 106.586ZM171.922 94.1406H179.844V120.32C179.844 122.352 179.453 124.062 178.672 125.453C177.891 126.859 176.773 127.922 175.32 128.641C173.867 129.375 172.133 129.742 170.117 129.742C169.445 129.742 168.828 129.711 168.266 129.648C167.688 129.602 167.055 129.5 166.367 129.344V123.367C166.773 123.43 167.148 123.477 167.492 123.508C167.836 123.555 168.211 123.578 168.617 123.578C169.336 123.578 169.938 123.461 170.422 123.227C170.906 122.992 171.273 122.633 171.523 122.148C171.789 121.664 171.922 121.055 171.922 120.32V94.1406ZM171.336 87.6016C171.336 86.4766 171.742 85.5547 172.555 84.8359C173.367 84.1172 174.422 83.7578 175.719 83.7578C177.016 83.7578 178.07 84.1172 178.883 84.8359C179.695 85.5547 180.102 86.4766 180.102 87.6016C180.102 88.7266 179.695 89.6484 178.883 90.3672C178.07 91.0859 177.016 91.4453 175.719 91.4453C174.422 91.4453 173.367 91.0859 172.555 90.3672C171.742 89.6484 171.336 88.7266 171.336 87.6016ZM196.602 119.969C194.539 119.969 192.695 119.648 191.07 119.008C189.445 118.352 188.07 117.453 186.945 116.312C185.836 115.172 184.984 113.859 184.391 112.375C183.812 110.891 183.523 109.32 183.523 107.664V106.773C183.523 104.914 183.781 103.195 184.297 101.617C184.812 100.023 185.578 98.6328 186.594 97.4453C187.609 96.2578 188.883 95.3359 190.414 94.6797C191.945 94.0078 193.727 93.6719 195.758 93.6719C197.555 93.6719 199.164 93.9609 200.586 94.5391C202.008 95.1172 203.211 95.9453 204.195 97.0234C205.195 98.1016 205.953 99.4062 206.469 100.938C207 102.469 207.266 104.188 207.266 106.094V109.305H186.547V104.359H199.555V103.75C199.57 102.906 199.422 102.188 199.109 101.594C198.812 101 198.375 100.547 197.797 100.234C197.219 99.9219 196.516 99.7656 195.688 99.7656C194.828 99.7656 194.117 99.9531 193.555 100.328C193.008 100.703 192.578 101.219 192.266 101.875C191.969 102.516 191.758 103.258 191.633 104.102C191.508 104.945 191.445 105.836 191.445 106.773V107.664C191.445 108.602 191.57 109.453 191.82 110.219C192.086 110.984 192.461 111.641 192.945 112.188C193.445 112.719 194.039 113.133 194.727 113.43C195.43 113.727 196.227 113.875 197.117 113.875C198.195 113.875 199.258 113.672 200.305 113.266C201.352 112.859 202.25 112.188 203 111.25L206.586 115.516C206.07 116.25 205.336 116.961 204.383 117.648C203.445 118.336 202.32 118.898 201.008 119.336C199.695 119.758 198.227 119.969 196.602 119.969ZM221.188 113.875C221.922 113.875 222.547 113.742 223.062 113.477C223.594 113.195 223.992 112.805 224.258 112.305C224.539 111.789 224.672 111.172 224.656 110.453H232.086C232.102 112.359 231.633 114.031 230.68 115.469C229.742 116.891 228.461 118 226.836 118.797C225.227 119.578 223.406 119.969 221.375 119.969C219.391 119.969 217.656 119.648 216.172 119.008C214.688 118.352 213.445 117.445 212.445 116.289C211.461 115.117 210.719 113.75 210.219 112.188C209.734 110.625 209.492 108.93 209.492 107.102V106.562C209.492 104.734 209.734 103.039 210.219 101.477C210.719 99.8984 211.461 98.5312 212.445 97.375C213.445 96.2031 214.68 95.2969 216.148 94.6562C217.633 94 219.359 93.6719 221.328 93.6719C223.438 93.6719 225.297 94.0703 226.906 94.8672C228.531 95.6641 229.805 96.8203 230.727 98.3359C231.648 99.8516 232.102 101.688 232.086 103.844H224.656C224.672 103.078 224.555 102.391 224.305 101.781C224.055 101.172 223.664 100.688 223.133 100.328C222.617 99.9531 221.953 99.7656 221.141 99.7656C220.328 99.7656 219.672 99.9453 219.172 100.305C218.672 100.664 218.289 101.164 218.023 101.805C217.773 102.43 217.602 103.148 217.508 103.961C217.43 104.773 217.391 105.641 217.391 106.562V107.102C217.391 108.039 217.43 108.922 217.508 109.75C217.602 110.562 217.781 111.281 218.047 111.906C218.312 112.516 218.695 113 219.195 113.359C219.695 113.703 220.359 113.875 221.188 113.875ZM248.82 94.1406V99.625H233.539V94.1406H248.82ZM236.75 87.8359H244.648V111.227C244.648 111.898 244.727 112.422 244.883 112.797C245.039 113.156 245.305 113.414 245.68 113.57C246.07 113.711 246.586 113.781 247.227 113.781C247.68 113.781 248.055 113.773 248.352 113.758C248.648 113.727 248.93 113.688 249.195 113.641V119.289C248.523 119.508 247.82 119.672 247.086 119.781C246.352 119.906 245.57 119.969 244.742 119.969C243.055 119.969 241.609 119.703 240.406 119.172C239.219 118.641 238.312 117.805 237.688 116.664C237.062 115.523 236.75 114.039 236.75 112.211V87.8359ZM293.164 101.758V103.141C293.164 105.75 292.797 108.094 292.062 110.172C291.344 112.234 290.32 114 288.992 115.469C287.664 116.922 286.094 118.039 284.281 118.82C282.469 119.586 280.469 119.969 278.281 119.969C276.078 119.969 274.062 119.586 272.234 118.82C270.422 118.039 268.844 116.922 267.5 115.469C266.172 114 265.141 112.234 264.406 110.172C263.688 108.094 263.328 105.75 263.328 103.141V101.758C263.328 99.1484 263.688 96.8047 264.406 94.7266C265.141 92.6484 266.164 90.8828 267.477 89.4297C268.805 87.9609 270.375 86.8438 272.188 86.0781C274.016 85.2969 276.031 84.9062 278.234 84.9062C280.422 84.9062 282.422 85.2969 284.234 86.0781C286.062 86.8438 287.641 87.9609 288.969 89.4297C290.297 90.8828 291.328 92.6484 292.062 94.7266C292.797 96.8047 293.164 99.1484 293.164 101.758ZM284.82 103.141V101.711C284.82 100.023 284.672 98.5391 284.375 97.2578C284.094 95.9609 283.672 94.875 283.109 94C282.547 93.125 281.852 92.4688 281.023 92.0312C280.211 91.5781 279.281 91.3516 278.234 91.3516C277.141 91.3516 276.188 91.5781 275.375 92.0312C274.562 92.4688 273.883 93.125 273.336 94C272.789 94.875 272.375 95.9609 272.094 97.2578C271.828 98.5391 271.695 100.023 271.695 101.711V103.141C271.695 104.812 271.828 106.297 272.094 107.594C272.375 108.875 272.789 109.961 273.336 110.852C273.898 111.742 274.586 112.414 275.398 112.867C276.227 113.32 277.188 113.547 278.281 113.547C279.328 113.547 280.258 113.32 281.07 112.867C281.883 112.414 282.562 111.742 283.109 110.852C283.672 109.961 284.094 108.875 284.375 107.594C284.672 106.297 284.82 104.812 284.82 103.141ZM306.195 114.086L311.188 94.1406H319.508L311.211 119.5H306.289L306.195 114.086ZM303.242 94.1406L308.164 114.086L308.117 119.5H303.172L294.898 94.1406H303.242ZM333.805 119.969C331.742 119.969 329.898 119.648 328.273 119.008C326.648 118.352 325.273 117.453 324.148 116.312C323.039 115.172 322.188 113.859 321.594 112.375C321.016 110.891 320.727 109.32 320.727 107.664V106.773C320.727 104.914 320.984 103.195 321.5 101.617C322.016 100.023 322.781 98.6328 323.797 97.4453C324.812 96.2578 326.086 95.3359 327.617 94.6797C329.148 94.0078 330.93 93.6719 332.961 93.6719C334.758 93.6719 336.367 93.9609 337.789 94.5391C339.211 95.1172 340.414 95.9453 341.398 97.0234C342.398 98.1016 343.156 99.4062 343.672 100.938C344.203 102.469 344.469 104.188 344.469 106.094V109.305H323.75V104.359H336.758V103.75C336.773 102.906 336.625 102.188 336.312 101.594C336.016 101 335.578 100.547 335 100.234C334.422 99.9219 333.719 99.7656 332.891 99.7656C332.031 99.7656 331.32 99.9531 330.758 100.328C330.211 100.703 329.781 101.219 329.469 101.875C329.172 102.516 328.961 103.258 328.836 104.102C328.711 104.945 328.648 105.836 328.648 106.773V107.664C328.648 108.602 328.773 109.453 329.023 110.219C329.289 110.984 329.664 111.641 330.148 112.188C330.648 112.719 331.242 113.133 331.93 113.43C332.633 113.727 333.43 113.875 334.32 113.875C335.398 113.875 336.461 113.672 337.508 113.266C338.555 112.859 339.453 112.188 340.203 111.25L343.789 115.516C343.273 116.25 342.539 116.961 341.586 117.648C340.648 118.336 339.523 118.898 338.211 119.336C336.898 119.758 335.43 119.969 333.805 119.969ZM355.648 100.422V119.5H347.75V94.1406H355.133L355.648 100.422ZM363.148 93.9531L363.008 101.289C362.695 101.258 362.273 101.219 361.742 101.172C361.211 101.125 360.766 101.102 360.406 101.102C359.484 101.102 358.688 101.211 358.016 101.43C357.359 101.633 356.812 101.945 356.375 102.367C355.953 102.773 355.641 103.289 355.438 103.914C355.25 104.539 355.164 105.266 355.18 106.094L353.75 105.156C353.75 103.453 353.914 101.906 354.242 100.516C354.586 99.1094 355.07 97.8984 355.695 96.8828C356.32 95.8516 357.078 95.0625 357.969 94.5156C358.859 93.9531 359.859 93.6719 360.969 93.6719C361.359 93.6719 361.742 93.6953 362.117 93.7422C362.508 93.7891 362.852 93.8594 363.148 93.9531ZM375.43 114.086L380.422 94.1406H388.742L380.445 119.5H375.523L375.43 114.086ZM372.477 94.1406L377.398 114.086L377.352 119.5H372.406L364.133 94.1406H372.477ZM399.43 94.1406V119.5H391.508V94.1406H399.43ZM391.039 87.6016C391.039 86.4766 391.445 85.5547 392.258 84.8359C393.07 84.1172 394.125 83.7578 395.422 83.7578C396.719 83.7578 397.773 84.1172 398.586 84.8359C399.398 85.5547 399.805 86.4766 399.805 87.6016C399.805 88.7266 399.398 89.6484 398.586 90.3672C397.773 91.0859 396.719 91.4453 395.422 91.4453C394.125 91.4453 393.07 91.0859 392.258 90.3672C391.445 89.6484 391.039 88.7266 391.039 87.6016ZM416.586 119.969C414.523 119.969 412.68 119.648 411.055 119.008C409.43 118.352 408.055 117.453 406.93 116.312C405.82 115.172 404.969 113.859 404.375 112.375C403.797 110.891 403.508 109.32 403.508 107.664V106.773C403.508 104.914 403.766 103.195 404.281 101.617C404.797 100.023 405.562 98.6328 406.578 97.4453C407.594 96.2578 408.867 95.3359 410.398 94.6797C411.93 94.0078 413.711 93.6719 415.742 93.6719C417.539 93.6719 419.148 93.9609 420.57 94.5391C421.992 95.1172 423.195 95.9453 424.18 97.0234C425.18 98.1016 425.938 99.4062 426.453 100.938C426.984 102.469 427.25 104.188 427.25 106.094V109.305H406.531V104.359H419.539V103.75C419.555 102.906 419.406 102.188 419.094 101.594C418.797 101 418.359 100.547 417.781 100.234C417.203 99.9219 416.5 99.7656 415.672 99.7656C414.812 99.7656 414.102 99.9531 413.539 100.328C412.992 100.703 412.562 101.219 412.25 101.875C411.953 102.516 411.742 103.258 411.617 104.102C411.492 104.945 411.43 105.836 411.43 106.773V107.664C411.43 108.602 411.555 109.453 411.805 110.219C412.07 110.984 412.445 111.641 412.93 112.188C413.43 112.719 414.023 113.133 414.711 113.43C415.414 113.727 416.211 113.875 417.102 113.875C418.18 113.875 419.242 113.672 420.289 113.266C421.336 112.859 422.234 112.188 422.984 111.25L426.57 115.516C426.055 116.25 425.32 116.961 424.367 117.648C423.43 118.336 422.305 118.898 420.992 119.336C419.68 119.758 418.211 119.969 416.586 119.969ZM438.172 111.953L442.859 94.1406H447.805L446.047 103.07L441.406 119.5H437.445L438.172 111.953ZM436.32 94.1406L439.227 111.812L439.555 119.5H434.75L428.75 94.1406H436.32ZM451.977 111.438L454.906 94.1406H462.477L456.523 119.5H451.719L451.977 111.438ZM448.367 94.1406L453.102 111.906L453.828 119.5H449.82L445.273 103.117L443.586 94.1406H448.367Z" fill="black"/>
<path d="M1134.5 0.5H1348.5C1356.78 0.5 1363.5 7.21573 1363.5 15.5V148.5C1363.5 156.784 1356.78 163.5 1348.5 163.5H1134.5V0.5Z" fill="#091C25"/>
<path d="M1234.76 104.286H1263.24V109.857H1234.76V104.286ZM1240.46 115.429H1257.54V121H1240.46V115.429ZM1249 43C1241.45 43 1234.21 45.9349 1228.87 51.1592C1223.53 56.3834 1220.53 63.469 1220.53 70.8571C1220.34 74.9057 1221.13 78.9412 1222.84 82.6315C1224.55 86.3219 1227.14 89.5616 1230.38 92.0843C1233.23 94.675 1234.76 96.1514 1234.76 98.7143H1240.46C1240.46 93.5886 1237.3 90.7193 1234.22 87.9614C1231.56 85.9676 1229.44 83.3658 1228.05 80.3838C1226.65 77.4019 1226.03 74.1308 1226.22 70.8571C1226.22 64.9466 1228.62 59.2781 1232.89 55.0988C1237.17 50.9194 1242.96 48.5714 1249 48.5714C1255.04 48.5714 1260.83 50.9194 1265.11 55.0988C1269.38 59.2781 1271.78 64.9466 1271.78 70.8571C1271.97 74.1333 1271.34 77.4059 1269.94 80.388C1268.54 83.3701 1266.42 85.9706 1263.75 87.9614C1260.7 90.7471 1257.54 93.5329 1257.54 98.7143H1263.24C1263.24 96.1514 1264.75 94.675 1267.62 92.0564C1270.86 89.5381 1273.44 86.3031 1275.16 82.6176C1276.87 78.9321 1277.66 74.9014 1277.47 70.8571C1277.47 67.1989 1276.74 63.5765 1275.31 60.1967C1273.87 56.8169 1271.78 53.7459 1269.13 51.1592C1266.49 48.5724 1263.35 46.5205 1259.9 45.1205C1256.44 43.7205 1252.74 43 1249 43Z" fill="white"/>
</g>
<defs>
<clipPath id="clip0_1_2">
<rect width="1363" height="163" fill="white" transform="translate(0.5 0.5)"/>
</clipPath>
</defs>
</svg>
