<svg width="1363" height="163" viewBox="0 0 1363 163" fill="none" xmlns="http://www.w3.org/2000/svg">
<path d="M0 15C0 6.71573 6.71573 0 15 0H37V163H15C6.71573 163 0 156.284 0 148V15Z" fill="#424242"/>
<rect width="1097" height="163" transform="translate(37)" fill="#F0F0F0"/>
<path d="M108.41 43.9375V61H104.895L98.0391 49.5625V61H94.5234V43.9375H98.0391L104.906 55.3867V43.9375H108.41ZM118.758 57.9648V48.3203H122.133V61H118.957L118.758 57.9648ZM119.133 55.3633L120.129 55.3398C120.129 56.1836 120.031 56.9688 119.836 57.6953C119.641 58.4141 119.348 59.0391 118.957 59.5703C118.566 60.0938 118.074 60.5039 117.48 60.8008C116.887 61.0898 116.188 61.2344 115.383 61.2344C114.766 61.2344 114.195 61.1484 113.672 60.9766C113.156 60.7969 112.711 60.5195 112.336 60.1445C111.969 59.7617 111.68 59.2734 111.469 58.6797C111.266 58.0781 111.164 57.3555 111.164 56.5117V48.3203H114.539V56.5352C114.539 56.9102 114.582 57.2266 114.668 57.4844C114.762 57.7422 114.891 57.9531 115.055 58.1172C115.219 58.2812 115.41 58.3984 115.629 58.4688C115.855 58.5391 116.105 58.5742 116.379 58.5742C117.074 58.5742 117.621 58.4336 118.02 58.1523C118.426 57.8711 118.711 57.4883 118.875 57.0039C119.047 56.5117 119.133 55.9648 119.133 55.3633ZM139.781 56.5352C139.781 56.2305 139.734 55.957 139.641 55.7148C139.555 55.4648 139.391 55.2383 139.148 55.0352C138.906 54.8242 138.566 54.6172 138.129 54.4141C137.691 54.2109 137.125 54 136.43 53.7812C135.656 53.5312 134.922 53.25 134.227 52.9375C133.539 52.625 132.93 52.2617 132.398 51.8477C131.875 51.4258 131.461 50.9375 131.156 50.3828C130.859 49.8281 130.711 49.1836 130.711 48.4492C130.711 47.7383 130.867 47.0938 131.18 46.5156C131.492 45.9297 131.93 45.4297 132.492 45.0156C133.055 44.5938 133.719 44.2695 134.484 44.043C135.258 43.8164 136.105 43.7031 137.027 43.7031C138.285 43.7031 139.383 43.9297 140.32 44.3828C141.258 44.8359 141.984 45.457 142.5 46.2461C143.023 47.0352 143.285 47.9375 143.285 48.9531H139.793C139.793 48.4531 139.688 48.0156 139.477 47.6406C139.273 47.2578 138.961 46.957 138.539 46.7383C138.125 46.5195 137.602 46.4102 136.969 46.4102C136.359 46.4102 135.852 46.5039 135.445 46.6914C135.039 46.8711 134.734 47.1172 134.531 47.4297C134.328 47.7344 134.227 48.0781 134.227 48.4609C134.227 48.75 134.297 49.0117 134.438 49.2461C134.586 49.4805 134.805 49.6992 135.094 49.9023C135.383 50.1055 135.738 50.2969 136.16 50.4766C136.582 50.6562 137.07 50.832 137.625 51.0039C138.555 51.2852 139.371 51.6016 140.074 51.9531C140.785 52.3047 141.379 52.6992 141.855 53.1367C142.332 53.5742 142.691 54.0703 142.934 54.625C143.176 55.1797 143.297 55.8086 143.297 56.5117C143.297 57.2539 143.152 57.918 142.863 58.5039C142.574 59.0898 142.156 59.5859 141.609 59.9922C141.062 60.3984 140.41 60.707 139.652 60.918C138.895 61.1289 138.047 61.2344 137.109 61.2344C136.266 61.2344 135.434 61.125 134.613 60.9062C133.793 60.6797 133.047 60.3398 132.375 59.8867C131.711 59.4336 131.18 58.8555 130.781 58.1523C130.383 57.4492 130.184 56.6172 130.184 55.6562H133.711C133.711 56.1875 133.793 56.6367 133.957 57.0039C134.121 57.3711 134.352 57.668 134.648 57.8945C134.953 58.1211 135.312 58.2852 135.727 58.3867C136.148 58.4883 136.609 58.5391 137.109 58.5391C137.719 58.5391 138.219 58.4531 138.609 58.2812C139.008 58.1094 139.301 57.8711 139.488 57.5664C139.684 57.2617 139.781 56.918 139.781 56.5352ZM150.715 58.5977C151.129 58.5977 151.496 58.5195 151.816 58.3633C152.137 58.1992 152.387 57.9727 152.566 57.6836C152.754 57.3867 152.852 57.0391 152.859 56.6406H156.035C156.027 57.5312 155.789 58.3242 155.32 59.0195C154.852 59.707 154.223 60.25 153.434 60.6484C152.645 61.0391 151.762 61.2344 150.785 61.2344C149.801 61.2344 148.941 61.0703 148.207 60.7422C147.48 60.4141 146.875 59.9609 146.391 59.3828C145.906 58.7969 145.543 58.1172 145.301 57.3438C145.059 56.5625 144.938 55.7266 144.938 54.8359V54.4961C144.938 53.5977 145.059 52.7617 145.301 51.9883C145.543 51.207 145.906 50.5273 146.391 49.9492C146.875 49.3633 147.48 48.9062 148.207 48.5781C148.934 48.25 149.785 48.0859 150.762 48.0859C151.801 48.0859 152.711 48.2852 153.492 48.6836C154.281 49.082 154.898 49.6523 155.344 50.3945C155.797 51.1289 156.027 52 156.035 53.0078H152.859C152.852 52.5859 152.762 52.2031 152.59 51.8594C152.426 51.5156 152.184 51.2422 151.863 51.0391C151.551 50.8281 151.164 50.7227 150.703 50.7227C150.211 50.7227 149.809 50.8281 149.496 51.0391C149.184 51.2422 148.941 51.5234 148.77 51.8828C148.598 52.2344 148.477 52.6367 148.406 53.0898C148.344 53.5352 148.312 54.0039 148.312 54.4961V54.8359C148.312 55.3281 148.344 55.8008 148.406 56.2539C148.469 56.707 148.586 57.1094 148.758 57.4609C148.938 57.8125 149.184 58.0898 149.496 58.293C149.809 58.4961 150.215 58.5977 150.715 58.5977ZM164.836 58.1406V52.4922C164.836 52.0859 164.77 51.7383 164.637 51.4492C164.504 51.1523 164.297 50.9219 164.016 50.7578C163.742 50.5938 163.387 50.5117 162.949 50.5117C162.574 50.5117 162.25 50.5781 161.977 50.7109C161.703 50.8359 161.492 51.0195 161.344 51.2617C161.195 51.4961 161.121 51.7734 161.121 52.0938H157.746C157.746 51.5547 157.871 51.043 158.121 50.5586C158.371 50.0742 158.734 49.6484 159.211 49.2812C159.688 48.9062 160.254 48.6133 160.91 48.4023C161.574 48.1914 162.316 48.0859 163.137 48.0859C164.121 48.0859 164.996 48.25 165.762 48.5781C166.527 48.9062 167.129 49.3984 167.566 50.0547C168.012 50.7109 168.234 51.5312 168.234 52.5156V57.9414C168.234 58.6367 168.277 59.207 168.363 59.6523C168.449 60.0898 168.574 60.4727 168.738 60.8008V61H165.328C165.164 60.6562 165.039 60.2266 164.953 59.7109C164.875 59.1875 164.836 58.6641 164.836 58.1406ZM165.281 53.2773L165.305 55.1875H163.418C162.973 55.1875 162.586 55.2383 162.258 55.3398C161.93 55.4414 161.66 55.5859 161.449 55.7734C161.238 55.9531 161.082 56.1641 160.98 56.4062C160.887 56.6484 160.84 56.9141 160.84 57.2031C160.84 57.4922 160.906 57.7539 161.039 57.9883C161.172 58.2148 161.363 58.3945 161.613 58.5273C161.863 58.6523 162.156 58.7148 162.492 58.7148C163 58.7148 163.441 58.6133 163.816 58.4102C164.191 58.207 164.48 57.957 164.684 57.6602C164.895 57.3633 165.004 57.082 165.012 56.8164L165.902 58.2461C165.777 58.5664 165.605 58.8984 165.387 59.2422C165.176 59.5859 164.906 59.9102 164.578 60.2148C164.25 60.5117 163.855 60.7578 163.395 60.9531C162.934 61.1406 162.387 61.2344 161.754 61.2344C160.949 61.2344 160.219 61.0742 159.562 60.7539C158.914 60.4258 158.398 59.9766 158.016 59.4062C157.641 58.8281 157.453 58.1719 157.453 57.4375C157.453 56.7734 157.578 56.1836 157.828 55.668C158.078 55.1523 158.445 54.7188 158.93 54.3672C159.422 54.0078 160.035 53.7383 160.77 53.5586C161.504 53.3711 162.355 53.2773 163.324 53.2773H165.281ZM174.398 43V61H171.012V43H174.398ZM183.023 61.2344C182.039 61.2344 181.156 61.0781 180.375 60.7656C179.594 60.4453 178.93 60.0039 178.383 59.4414C177.844 58.8789 177.43 58.2266 177.141 57.4844C176.852 56.7344 176.707 55.9375 176.707 55.0938V54.625C176.707 53.6641 176.844 52.7852 177.117 51.9883C177.391 51.1914 177.781 50.5 178.289 49.9141C178.805 49.3281 179.43 48.8789 180.164 48.5664C180.898 48.2461 181.727 48.0859 182.648 48.0859C183.547 48.0859 184.344 48.2344 185.039 48.5312C185.734 48.8281 186.316 49.25 186.785 49.7969C187.262 50.3438 187.621 51 187.863 51.7656C188.105 52.5234 188.227 53.3672 188.227 54.2969V55.7031H178.148V53.4531H184.91V53.1953C184.91 52.7266 184.824 52.3086 184.652 51.9414C184.488 51.5664 184.238 51.2695 183.902 51.0508C183.566 50.832 183.137 50.7227 182.613 50.7227C182.168 50.7227 181.785 50.8203 181.465 51.0156C181.145 51.2109 180.883 51.4844 180.68 51.8359C180.484 52.1875 180.336 52.6016 180.234 53.0781C180.141 53.5469 180.094 54.0625 180.094 54.625V55.0938C180.094 55.6016 180.164 56.0703 180.305 56.5C180.453 56.9297 180.66 57.3008 180.926 57.6133C181.199 57.9258 181.527 58.168 181.91 58.3398C182.301 58.5117 182.742 58.5977 183.234 58.5977C183.844 58.5977 184.41 58.4805 184.934 58.2461C185.465 58.0039 185.922 57.6406 186.305 57.1562L187.945 58.9375C187.68 59.3203 187.316 59.6875 186.855 60.0391C186.402 60.3906 185.855 60.6797 185.215 60.9062C184.574 61.125 183.844 61.2344 183.023 61.2344ZM193.523 51.0859V61H190.148V48.3203H193.324L193.523 51.0859ZM197.344 48.2383L197.285 51.3672C197.121 51.3438 196.922 51.3242 196.688 51.3086C196.461 51.2852 196.254 51.2734 196.066 51.2734C195.59 51.2734 195.176 51.3359 194.824 51.4609C194.48 51.5781 194.191 51.7539 193.957 51.9883C193.73 52.2227 193.559 52.5078 193.441 52.8438C193.332 53.1797 193.27 53.5625 193.254 53.9922L192.574 53.7812C192.574 52.9609 192.656 52.207 192.82 51.5195C192.984 50.8242 193.223 50.2188 193.535 49.7031C193.855 49.1875 194.246 48.7891 194.707 48.5078C195.168 48.2266 195.695 48.0859 196.289 48.0859C196.477 48.0859 196.668 48.1016 196.863 48.1328C197.059 48.1562 197.219 48.1914 197.344 48.2383Z" fill="#888888"/>
<path d="M109.219 107.422H100.734V101.07H109.219C110.375 101.07 111.312 100.875 112.031 100.484C112.75 100.094 113.273 99.5547 113.602 98.8672C113.945 98.1641 114.117 97.375 114.117 96.5C114.117 95.5625 113.945 94.6953 113.602 93.8984C113.273 93.1016 112.75 92.4609 112.031 91.9766C111.312 91.4766 110.375 91.2266 109.219 91.2266H103.828V119H95.6016V84.875H109.219C111.953 84.875 114.305 85.375 116.273 86.375C118.258 87.375 119.781 88.75 120.844 90.5C121.906 92.2344 122.438 94.2188 122.438 96.4531C122.438 98.6562 121.906 100.578 120.844 102.219C119.781 103.859 118.258 105.141 116.273 106.062C114.305 106.969 111.953 107.422 109.219 107.422ZM134.461 99.9219V119H126.562V93.6406H133.945L134.461 99.9219ZM141.961 93.4531L141.82 100.789C141.508 100.758 141.086 100.719 140.555 100.672C140.023 100.625 139.578 100.602 139.219 100.602C138.297 100.602 137.5 100.711 136.828 100.93C136.172 101.133 135.625 101.445 135.188 101.867C134.766 102.273 134.453 102.789 134.25 103.414C134.062 104.039 133.977 104.766 133.992 105.594L132.562 104.656C132.562 102.953 132.727 101.406 133.055 100.016C133.398 98.6094 133.883 97.3984 134.508 96.3828C135.133 95.3516 135.891 94.5625 136.781 94.0156C137.672 93.4531 138.672 93.1719 139.781 93.1719C140.172 93.1719 140.555 93.1953 140.93 93.2422C141.32 93.2891 141.664 93.3594 141.961 93.4531ZM142.852 106.578V106.086C142.852 104.227 143.117 102.516 143.648 100.953C144.18 99.375 144.961 98.0078 145.992 96.8516C147.023 95.6953 148.297 94.7969 149.812 94.1562C151.328 93.5 153.078 93.1719 155.062 93.1719C157.062 93.1719 158.82 93.5 160.336 94.1562C161.867 94.7969 163.148 95.6953 164.18 96.8516C165.211 98.0078 165.992 99.375 166.523 100.953C167.055 102.516 167.32 104.227 167.32 106.086V106.578C167.32 108.422 167.055 110.133 166.523 111.711C165.992 113.273 165.211 114.641 164.18 115.812C163.148 116.969 161.875 117.867 160.359 118.508C158.844 119.148 157.094 119.469 155.109 119.469C153.125 119.469 151.367 119.148 149.836 118.508C148.305 117.867 147.023 116.969 145.992 115.812C144.961 114.641 144.18 113.273 143.648 111.711C143.117 110.133 142.852 108.422 142.852 106.578ZM150.75 106.086V106.578C150.75 107.531 150.82 108.422 150.961 109.25C151.102 110.078 151.336 110.805 151.664 111.43C151.992 112.039 152.438 112.516 153 112.859C153.562 113.203 154.266 113.375 155.109 113.375C155.938 113.375 156.625 113.203 157.172 112.859C157.734 112.516 158.18 112.039 158.508 111.43C158.836 110.805 159.07 110.078 159.211 109.25C159.352 108.422 159.422 107.531 159.422 106.578V106.086C159.422 105.164 159.352 104.297 159.211 103.484C159.07 102.656 158.836 101.93 158.508 101.305C158.18 100.664 157.734 100.164 157.172 99.8047C156.609 99.4453 155.906 99.2656 155.062 99.2656C154.234 99.2656 153.539 99.4453 152.977 99.8047C152.43 100.164 151.992 100.664 151.664 101.305C151.336 101.93 151.102 102.656 150.961 103.484C150.82 104.297 150.75 105.164 150.75 106.086ZM171.422 93.6406H179.344V119.82C179.344 121.852 178.953 123.562 178.172 124.953C177.391 126.359 176.273 127.422 174.82 128.141C173.367 128.875 171.633 129.242 169.617 129.242C168.945 129.242 168.328 129.211 167.766 129.148C167.188 129.102 166.555 129 165.867 128.844V122.867C166.273 122.93 166.648 122.977 166.992 123.008C167.336 123.055 167.711 123.078 168.117 123.078C168.836 123.078 169.438 122.961 169.922 122.727C170.406 122.492 170.773 122.133 171.023 121.648C171.289 121.164 171.422 120.555 171.422 119.82V93.6406ZM170.836 87.1016C170.836 85.9766 171.242 85.0547 172.055 84.3359C172.867 83.6172 173.922 83.2578 175.219 83.2578C176.516 83.2578 177.57 83.6172 178.383 84.3359C179.195 85.0547 179.602 85.9766 179.602 87.1016C179.602 88.2266 179.195 89.1484 178.383 89.8672C177.57 90.5859 176.516 90.9453 175.219 90.9453C173.922 90.9453 172.867 90.5859 172.055 89.8672C171.242 89.1484 170.836 88.2266 170.836 87.1016ZM196.102 119.469C194.039 119.469 192.195 119.148 190.57 118.508C188.945 117.852 187.57 116.953 186.445 115.812C185.336 114.672 184.484 113.359 183.891 111.875C183.312 110.391 183.023 108.82 183.023 107.164V106.273C183.023 104.414 183.281 102.695 183.797 101.117C184.312 99.5234 185.078 98.1328 186.094 96.9453C187.109 95.7578 188.383 94.8359 189.914 94.1797C191.445 93.5078 193.227 93.1719 195.258 93.1719C197.055 93.1719 198.664 93.4609 200.086 94.0391C201.508 94.6172 202.711 95.4453 203.695 96.5234C204.695 97.6016 205.453 98.9062 205.969 100.438C206.5 101.969 206.766 103.688 206.766 105.594V108.805H186.047V103.859H199.055V103.25C199.07 102.406 198.922 101.688 198.609 101.094C198.312 100.5 197.875 100.047 197.297 99.7344C196.719 99.4219 196.016 99.2656 195.188 99.2656C194.328 99.2656 193.617 99.4531 193.055 99.8281C192.508 100.203 192.078 100.719 191.766 101.375C191.469 102.016 191.258 102.758 191.133 103.602C191.008 104.445 190.945 105.336 190.945 106.273V107.164C190.945 108.102 191.07 108.953 191.32 109.719C191.586 110.484 191.961 111.141 192.445 111.688C192.945 112.219 193.539 112.633 194.227 112.93C194.93 113.227 195.727 113.375 196.617 113.375C197.695 113.375 198.758 113.172 199.805 112.766C200.852 112.359 201.75 111.688 202.5 110.75L206.086 115.016C205.57 115.75 204.836 116.461 203.883 117.148C202.945 117.836 201.82 118.398 200.508 118.836C199.195 119.258 197.727 119.469 196.102 119.469ZM220.688 113.375C221.422 113.375 222.047 113.242 222.562 112.977C223.094 112.695 223.492 112.305 223.758 111.805C224.039 111.289 224.172 110.672 224.156 109.953H231.586C231.602 111.859 231.133 113.531 230.18 114.969C229.242 116.391 227.961 117.5 226.336 118.297C224.727 119.078 222.906 119.469 220.875 119.469C218.891 119.469 217.156 119.148 215.672 118.508C214.188 117.852 212.945 116.945 211.945 115.789C210.961 114.617 210.219 113.25 209.719 111.688C209.234 110.125 208.992 108.43 208.992 106.602V106.062C208.992 104.234 209.234 102.539 209.719 100.977C210.219 99.3984 210.961 98.0312 211.945 96.875C212.945 95.7031 214.18 94.7969 215.648 94.1562C217.133 93.5 218.859 93.1719 220.828 93.1719C222.938 93.1719 224.797 93.5703 226.406 94.3672C228.031 95.1641 229.305 96.3203 230.227 97.8359C231.148 99.3516 231.602 101.188 231.586 103.344H224.156C224.172 102.578 224.055 101.891 223.805 101.281C223.555 100.672 223.164 100.188 222.633 99.8281C222.117 99.4531 221.453 99.2656 220.641 99.2656C219.828 99.2656 219.172 99.4453 218.672 99.8047C218.172 100.164 217.789 100.664 217.523 101.305C217.273 101.93 217.102 102.648 217.008 103.461C216.93 104.273 216.891 105.141 216.891 106.062V106.602C216.891 107.539 216.93 108.422 217.008 109.25C217.102 110.062 217.281 110.781 217.547 111.406C217.812 112.016 218.195 112.5 218.695 112.859C219.195 113.203 219.859 113.375 220.688 113.375ZM248.32 93.6406V99.125H233.039V93.6406H248.32ZM236.25 87.3359H244.148V110.727C244.148 111.398 244.227 111.922 244.383 112.297C244.539 112.656 244.805 112.914 245.18 113.07C245.57 113.211 246.086 113.281 246.727 113.281C247.18 113.281 247.555 113.273 247.852 113.258C248.148 113.227 248.43 113.188 248.695 113.141V118.789C248.023 119.008 247.32 119.172 246.586 119.281C245.852 119.406 245.07 119.469 244.242 119.469C242.555 119.469 241.109 119.203 239.906 118.672C238.719 118.141 237.812 117.305 237.188 116.164C236.562 115.023 236.25 113.539 236.25 111.711V87.3359ZM292.664 101.258V102.641C292.664 105.25 292.297 107.594 291.562 109.672C290.844 111.734 289.82 113.5 288.492 114.969C287.164 116.422 285.594 117.539 283.781 118.32C281.969 119.086 279.969 119.469 277.781 119.469C275.578 119.469 273.562 119.086 271.734 118.32C269.922 117.539 268.344 116.422 267 114.969C265.672 113.5 264.641 111.734 263.906 109.672C263.188 107.594 262.828 105.25 262.828 102.641V101.258C262.828 98.6484 263.188 96.3047 263.906 94.2266C264.641 92.1484 265.664 90.3828 266.977 88.9297C268.305 87.4609 269.875 86.3438 271.688 85.5781C273.516 84.7969 275.531 84.4062 277.734 84.4062C279.922 84.4062 281.922 84.7969 283.734 85.5781C285.562 86.3438 287.141 87.4609 288.469 88.9297C289.797 90.3828 290.828 92.1484 291.562 94.2266C292.297 96.3047 292.664 98.6484 292.664 101.258ZM284.32 102.641V101.211C284.32 99.5234 284.172 98.0391 283.875 96.7578C283.594 95.4609 283.172 94.375 282.609 93.5C282.047 92.625 281.352 91.9688 280.523 91.5312C279.711 91.0781 278.781 90.8516 277.734 90.8516C276.641 90.8516 275.688 91.0781 274.875 91.5312C274.062 91.9688 273.383 92.625 272.836 93.5C272.289 94.375 271.875 95.4609 271.594 96.7578C271.328 98.0391 271.195 99.5234 271.195 101.211V102.641C271.195 104.312 271.328 105.797 271.594 107.094C271.875 108.375 272.289 109.461 272.836 110.352C273.398 111.242 274.086 111.914 274.898 112.367C275.727 112.82 276.688 113.047 277.781 113.047C278.828 113.047 279.758 112.82 280.57 112.367C281.383 111.914 282.062 111.242 282.609 110.352C283.172 109.461 283.594 108.375 283.875 107.094C284.172 105.797 284.32 104.312 284.32 102.641ZM305.695 113.586L310.688 93.6406H319.008L310.711 119H305.789L305.695 113.586ZM302.742 93.6406L307.664 113.586L307.617 119H302.672L294.398 93.6406H302.742ZM333.305 119.469C331.242 119.469 329.398 119.148 327.773 118.508C326.148 117.852 324.773 116.953 323.648 115.812C322.539 114.672 321.688 113.359 321.094 111.875C320.516 110.391 320.227 108.82 320.227 107.164V106.273C320.227 104.414 320.484 102.695 321 101.117C321.516 99.5234 322.281 98.1328 323.297 96.9453C324.312 95.7578 325.586 94.8359 327.117 94.1797C328.648 93.5078 330.43 93.1719 332.461 93.1719C334.258 93.1719 335.867 93.4609 337.289 94.0391C338.711 94.6172 339.914 95.4453 340.898 96.5234C341.898 97.6016 342.656 98.9062 343.172 100.438C343.703 101.969 343.969 103.688 343.969 105.594V108.805H323.25V103.859H336.258V103.25C336.273 102.406 336.125 101.688 335.812 101.094C335.516 100.5 335.078 100.047 334.5 99.7344C333.922 99.4219 333.219 99.2656 332.391 99.2656C331.531 99.2656 330.82 99.4531 330.258 99.8281C329.711 100.203 329.281 100.719 328.969 101.375C328.672 102.016 328.461 102.758 328.336 103.602C328.211 104.445 328.148 105.336 328.148 106.273V107.164C328.148 108.102 328.273 108.953 328.523 109.719C328.789 110.484 329.164 111.141 329.648 111.688C330.148 112.219 330.742 112.633 331.43 112.93C332.133 113.227 332.93 113.375 333.82 113.375C334.898 113.375 335.961 113.172 337.008 112.766C338.055 112.359 338.953 111.688 339.703 110.75L343.289 115.016C342.773 115.75 342.039 116.461 341.086 117.148C340.148 117.836 339.023 118.398 337.711 118.836C336.398 119.258 334.93 119.469 333.305 119.469ZM355.148 99.9219V119H347.25V93.6406H354.633L355.148 99.9219ZM362.648 93.4531L362.508 100.789C362.195 100.758 361.773 100.719 361.242 100.672C360.711 100.625 360.266 100.602 359.906 100.602C358.984 100.602 358.188 100.711 357.516 100.93C356.859 101.133 356.312 101.445 355.875 101.867C355.453 102.273 355.141 102.789 354.938 103.414C354.75 104.039 354.664 104.766 354.68 105.594L353.25 104.656C353.25 102.953 353.414 101.406 353.742 100.016C354.086 98.6094 354.57 97.3984 355.195 96.3828C355.82 95.3516 356.578 94.5625 357.469 94.0156C358.359 93.4531 359.359 93.1719 360.469 93.1719C360.859 93.1719 361.242 93.1953 361.617 93.2422C362.008 93.2891 362.352 93.3594 362.648 93.4531ZM374.93 113.586L379.922 93.6406H388.242L379.945 119H375.023L374.93 113.586ZM371.977 93.6406L376.898 113.586L376.852 119H371.906L363.633 93.6406H371.977ZM398.93 93.6406V119H391.008V93.6406H398.93ZM390.539 87.1016C390.539 85.9766 390.945 85.0547 391.758 84.3359C392.57 83.6172 393.625 83.2578 394.922 83.2578C396.219 83.2578 397.273 83.6172 398.086 84.3359C398.898 85.0547 399.305 85.9766 399.305 87.1016C399.305 88.2266 398.898 89.1484 398.086 89.8672C397.273 90.5859 396.219 90.9453 394.922 90.9453C393.625 90.9453 392.57 90.5859 391.758 89.8672C390.945 89.1484 390.539 88.2266 390.539 87.1016ZM416.086 119.469C414.023 119.469 412.18 119.148 410.555 118.508C408.93 117.852 407.555 116.953 406.43 115.812C405.32 114.672 404.469 113.359 403.875 111.875C403.297 110.391 403.008 108.82 403.008 107.164V106.273C403.008 104.414 403.266 102.695 403.781 101.117C404.297 99.5234 405.062 98.1328 406.078 96.9453C407.094 95.7578 408.367 94.8359 409.898 94.1797C411.43 93.5078 413.211 93.1719 415.242 93.1719C417.039 93.1719 418.648 93.4609 420.07 94.0391C421.492 94.6172 422.695 95.4453 423.68 96.5234C424.68 97.6016 425.438 98.9062 425.953 100.438C426.484 101.969 426.75 103.688 426.75 105.594V108.805H406.031V103.859H419.039V103.25C419.055 102.406 418.906 101.688 418.594 101.094C418.297 100.5 417.859 100.047 417.281 99.7344C416.703 99.4219 416 99.2656 415.172 99.2656C414.312 99.2656 413.602 99.4531 413.039 99.8281C412.492 100.203 412.062 100.719 411.75 101.375C411.453 102.016 411.242 102.758 411.117 103.602C410.992 104.445 410.93 105.336 410.93 106.273V107.164C410.93 108.102 411.055 108.953 411.305 109.719C411.57 110.484 411.945 111.141 412.43 111.688C412.93 112.219 413.523 112.633 414.211 112.93C414.914 113.227 415.711 113.375 416.602 113.375C417.68 113.375 418.742 113.172 419.789 112.766C420.836 112.359 421.734 111.688 422.484 110.75L426.07 115.016C425.555 115.75 424.82 116.461 423.867 117.148C422.93 117.836 421.805 118.398 420.492 118.836C419.18 119.258 417.711 119.469 416.086 119.469ZM437.672 111.453L442.359 93.6406H447.305L445.547 102.57L440.906 119H436.945L437.672 111.453ZM435.82 93.6406L438.727 111.312L439.055 119H434.25L428.25 93.6406H435.82ZM451.477 110.938L454.406 93.6406H461.977L456.023 119H451.219L451.477 110.938ZM447.867 93.6406L452.602 111.406L453.328 119H449.32L444.773 102.617L443.086 93.6406H447.867Z" fill="black"/>
<path d="M1134 0H1348C1356.28 0 1363 6.71573 1363 15V148C1363 156.284 1356.28 163 1348 163H1134V0Z" fill="#505357"/>
<path d="M1234.26 103.786H1262.74V109.357H1234.26V103.786ZM1239.96 114.929H1257.04V120.5H1239.96V114.929ZM1248.5 42.5C1240.95 42.5 1233.71 45.4349 1228.37 50.6592C1223.03 55.8834 1220.03 62.969 1220.03 70.3571C1219.84 74.4057 1220.63 78.4412 1222.34 82.1315C1224.05 85.8219 1226.64 89.0616 1229.88 91.5843C1232.73 94.175 1234.26 95.6514 1234.26 98.2143H1239.96C1239.96 93.0886 1236.8 90.2193 1233.72 87.4614C1231.06 85.4676 1228.94 82.8658 1227.55 79.8838C1226.15 76.9019 1225.53 73.6308 1225.72 70.3571C1225.72 64.4466 1228.12 58.7781 1232.39 54.5988C1236.67 50.4194 1242.46 48.0714 1248.5 48.0714C1254.54 48.0714 1260.33 50.4194 1264.61 54.5988C1268.88 58.7781 1271.28 64.4466 1271.28 70.3571C1271.47 73.6333 1270.84 76.9059 1269.44 79.888C1268.04 82.8701 1265.92 85.4706 1263.25 87.4614C1260.2 90.2471 1257.04 93.0329 1257.04 98.2143H1262.74C1262.74 95.6514 1264.25 94.175 1267.12 91.5564C1270.36 89.0381 1272.94 85.8031 1274.66 82.1176C1276.37 78.4321 1277.16 74.4014 1276.97 70.3571C1276.97 66.6989 1276.24 63.0765 1274.81 59.6967C1273.37 56.3169 1271.28 53.2459 1268.63 50.6592C1265.99 48.0724 1262.85 46.0205 1259.4 44.6205C1255.94 43.2205 1252.24 42.5 1248.5 42.5Z" fill="white"/>
</svg>
