<svg width="1363" height="163" viewBox="0 0 1363 163" fill="none" xmlns="http://www.w3.org/2000/svg">
<path d="M0 15C0 6.71573 6.71573 0 15 0H37V163H15C6.71573 163 0 156.284 0 148V15Z" fill="#424242"/>
<rect width="1097" height="163" transform="translate(37)" fill="#F0F0F0"/>
<path d="M108.41 43.9375V61H104.895L98.0391 49.5625V61H94.5234V43.9375H98.0391L104.906 55.3867V43.9375H108.41ZM118.758 57.9648V48.3203H122.133V61H118.957L118.758 57.9648ZM119.133 55.3633L120.129 55.3398C120.129 56.1836 120.031 56.9688 119.836 57.6953C119.641 58.4141 119.348 59.0391 118.957 59.5703C118.566 60.0938 118.074 60.5039 117.48 60.8008C116.887 61.0898 116.188 61.2344 115.383 61.2344C114.766 61.2344 114.195 61.1484 113.672 60.9766C113.156 60.7969 112.711 60.5195 112.336 60.1445C111.969 59.7617 111.68 59.2734 111.469 58.6797C111.266 58.0781 111.164 57.3555 111.164 56.5117V48.3203H114.539V56.5352C114.539 56.9102 114.582 57.2266 114.668 57.4844C114.762 57.7422 114.891 57.9531 115.055 58.1172C115.219 58.2812 115.41 58.3984 115.629 58.4688C115.855 58.5391 116.105 58.5742 116.379 58.5742C117.074 58.5742 117.621 58.4336 118.02 58.1523C118.426 57.8711 118.711 57.4883 118.875 57.0039C119.047 56.5117 119.133 55.9648 119.133 55.3633ZM139.781 56.5352C139.781 56.2305 139.734 55.957 139.641 55.7148C139.555 55.4648 139.391 55.2383 139.148 55.0352C138.906 54.8242 138.566 54.6172 138.129 54.4141C137.691 54.2109 137.125 54 136.43 53.7812C135.656 53.5312 134.922 53.25 134.227 52.9375C133.539 52.625 132.93 52.2617 132.398 51.8477C131.875 51.4258 131.461 50.9375 131.156 50.3828C130.859 49.8281 130.711 49.1836 130.711 48.4492C130.711 47.7383 130.867 47.0938 131.18 46.5156C131.492 45.9297 131.93 45.4297 132.492 45.0156C133.055 44.5938 133.719 44.2695 134.484 44.043C135.258 43.8164 136.105 43.7031 137.027 43.7031C138.285 43.7031 139.383 43.9297 140.32 44.3828C141.258 44.8359 141.984 45.457 142.5 46.2461C143.023 47.0352 143.285 47.9375 143.285 48.9531H139.793C139.793 48.4531 139.688 48.0156 139.477 47.6406C139.273 47.2578 138.961 46.957 138.539 46.7383C138.125 46.5195 137.602 46.4102 136.969 46.4102C136.359 46.4102 135.852 46.5039 135.445 46.6914C135.039 46.8711 134.734 47.1172 134.531 47.4297C134.328 47.7344 134.227 48.0781 134.227 48.4609C134.227 48.75 134.297 49.0117 134.438 49.2461C134.586 49.4805 134.805 49.6992 135.094 49.9023C135.383 50.1055 135.738 50.2969 136.16 50.4766C136.582 50.6562 137.07 50.832 137.625 51.0039C138.555 51.2852 139.371 51.6016 140.074 51.9531C140.785 52.3047 141.379 52.6992 141.855 53.1367C142.332 53.5742 142.691 54.0703 142.934 54.625C143.176 55.1797 143.297 55.8086 143.297 56.5117C143.297 57.2539 143.152 57.918 142.863 58.5039C142.574 59.0898 142.156 59.5859 141.609 59.9922C141.062 60.3984 140.41 60.707 139.652 60.918C138.895 61.1289 138.047 61.2344 137.109 61.2344C136.266 61.2344 135.434 61.125 134.613 60.9062C133.793 60.6797 133.047 60.3398 132.375 59.8867C131.711 59.4336 131.18 58.8555 130.781 58.1523C130.383 57.4492 130.184 56.6172 130.184 55.6562H133.711C133.711 56.1875 133.793 56.6367 133.957 57.0039C134.121 57.3711 134.352 57.668 134.648 57.8945C134.953 58.1211 135.312 58.2852 135.727 58.3867C136.148 58.4883 136.609 58.5391 137.109 58.5391C137.719 58.5391 138.219 58.4531 138.609 58.2812C139.008 58.1094 139.301 57.8711 139.488 57.5664C139.684 57.2617 139.781 56.918 139.781 56.5352ZM150.715 58.5977C151.129 58.5977 151.496 58.5195 151.816 58.3633C152.137 58.1992 152.387 57.9727 152.566 57.6836C152.754 57.3867 152.852 57.0391 152.859 56.6406H156.035C156.027 57.5312 155.789 58.3242 155.32 59.0195C154.852 59.707 154.223 60.25 153.434 60.6484C152.645 61.0391 151.762 61.2344 150.785 61.2344C149.801 61.2344 148.941 61.0703 148.207 60.7422C147.48 60.4141 146.875 59.9609 146.391 59.3828C145.906 58.7969 145.543 58.1172 145.301 57.3438C145.059 56.5625 144.938 55.7266 144.938 54.8359V54.4961C144.938 53.5977 145.059 52.7617 145.301 51.9883C145.543 51.207 145.906 50.5273 146.391 49.9492C146.875 49.3633 147.48 48.9062 148.207 48.5781C148.934 48.25 149.785 48.0859 150.762 48.0859C151.801 48.0859 152.711 48.2852 153.492 48.6836C154.281 49.082 154.898 49.6523 155.344 50.3945C155.797 51.1289 156.027 52 156.035 53.0078H152.859C152.852 52.5859 152.762 52.2031 152.59 51.8594C152.426 51.5156 152.184 51.2422 151.863 51.0391C151.551 50.8281 151.164 50.7227 150.703 50.7227C150.211 50.7227 149.809 50.8281 149.496 51.0391C149.184 51.2422 148.941 51.5234 148.77 51.8828C148.598 52.2344 148.477 52.6367 148.406 53.0898C148.344 53.5352 148.312 54.0039 148.312 54.4961V54.8359C148.312 55.3281 148.344 55.8008 148.406 56.2539C148.469 56.707 148.586 57.1094 148.758 57.4609C148.938 57.8125 149.184 58.0898 149.496 58.293C149.809 58.4961 150.215 58.5977 150.715 58.5977ZM164.836 58.1406V52.4922C164.836 52.0859 164.77 51.7383 164.637 51.4492C164.504 51.1523 164.297 50.9219 164.016 50.7578C163.742 50.5938 163.387 50.5117 162.949 50.5117C162.574 50.5117 162.25 50.5781 161.977 50.7109C161.703 50.8359 161.492 51.0195 161.344 51.2617C161.195 51.4961 161.121 51.7734 161.121 52.0938H157.746C157.746 51.5547 157.871 51.043 158.121 50.5586C158.371 50.0742 158.734 49.6484 159.211 49.2812C159.688 48.9062 160.254 48.6133 160.91 48.4023C161.574 48.1914 162.316 48.0859 163.137 48.0859C164.121 48.0859 164.996 48.25 165.762 48.5781C166.527 48.9062 167.129 49.3984 167.566 50.0547C168.012 50.7109 168.234 51.5312 168.234 52.5156V57.9414C168.234 58.6367 168.277 59.207 168.363 59.6523C168.449 60.0898 168.574 60.4727 168.738 60.8008V61H165.328C165.164 60.6562 165.039 60.2266 164.953 59.7109C164.875 59.1875 164.836 58.6641 164.836 58.1406ZM165.281 53.2773L165.305 55.1875H163.418C162.973 55.1875 162.586 55.2383 162.258 55.3398C161.93 55.4414 161.66 55.5859 161.449 55.7734C161.238 55.9531 161.082 56.1641 160.98 56.4062C160.887 56.6484 160.84 56.9141 160.84 57.2031C160.84 57.4922 160.906 57.7539 161.039 57.9883C161.172 58.2148 161.363 58.3945 161.613 58.5273C161.863 58.6523 162.156 58.7148 162.492 58.7148C163 58.7148 163.441 58.6133 163.816 58.4102C164.191 58.207 164.48 57.957 164.684 57.6602C164.895 57.3633 165.004 57.082 165.012 56.8164L165.902 58.2461C165.777 58.5664 165.605 58.8984 165.387 59.2422C165.176 59.5859 164.906 59.9102 164.578 60.2148C164.25 60.5117 163.855 60.7578 163.395 60.9531C162.934 61.1406 162.387 61.2344 161.754 61.2344C160.949 61.2344 160.219 61.0742 159.562 60.7539C158.914 60.4258 158.398 59.9766 158.016 59.4062C157.641 58.8281 157.453 58.1719 157.453 57.4375C157.453 56.7734 157.578 56.1836 157.828 55.668C158.078 55.1523 158.445 54.7188 158.93 54.3672C159.422 54.0078 160.035 53.7383 160.77 53.5586C161.504 53.3711 162.355 53.2773 163.324 53.2773H165.281ZM174.398 43V61H171.012V43H174.398ZM183.023 61.2344C182.039 61.2344 181.156 61.0781 180.375 60.7656C179.594 60.4453 178.93 60.0039 178.383 59.4414C177.844 58.8789 177.43 58.2266 177.141 57.4844C176.852 56.7344 176.707 55.9375 176.707 55.0938V54.625C176.707 53.6641 176.844 52.7852 177.117 51.9883C177.391 51.1914 177.781 50.5 178.289 49.9141C178.805 49.3281 179.43 48.8789 180.164 48.5664C180.898 48.2461 181.727 48.0859 182.648 48.0859C183.547 48.0859 184.344 48.2344 185.039 48.5312C185.734 48.8281 186.316 49.25 186.785 49.7969C187.262 50.3438 187.621 51 187.863 51.7656C188.105 52.5234 188.227 53.3672 188.227 54.2969V55.7031H178.148V53.4531H184.91V53.1953C184.91 52.7266 184.824 52.3086 184.652 51.9414C184.488 51.5664 184.238 51.2695 183.902 51.0508C183.566 50.832 183.137 50.7227 182.613 50.7227C182.168 50.7227 181.785 50.8203 181.465 51.0156C181.145 51.2109 180.883 51.4844 180.68 51.8359C180.484 52.1875 180.336 52.6016 180.234 53.0781C180.141 53.5469 180.094 54.0625 180.094 54.625V55.0938C180.094 55.6016 180.164 56.0703 180.305 56.5C180.453 56.9297 180.66 57.3008 180.926 57.6133C181.199 57.9258 181.527 58.168 181.91 58.3398C182.301 58.5117 182.742 58.5977 183.234 58.5977C183.844 58.5977 184.41 58.4805 184.934 58.2461C185.465 58.0039 185.922 57.6406 186.305 57.1562L187.945 58.9375C187.68 59.3203 187.316 59.6875 186.855 60.0391C186.402 60.3906 185.855 60.6797 185.215 60.9062C184.574 61.125 183.844 61.2344 183.023 61.2344ZM193.523 51.0859V61H190.148V48.3203H193.324L193.523 51.0859ZM197.344 48.2383L197.285 51.3672C197.121 51.3438 196.922 51.3242 196.688 51.3086C196.461 51.2852 196.254 51.2734 196.066 51.2734C195.59 51.2734 195.176 51.3359 194.824 51.4609C194.48 51.5781 194.191 51.7539 193.957 51.9883C193.73 52.2227 193.559 52.5078 193.441 52.8438C193.332 53.1797 193.27 53.5625 193.254 53.9922L192.574 53.7812C192.574 52.9609 192.656 52.207 192.82 51.5195C192.984 50.8242 193.223 50.2188 193.535 49.7031C193.855 49.1875 194.246 48.7891 194.707 48.5078C195.168 48.2266 195.695 48.0859 196.289 48.0859C196.477 48.0859 196.668 48.1016 196.863 48.1328C197.059 48.1562 197.219 48.1914 197.344 48.2383Z" fill="#888888"/>
<path d="M106.688 119H99.1172L99.1641 112.672H106.688C108.25 112.672 109.57 112.297 110.648 111.547C111.742 110.797 112.57 109.68 113.133 108.195C113.711 106.695 114 104.852 114 102.664V101.188C114 99.5469 113.836 98.1094 113.508 96.875C113.195 95.625 112.727 94.5859 112.102 93.7578C111.477 92.9141 110.695 92.2812 109.758 91.8594C108.836 91.4375 107.773 91.2266 106.57 91.2266H98.9766V84.875H106.57C108.883 84.875 111 85.2734 112.922 86.0703C114.859 86.8516 116.531 87.9766 117.938 89.4453C119.359 90.8984 120.453 92.625 121.219 94.625C122 96.6094 122.391 98.8125 122.391 101.234V102.664C122.391 105.07 122 107.273 121.219 109.273C120.453 111.273 119.367 113 117.961 114.453C116.555 115.906 114.891 117.031 112.969 117.828C111.062 118.609 108.969 119 106.688 119ZM103.828 84.875V119H95.6016V84.875H103.828ZM138.586 119.469C136.523 119.469 134.68 119.148 133.055 118.508C131.43 117.852 130.055 116.953 128.93 115.812C127.82 114.672 126.969 113.359 126.375 111.875C125.797 110.391 125.508 108.82 125.508 107.164V106.273C125.508 104.414 125.766 102.695 126.281 101.117C126.797 99.5234 127.562 98.1328 128.578 96.9453C129.594 95.7578 130.867 94.8359 132.398 94.1797C133.93 93.5078 135.711 93.1719 137.742 93.1719C139.539 93.1719 141.148 93.4609 142.57 94.0391C143.992 94.6172 145.195 95.4453 146.18 96.5234C147.18 97.6016 147.938 98.9062 148.453 100.438C148.984 101.969 149.25 103.688 149.25 105.594V108.805H128.531V103.859H141.539V103.25C141.555 102.406 141.406 101.688 141.094 101.094C140.797 100.5 140.359 100.047 139.781 99.7344C139.203 99.4219 138.5 99.2656 137.672 99.2656C136.812 99.2656 136.102 99.4531 135.539 99.8281C134.992 100.203 134.562 100.719 134.25 101.375C133.953 102.016 133.742 102.758 133.617 103.602C133.492 104.445 133.43 105.336 133.43 106.273V107.164C133.43 108.102 133.555 108.953 133.805 109.719C134.07 110.484 134.445 111.141 134.93 111.688C135.43 112.219 136.023 112.633 136.711 112.93C137.414 113.227 138.211 113.375 139.102 113.375C140.18 113.375 141.242 113.172 142.289 112.766C143.336 112.359 144.234 111.688 144.984 110.75L148.57 115.016C148.055 115.75 147.32 116.461 146.367 117.148C145.43 117.836 144.305 118.398 142.992 118.836C141.68 119.258 140.211 119.469 138.586 119.469ZM160.43 99.0078V119H152.531V93.6406H159.938L160.43 99.0078ZM159.469 105.453L157.664 105.5C157.664 103.719 157.875 102.078 158.297 100.578C158.719 99.0781 159.344 97.7734 160.172 96.6641C161 95.5547 162.016 94.6953 163.219 94.0859C164.438 93.4766 165.844 93.1719 167.438 93.1719C168.547 93.1719 169.555 93.3438 170.461 93.6875C171.367 94.0156 172.148 94.5391 172.805 95.2578C173.461 95.9609 173.961 96.8828 174.305 98.0234C174.664 99.1484 174.844 100.5 174.844 102.078V119H166.945V103.086C166.945 102.008 166.82 101.195 166.57 100.648C166.336 100.102 165.992 99.7344 165.539 99.5469C165.086 99.3594 164.531 99.2656 163.875 99.2656C163.188 99.2656 162.57 99.4219 162.023 99.7344C161.477 100.047 161.008 100.484 160.617 101.047C160.242 101.594 159.953 102.242 159.75 102.992C159.562 103.742 159.469 104.562 159.469 105.453ZM173.953 105.453L171.75 105.5C171.75 103.719 171.945 102.078 172.336 100.578C172.742 99.0781 173.344 97.7734 174.141 96.6641C174.953 95.5547 175.961 94.6953 177.164 94.0859C178.367 93.4766 179.766 93.1719 181.359 93.1719C182.516 93.1719 183.578 93.3438 184.547 93.6875C185.516 94.0312 186.352 94.5859 187.055 95.3516C187.758 96.1172 188.305 97.1328 188.695 98.3984C189.086 99.6484 189.281 101.195 189.281 103.039V119H181.359V103.039C181.359 101.992 181.234 101.203 180.984 100.672C180.75 100.125 180.406 99.7578 179.953 99.5703C179.5 99.3672 178.961 99.2656 178.336 99.2656C177.586 99.2656 176.938 99.4219 176.391 99.7344C175.844 100.047 175.383 100.484 175.008 101.047C174.648 101.594 174.383 102.242 174.211 102.992C174.039 103.742 173.953 104.562 173.953 105.453ZM192.82 106.578V106.086C192.82 104.227 193.086 102.516 193.617 100.953C194.148 99.375 194.93 98.0078 195.961 96.8516C196.992 95.6953 198.266 94.7969 199.781 94.1562C201.297 93.5 203.047 93.1719 205.031 93.1719C207.031 93.1719 208.789 93.5 210.305 94.1562C211.836 94.7969 213.117 95.6953 214.148 96.8516C215.18 98.0078 215.961 99.375 216.492 100.953C217.023 102.516 217.289 104.227 217.289 106.086V106.578C217.289 108.422 217.023 110.133 216.492 111.711C215.961 113.273 215.18 114.641 214.148 115.812C213.117 116.969 211.844 117.867 210.328 118.508C208.812 119.148 207.062 119.469 205.078 119.469C203.094 119.469 201.336 119.148 199.805 118.508C198.273 117.867 196.992 116.969 195.961 115.812C194.93 114.641 194.148 113.273 193.617 111.711C193.086 110.133 192.82 108.422 192.82 106.578ZM200.719 106.086V106.578C200.719 107.531 200.789 108.422 200.93 109.25C201.07 110.078 201.305 110.805 201.633 111.43C201.961 112.039 202.406 112.516 202.969 112.859C203.531 113.203 204.234 113.375 205.078 113.375C205.906 113.375 206.594 113.203 207.141 112.859C207.703 112.516 208.148 112.039 208.477 111.43C208.805 110.805 209.039 110.078 209.18 109.25C209.32 108.422 209.391 107.531 209.391 106.578V106.086C209.391 105.164 209.32 104.297 209.18 103.484C209.039 102.656 208.805 101.93 208.477 101.305C208.148 100.664 207.703 100.164 207.141 99.8047C206.578 99.4453 205.875 99.2656 205.031 99.2656C204.203 99.2656 203.508 99.4453 202.945 99.8047C202.398 100.164 201.961 100.664 201.633 101.305C201.305 101.93 201.07 102.656 200.93 103.484C200.789 104.297 200.719 105.164 200.719 106.086Z" fill="black"/>
<path d="M1134 0H1348C1356.28 0 1363 6.71573 1363 15V148C1363 156.284 1356.28 163 1348 163H1134V0Z" fill="#505357"/>
<path d="M1280.07 47.5H1216.93L1214.5 49.9286V113.071L1216.93 115.5H1280.07L1282.5 113.071V49.9286L1280.07 47.5ZM1277.64 110.643H1233.93V100.929H1245.1C1246.56 103.843 1249.96 105.786 1253.36 105.786C1258.7 105.786 1263.07 101.414 1263.07 96.0714C1263.07 90.7286 1258.7 86.3571 1253.36 86.3571C1248.01 86.3571 1243.64 90.7286 1243.64 96.0714H1229.07V110.643H1219.36V52.3571H1229.07V63.5286C1226.16 64.9857 1224.21 68.3857 1224.21 71.7857C1224.21 77.1286 1228.59 81.5 1233.93 81.5C1239.27 81.5 1243.64 77.1286 1243.64 71.7857H1253.36C1253.36 77.1286 1257.73 81.5 1263.07 81.5C1268.41 81.5 1272.79 77.1286 1272.79 71.7857C1272.79 66.4429 1268.41 62.0714 1263.07 62.0714C1259.67 62.0714 1256.27 64.0143 1254.81 66.9286H1242.19C1240.73 64.0143 1237.33 62.0714 1233.93 62.0714V52.3571H1277.64V110.643ZM1248.5 96.0714C1248.5 93.1571 1250.44 91.2143 1253.36 91.2143C1256.27 91.2143 1258.21 93.1571 1258.21 96.0714C1258.21 98.9857 1256.27 100.929 1253.36 100.929C1250.44 100.929 1248.5 98.9857 1248.5 96.0714ZM1233.93 66.9286C1236.84 66.9286 1238.79 68.8714 1238.79 71.7857C1238.79 74.7 1236.84 76.6429 1233.93 76.6429C1231.01 76.6429 1229.07 74.7 1229.07 71.7857C1229.07 68.8714 1231.01 66.9286 1233.93 66.9286ZM1263.07 66.9286C1265.99 66.9286 1267.93 68.8714 1267.93 71.7857C1267.93 74.7 1265.99 76.6429 1263.07 76.6429C1260.16 76.6429 1258.21 74.7 1258.21 71.7857C1258.21 68.8714 1260.16 66.9286 1263.07 66.9286Z" fill="white"/>
</svg>
