<svg width="1364" height="164" viewBox="0 0 1364 164" fill="none" xmlns="http://www.w3.org/2000/svg">
<g clip-path="url(#clip0_1_9)">
<path d="M0.5 15.5C0.5 7.21573 7.21573 0.5 15.5 0.5H37.5V163.5H15.5C7.21573 163.5 0.5 156.784 0.5 148.5V15.5Z" fill="#424242"/>
<path d="M1134.5 0.5H37.5V163.5H1134.5V0.5Z" fill="#F0F0F0"/>
<path d="M102.406 54.4219L94.8945 51.7383V48.5859L105.102 52.875V55.1367L102.406 54.4219ZM94.8945 56.6719L102.418 53.9297L105.102 53.2852V55.5352L94.8945 59.8242V56.6719ZM120.043 55.418H115.695V52.6758H120.043C120.715 52.6758 121.262 52.5664 121.684 52.3477C122.105 52.1211 122.414 51.8086 122.609 51.4102C122.805 51.0117 122.902 50.5625 122.902 50.0625C122.902 49.5547 122.805 49.082 122.609 48.6445C122.414 48.207 122.105 47.8555 121.684 47.5898C121.262 47.3242 120.715 47.1914 120.043 47.1914H116.914V61.5H113.398V44.4375H120.043C121.379 44.4375 122.523 44.6797 123.477 45.1641C124.438 45.6406 125.172 46.3008 125.68 47.1445C126.188 47.9883 126.441 48.9531 126.441 50.0391C126.441 51.1406 126.188 52.0938 125.68 52.8984C125.172 53.7031 124.438 54.3242 123.477 54.7617C122.523 55.1992 121.379 55.418 120.043 55.418ZM132.031 51.5859V61.5H128.656V48.8203H131.832L132.031 51.5859ZM135.852 48.7383L135.793 51.8672C135.629 51.8438 135.43 51.8242 135.195 51.8086C134.969 51.7852 134.762 51.7734 134.574 51.7734C134.098 51.7734 133.684 51.8359 133.332 51.9609C132.988 52.0781 132.699 52.2539 132.465 52.4883C132.238 52.7227 132.066 53.0078 131.949 53.3438C131.84 53.6797 131.777 54.0625 131.762 54.4922L131.082 54.2812C131.082 53.4609 131.164 52.707 131.328 52.0195C131.492 51.3242 131.73 50.7188 132.043 50.2031C132.363 49.6875 132.754 49.2891 133.215 49.0078C133.676 48.7266 134.203 48.5859 134.797 48.5859C134.984 48.5859 135.176 48.6016 135.371 48.6328C135.566 48.6562 135.727 48.6914 135.852 48.7383ZM136.555 55.2891V55.043C136.555 54.1133 136.688 53.2578 136.953 52.4766C137.219 51.6875 137.605 51.0039 138.113 50.4258C138.621 49.8477 139.246 49.3984 139.988 49.0781C140.73 48.75 141.582 48.5859 142.543 48.5859C143.504 48.5859 144.359 48.75 145.109 49.0781C145.859 49.3984 146.488 49.8477 146.996 50.4258C147.512 51.0039 147.902 51.6875 148.168 52.4766C148.434 53.2578 148.566 54.1133 148.566 55.043V55.2891C148.566 56.2109 148.434 57.0664 148.168 57.8555C147.902 58.6367 147.512 59.3203 146.996 59.9062C146.488 60.4844 145.863 60.9336 145.121 61.2539C144.379 61.5742 143.527 61.7344 142.566 61.7344C141.605 61.7344 140.75 61.5742 140 61.2539C139.258 60.9336 138.629 60.4844 138.113 59.9062C137.605 59.3203 137.219 58.6367 136.953 57.8555C136.688 57.0664 136.555 56.2109 136.555 55.2891ZM139.93 55.043V55.2891C139.93 55.8203 139.977 56.3164 140.07 56.7773C140.164 57.2383 140.312 57.6445 140.516 57.9961C140.727 58.3398 141 58.6094 141.336 58.8047C141.672 59 142.082 59.0977 142.566 59.0977C143.035 59.0977 143.438 59 143.773 58.8047C144.109 58.6094 144.379 58.3398 144.582 57.9961C144.785 57.6445 144.934 57.2383 145.027 56.7773C145.129 56.3164 145.18 55.8203 145.18 55.2891V55.043C145.18 54.5273 145.129 54.043 145.027 53.5898C144.934 53.1289 144.781 52.7227 144.57 52.3711C144.367 52.0117 144.098 51.7305 143.762 51.5273C143.426 51.3242 143.02 51.2227 142.543 51.2227C142.066 51.2227 141.66 51.3242 141.324 51.5273C140.996 51.7305 140.727 52.0117 140.516 52.3711C140.312 52.7227 140.164 53.1289 140.07 53.5898C139.977 54.043 139.93 54.5273 139.93 55.043ZM150.828 48.8203H154.215V62.2617C154.215 63.1992 154.043 63.9922 153.699 64.6406C153.355 65.2891 152.859 65.7812 152.211 66.1172C151.562 66.4531 150.777 66.6211 149.855 66.6211C149.566 66.6211 149.285 66.6055 149.012 66.5742C148.73 66.543 148.441 66.4922 148.145 66.4219L148.156 63.832C148.344 63.8633 148.527 63.8867 148.707 63.9023C148.879 63.9258 149.055 63.9375 149.234 63.9375C149.586 63.9375 149.879 63.8789 150.113 63.7617C150.348 63.6445 150.523 63.4609 150.641 63.2109C150.766 62.9688 150.828 62.6523 150.828 62.2617V48.8203ZM150.559 45.5156C150.559 45.0234 150.73 44.6172 151.074 44.2969C151.426 43.9766 151.887 43.8164 152.457 43.8164C153.035 43.8164 153.496 43.9766 153.84 44.2969C154.184 44.6172 154.355 45.0234 154.355 45.5156C154.355 46.0078 154.184 46.4141 153.84 46.7344C153.496 47.0547 153.035 47.2148 152.457 47.2148C151.887 47.2148 151.426 47.0547 151.074 46.7344C150.73 46.4141 150.559 46.0078 150.559 45.5156ZM162.734 61.7344C161.75 61.7344 160.867 61.5781 160.086 61.2656C159.305 60.9453 158.641 60.5039 158.094 59.9414C157.555 59.3789 157.141 58.7266 156.852 57.9844C156.562 57.2344 156.418 56.4375 156.418 55.5938V55.125C156.418 54.1641 156.555 53.2852 156.828 52.4883C157.102 51.6914 157.492 51 158 50.4141C158.516 49.8281 159.141 49.3789 159.875 49.0664C160.609 48.7461 161.438 48.5859 162.359 48.5859C163.258 48.5859 164.055 48.7344 164.75 49.0312C165.445 49.3281 166.027 49.75 166.496 50.2969C166.973 50.8438 167.332 51.5 167.574 52.2656C167.816 53.0234 167.938 53.8672 167.938 54.7969V56.2031H157.859V53.9531H164.621V53.6953C164.621 53.2266 164.535 52.8086 164.363 52.4414C164.199 52.0664 163.949 51.7695 163.613 51.5508C163.277 51.332 162.848 51.2227 162.324 51.2227C161.879 51.2227 161.496 51.3203 161.176 51.5156C160.855 51.7109 160.594 51.9844 160.391 52.3359C160.195 52.6875 160.047 53.1016 159.945 53.5781C159.852 54.0469 159.805 54.5625 159.805 55.125V55.5938C159.805 56.1016 159.875 56.5703 160.016 57C160.164 57.4297 160.371 57.8008 160.637 58.1133C160.91 58.4258 161.238 58.668 161.621 58.8398C162.012 59.0117 162.453 59.0977 162.945 59.0977C163.555 59.0977 164.121 58.9805 164.645 58.7461C165.176 58.5039 165.633 58.1406 166.016 57.6562L167.656 59.4375C167.391 59.8203 167.027 60.1875 166.566 60.5391C166.113 60.8906 165.566 61.1797 164.926 61.4062C164.285 61.625 163.555 61.7344 162.734 61.7344ZM175.098 59.0977C175.512 59.0977 175.879 59.0195 176.199 58.8633C176.52 58.6992 176.77 58.4727 176.949 58.1836C177.137 57.8867 177.234 57.5391 177.242 57.1406H180.418C180.41 58.0312 180.172 58.8242 179.703 59.5195C179.234 60.207 178.605 60.75 177.816 61.1484C177.027 61.5391 176.145 61.7344 175.168 61.7344C174.184 61.7344 173.324 61.5703 172.59 61.2422C171.863 60.9141 171.258 60.4609 170.773 59.8828C170.289 59.2969 169.926 58.6172 169.684 57.8438C169.441 57.0625 169.32 56.2266 169.32 55.3359V54.9961C169.32 54.0977 169.441 53.2617 169.684 52.4883C169.926 51.707 170.289 51.0273 170.773 50.4492C171.258 49.8633 171.863 49.4062 172.59 49.0781C173.316 48.75 174.168 48.5859 175.145 48.5859C176.184 48.5859 177.094 48.7852 177.875 49.1836C178.664 49.582 179.281 50.1523 179.727 50.8945C180.18 51.6289 180.41 52.5 180.418 53.5078H177.242C177.234 53.0859 177.145 52.7031 176.973 52.3594C176.809 52.0156 176.566 51.7422 176.246 51.5391C175.934 51.3281 175.547 51.2227 175.086 51.2227C174.594 51.2227 174.191 51.3281 173.879 51.5391C173.566 51.7422 173.324 52.0234 173.152 52.3828C172.98 52.7344 172.859 53.1367 172.789 53.5898C172.727 54.0352 172.695 54.5039 172.695 54.9961V55.3359C172.695 55.8281 172.727 56.3008 172.789 56.7539C172.852 57.207 172.969 57.6094 173.141 57.9609C173.32 58.3125 173.566 58.5898 173.879 58.793C174.191 58.9961 174.598 59.0977 175.098 59.0977ZM188.586 48.8203V51.2109H181.203V48.8203H188.586ZM183.031 45.6914H186.406V57.6797C186.406 58.0469 186.453 58.3281 186.547 58.5234C186.648 58.7188 186.797 58.8555 186.992 58.9336C187.188 59.0039 187.434 59.0391 187.73 59.0391C187.941 59.0391 188.129 59.0312 188.293 59.0156C188.465 58.9922 188.609 58.9688 188.727 58.9453L188.738 61.4297C188.449 61.5234 188.137 61.5977 187.801 61.6523C187.465 61.707 187.094 61.7344 186.688 61.7344C185.945 61.7344 185.297 61.6133 184.742 61.3711C184.195 61.1211 183.773 60.7227 183.477 60.1758C183.18 59.6289 183.031 58.9102 183.031 58.0195V45.6914ZM203.691 44.4375V61.5H200.188V44.4375H203.691ZM208.941 44.4375V47.1914H195.02V44.4375H208.941ZM214.297 48.8203V61.5H210.91V48.8203H214.297ZM210.699 45.5156C210.699 45.0234 210.871 44.6172 211.215 44.2969C211.559 43.9766 212.02 43.8164 212.598 43.8164C213.168 43.8164 213.625 43.9766 213.969 44.2969C214.32 44.6172 214.496 45.0234 214.496 45.5156C214.496 46.0078 214.32 46.4141 213.969 46.7344C213.625 47.0547 213.168 47.2148 212.598 47.2148C212.02 47.2148 211.559 47.0547 211.215 46.7344C210.871 46.4141 210.699 46.0078 210.699 45.5156ZM223.297 48.8203V51.2109H215.914V48.8203H223.297ZM217.742 45.6914H221.117V57.6797C221.117 58.0469 221.164 58.3281 221.258 58.5234C221.359 58.7188 221.508 58.8555 221.703 58.9336C221.898 59.0039 222.145 59.0391 222.441 59.0391C222.652 59.0391 222.84 59.0312 223.004 59.0156C223.176 58.9922 223.32 58.9688 223.438 58.9453L223.449 61.4297C223.16 61.5234 222.848 61.5977 222.512 61.6523C222.176 61.707 221.805 61.7344 221.398 61.7344C220.656 61.7344 220.008 61.6133 219.453 61.3711C218.906 61.1211 218.484 60.7227 218.188 60.1758C217.891 59.6289 217.742 58.9102 217.742 58.0195V45.6914ZM228.781 43.5V61.5H225.395V43.5H228.781ZM237.406 61.7344C236.422 61.7344 235.539 61.5781 234.758 61.2656C233.977 60.9453 233.312 60.5039 232.766 59.9414C232.227 59.3789 231.812 58.7266 231.523 57.9844C231.234 57.2344 231.09 56.4375 231.09 55.5938V55.125C231.09 54.1641 231.227 53.2852 231.5 52.4883C231.773 51.6914 232.164 51 232.672 50.4141C233.188 49.8281 233.812 49.3789 234.547 49.0664C235.281 48.7461 236.109 48.5859 237.031 48.5859C237.93 48.5859 238.727 48.7344 239.422 49.0312C240.117 49.3281 240.699 49.75 241.168 50.2969C241.645 50.8438 242.004 51.5 242.246 52.2656C242.488 53.0234 242.609 53.8672 242.609 54.7969V56.2031H232.531V53.9531H239.293V53.6953C239.293 53.2266 239.207 52.8086 239.035 52.4414C238.871 52.0664 238.621 51.7695 238.285 51.5508C237.949 51.332 237.52 51.2227 236.996 51.2227C236.551 51.2227 236.168 51.3203 235.848 51.5156C235.527 51.7109 235.266 51.9844 235.062 52.3359C234.867 52.6875 234.719 53.1016 234.617 53.5781C234.523 54.0469 234.477 54.5625 234.477 55.125V55.5938C234.477 56.1016 234.547 56.5703 234.688 57C234.836 57.4297 235.043 57.8008 235.309 58.1133C235.582 58.4258 235.91 58.668 236.293 58.8398C236.684 59.0117 237.125 59.0977 237.617 59.0977C238.227 59.0977 238.793 58.9805 239.316 58.7461C239.848 58.5039 240.305 58.1406 240.688 57.6562L242.328 59.4375C242.062 59.8203 241.699 60.1875 241.238 60.5391C240.785 60.8906 240.238 61.1797 239.598 61.4062C238.957 61.625 238.227 61.7344 237.406 61.7344Z" fill="#888888"/>
<path d="M113.68 110.43C113.68 109.898 113.602 109.422 113.445 109C113.289 108.562 113 108.156 112.578 107.781C112.156 107.406 111.547 107.031 110.75 106.656C109.969 106.266 108.938 105.859 107.656 105.438C106.156 104.938 104.711 104.375 103.32 103.75C101.93 103.109 100.688 102.367 99.5938 101.523C98.5 100.664 97.6328 99.6641 96.9922 98.5234C96.3516 97.3672 96.0312 96.0234 96.0312 94.4922C96.0312 93.0234 96.3594 91.7031 97.0156 90.5312C97.6719 89.3438 98.5859 88.3359 99.7578 87.5078C100.945 86.6641 102.336 86.0234 103.93 85.5859C105.523 85.1328 107.266 84.9062 109.156 84.9062C111.656 84.9062 113.859 85.3438 115.766 86.2188C117.688 87.0781 119.188 88.3047 120.266 89.8984C121.359 91.4766 121.906 93.3438 121.906 95.5H113.727C113.727 94.6406 113.547 93.8828 113.188 93.2266C112.844 92.5703 112.32 92.0547 111.617 91.6797C110.914 91.3047 110.031 91.1172 108.969 91.1172C107.938 91.1172 107.07 91.2734 106.367 91.5859C105.664 91.8984 105.133 92.3203 104.773 92.8516C104.414 93.3672 104.234 93.9375 104.234 94.5625C104.234 95.0781 104.375 95.5469 104.656 95.9688C104.953 96.375 105.367 96.7578 105.898 97.1172C106.445 97.4766 107.102 97.8203 107.867 98.1484C108.648 98.4766 109.523 98.7969 110.492 99.1094C112.305 99.6875 113.914 100.336 115.32 101.055C116.742 101.758 117.938 102.562 118.906 103.469C119.891 104.359 120.633 105.375 121.133 106.516C121.648 107.656 121.906 108.945 121.906 110.383C121.906 111.914 121.609 113.273 121.016 114.461C120.422 115.648 119.57 116.656 118.461 117.484C117.352 118.297 116.023 118.914 114.477 119.336C112.93 119.758 111.203 119.969 109.297 119.969C107.547 119.969 105.82 119.75 104.117 119.312C102.43 118.859 100.898 118.172 99.5234 117.25C98.1484 116.312 97.0469 115.117 96.2188 113.664C95.4062 112.195 95 110.453 95 108.438H103.25C103.25 109.438 103.383 110.281 103.648 110.969C103.914 111.656 104.305 112.211 104.82 112.633C105.336 113.039 105.969 113.336 106.719 113.523C107.469 113.695 108.328 113.781 109.297 113.781C110.344 113.781 111.188 113.633 111.828 113.336C112.469 113.023 112.938 112.617 113.234 112.117C113.531 111.602 113.68 111.039 113.68 110.43ZM133.555 116.523L140.117 94.1406H148.602L138.406 123.273C138.188 123.914 137.898 124.602 137.539 125.336C137.18 126.086 136.688 126.797 136.062 127.469C135.438 128.141 134.633 128.688 133.648 129.109C132.68 129.531 131.477 129.742 130.039 129.742C129.273 129.742 128.711 129.703 128.352 129.625C128.008 129.562 127.477 129.445 126.758 129.273V123.625C126.961 123.625 127.133 123.625 127.273 123.625C127.43 123.625 127.602 123.625 127.789 123.625C128.633 123.625 129.305 123.539 129.805 123.367C130.32 123.195 130.711 122.945 130.977 122.617C131.258 122.289 131.477 121.891 131.633 121.422L133.555 116.523ZM131.891 94.1406L136.883 111.883L137.75 120.25H132.453L123.43 94.1406H131.891ZM163.953 112.375C163.953 111.938 163.805 111.562 163.508 111.25C163.227 110.922 162.727 110.625 162.008 110.359C161.289 110.078 160.281 109.797 158.984 109.516C157.75 109.25 156.586 108.898 155.492 108.461C154.414 108.023 153.469 107.492 152.656 106.867C151.844 106.242 151.203 105.5 150.734 104.641C150.281 103.781 150.055 102.797 150.055 101.688C150.055 100.609 150.281 99.5938 150.734 98.6406C151.203 97.6719 151.883 96.8203 152.773 96.0859C153.68 95.3359 154.781 94.75 156.078 94.3281C157.375 93.8906 158.852 93.6719 160.508 93.6719C162.789 93.6719 164.758 94.0234 166.414 94.7266C168.07 95.4141 169.344 96.3828 170.234 97.6328C171.141 98.8672 171.594 100.297 171.594 101.922H163.695C163.695 101.281 163.586 100.734 163.367 100.281C163.164 99.8281 162.828 99.4844 162.359 99.25C161.891 99 161.266 98.875 160.484 98.875C159.938 98.875 159.438 98.9766 158.984 99.1797C158.547 99.3828 158.195 99.6641 157.93 100.023C157.664 100.383 157.531 100.805 157.531 101.289C157.531 101.633 157.609 101.945 157.766 102.227C157.938 102.492 158.195 102.742 158.539 102.977C158.883 103.195 159.32 103.398 159.852 103.586C160.383 103.758 161.023 103.914 161.773 104.055C163.477 104.367 165.07 104.812 166.555 105.391C168.039 105.969 169.242 106.789 170.164 107.852C171.102 108.914 171.57 110.344 171.57 112.141C171.57 113.266 171.312 114.305 170.797 115.258C170.281 116.195 169.539 117.023 168.57 117.742C167.602 118.445 166.438 118.992 165.078 119.383C163.719 119.773 162.188 119.969 160.484 119.969C158.062 119.969 156.016 119.539 154.344 118.68C152.672 117.805 151.406 116.711 150.547 115.398C149.703 114.07 149.281 112.727 149.281 111.367H156.641C156.672 112.148 156.859 112.789 157.203 113.289C157.562 113.789 158.039 114.156 158.633 114.391C159.227 114.625 159.914 114.742 160.695 114.742C161.414 114.742 162.008 114.641 162.477 114.438C162.961 114.234 163.328 113.961 163.578 113.617C163.828 113.258 163.953 112.844 163.953 112.375ZM188.633 94.1406V99.625H173.352V94.1406H188.633ZM176.562 87.8359H184.461V111.227C184.461 111.898 184.539 112.422 184.695 112.797C184.852 113.156 185.117 113.414 185.492 113.57C185.883 113.711 186.398 113.781 187.039 113.781C187.492 113.781 187.867 113.773 188.164 113.758C188.461 113.727 188.742 113.688 189.008 113.641V119.289C188.336 119.508 187.633 119.672 186.898 119.781C186.164 119.906 185.383 119.969 184.555 119.969C182.867 119.969 181.422 119.703 180.219 119.172C179.031 118.641 178.125 117.805 177.5 116.664C176.875 115.523 176.562 114.039 176.562 112.211V87.8359ZM204.055 119.969C201.992 119.969 200.148 119.648 198.523 119.008C196.898 118.352 195.523 117.453 194.398 116.312C193.289 115.172 192.438 113.859 191.844 112.375C191.266 110.891 190.977 109.32 190.977 107.664V106.773C190.977 104.914 191.234 103.195 191.75 101.617C192.266 100.023 193.031 98.6328 194.047 97.4453C195.062 96.2578 196.336 95.3359 197.867 94.6797C199.398 94.0078 201.18 93.6719 203.211 93.6719C205.008 93.6719 206.617 93.9609 208.039 94.5391C209.461 95.1172 210.664 95.9453 211.648 97.0234C212.648 98.1016 213.406 99.4062 213.922 100.938C214.453 102.469 214.719 104.188 214.719 106.094V109.305H194V104.359H207.008V103.75C207.023 102.906 206.875 102.188 206.562 101.594C206.266 101 205.828 100.547 205.25 100.234C204.672 99.9219 203.969 99.7656 203.141 99.7656C202.281 99.7656 201.57 99.9531 201.008 100.328C200.461 100.703 200.031 101.219 199.719 101.875C199.422 102.516 199.211 103.258 199.086 104.102C198.961 104.945 198.898 105.836 198.898 106.773V107.664C198.898 108.602 199.023 109.453 199.273 110.219C199.539 110.984 199.914 111.641 200.398 112.188C200.898 112.719 201.492 113.133 202.18 113.43C202.883 113.727 203.68 113.875 204.57 113.875C205.648 113.875 206.711 113.672 207.758 113.266C208.805 112.859 209.703 112.188 210.453 111.25L214.039 115.516C213.523 116.25 212.789 116.961 211.836 117.648C210.898 118.336 209.773 118.898 208.461 119.336C207.148 119.758 205.68 119.969 204.055 119.969ZM225.898 99.5078V119.5H218V94.1406H225.406L225.898 99.5078ZM224.938 105.953L223.133 106C223.133 104.219 223.344 102.578 223.766 101.078C224.188 99.5781 224.812 98.2734 225.641 97.1641C226.469 96.0547 227.484 95.1953 228.688 94.5859C229.906 93.9766 231.312 93.6719 232.906 93.6719C234.016 93.6719 235.023 93.8438 235.93 94.1875C236.836 94.5156 237.617 95.0391 238.273 95.7578C238.93 96.4609 239.43 97.3828 239.773 98.5234C240.133 99.6484 240.312 101 240.312 102.578V119.5H232.414V103.586C232.414 102.508 232.289 101.695 232.039 101.148C231.805 100.602 231.461 100.234 231.008 100.047C230.555 99.8594 230 99.7656 229.344 99.7656C228.656 99.7656 228.039 99.9219 227.492 100.234C226.945 100.547 226.477 100.984 226.086 101.547C225.711 102.094 225.422 102.742 225.219 103.492C225.031 104.242 224.938 105.062 224.938 105.953ZM239.422 105.953L237.219 106C237.219 104.219 237.414 102.578 237.805 101.078C238.211 99.5781 238.812 98.2734 239.609 97.1641C240.422 96.0547 241.43 95.1953 242.633 94.5859C243.836 93.9766 245.234 93.6719 246.828 93.6719C247.984 93.6719 249.047 93.8438 250.016 94.1875C250.984 94.5312 251.82 95.0859 252.523 95.8516C253.227 96.6172 253.773 97.6328 254.164 98.8984C254.555 100.148 254.75 101.695 254.75 103.539V119.5H246.828V103.539C246.828 102.492 246.703 101.703 246.453 101.172C246.219 100.625 245.875 100.258 245.422 100.07C244.969 99.8672 244.43 99.7656 243.805 99.7656C243.055 99.7656 242.406 99.9219 241.859 100.234C241.312 100.547 240.852 100.984 240.477 101.547C240.117 102.094 239.852 102.742 239.68 103.492C239.508 104.242 239.422 105.062 239.422 105.953ZM282.688 119.5H275.117L275.164 113.172H282.688C284.25 113.172 285.57 112.797 286.648 112.047C287.742 111.297 288.57 110.18 289.133 108.695C289.711 107.195 290 105.352 290 103.164V101.688C290 100.047 289.836 98.6094 289.508 97.375C289.195 96.125 288.727 95.0859 288.102 94.2578C287.477 93.4141 286.695 92.7812 285.758 92.3594C284.836 91.9375 283.773 91.7266 282.57 91.7266H274.977V85.375H282.57C284.883 85.375 287 85.7734 288.922 86.5703C290.859 87.3516 292.531 88.4766 293.938 89.9453C295.359 91.3984 296.453 93.125 297.219 95.125C298 97.1094 298.391 99.3125 298.391 101.734V103.164C298.391 105.57 298 107.773 297.219 109.773C296.453 111.773 295.367 113.5 293.961 114.953C292.555 116.406 290.891 117.531 288.969 118.328C287.062 119.109 284.969 119.5 282.688 119.5ZM279.828 85.375V119.5H271.602V85.375H279.828ZM314.586 119.969C312.523 119.969 310.68 119.648 309.055 119.008C307.43 118.352 306.055 117.453 304.93 116.312C303.82 115.172 302.969 113.859 302.375 112.375C301.797 110.891 301.508 109.32 301.508 107.664V106.773C301.508 104.914 301.766 103.195 302.281 101.617C302.797 100.023 303.562 98.6328 304.578 97.4453C305.594 96.2578 306.867 95.3359 308.398 94.6797C309.93 94.0078 311.711 93.6719 313.742 93.6719C315.539 93.6719 317.148 93.9609 318.57 94.5391C319.992 95.1172 321.195 95.9453 322.18 97.0234C323.18 98.1016 323.938 99.4062 324.453 100.938C324.984 102.469 325.25 104.188 325.25 106.094V109.305H304.531V104.359H317.539V103.75C317.555 102.906 317.406 102.188 317.094 101.594C316.797 101 316.359 100.547 315.781 100.234C315.203 99.9219 314.5 99.7656 313.672 99.7656C312.812 99.7656 312.102 99.9531 311.539 100.328C310.992 100.703 310.562 101.219 310.25 101.875C309.953 102.516 309.742 103.258 309.617 104.102C309.492 104.945 309.43 105.836 309.43 106.773V107.664C309.43 108.602 309.555 109.453 309.805 110.219C310.07 110.984 310.445 111.641 310.93 112.188C311.43 112.719 312.023 113.133 312.711 113.43C313.414 113.727 314.211 113.875 315.102 113.875C316.18 113.875 317.242 113.672 318.289 113.266C319.336 112.859 320.234 112.188 320.984 111.25L324.57 115.516C324.055 116.25 323.32 116.961 322.367 117.648C321.43 118.336 320.305 118.898 318.992 119.336C317.68 119.758 316.211 119.969 314.586 119.969ZM341.75 112.375C341.75 111.938 341.602 111.562 341.305 111.25C341.023 110.922 340.523 110.625 339.805 110.359C339.086 110.078 338.078 109.797 336.781 109.516C335.547 109.25 334.383 108.898 333.289 108.461C332.211 108.023 331.266 107.492 330.453 106.867C329.641 106.242 329 105.5 328.531 104.641C328.078 103.781 327.852 102.797 327.852 101.688C327.852 100.609 328.078 99.5938 328.531 98.6406C329 97.6719 329.68 96.8203 330.57 96.0859C331.477 95.3359 332.578 94.75 333.875 94.3281C335.172 93.8906 336.648 93.6719 338.305 93.6719C340.586 93.6719 342.555 94.0234 344.211 94.7266C345.867 95.4141 347.141 96.3828 348.031 97.6328C348.938 98.8672 349.391 100.297 349.391 101.922H341.492C341.492 101.281 341.383 100.734 341.164 100.281C340.961 99.8281 340.625 99.4844 340.156 99.25C339.688 99 339.062 98.875 338.281 98.875C337.734 98.875 337.234 98.9766 336.781 99.1797C336.344 99.3828 335.992 99.6641 335.727 100.023C335.461 100.383 335.328 100.805 335.328 101.289C335.328 101.633 335.406 101.945 335.562 102.227C335.734 102.492 335.992 102.742 336.336 102.977C336.68 103.195 337.117 103.398 337.648 103.586C338.18 103.758 338.82 103.914 339.57 104.055C341.273 104.367 342.867 104.812 344.352 105.391C345.836 105.969 347.039 106.789 347.961 107.852C348.898 108.914 349.367 110.344 349.367 112.141C349.367 113.266 349.109 114.305 348.594 115.258C348.078 116.195 347.336 117.023 346.367 117.742C345.398 118.445 344.234 118.992 342.875 119.383C341.516 119.773 339.984 119.969 338.281 119.969C335.859 119.969 333.812 119.539 332.141 118.68C330.469 117.805 329.203 116.711 328.344 115.398C327.5 114.07 327.078 112.727 327.078 111.367H334.438C334.469 112.148 334.656 112.789 335 113.289C335.359 113.789 335.836 114.156 336.43 114.391C337.023 114.625 337.711 114.742 338.492 114.742C339.211 114.742 339.805 114.641 340.273 114.438C340.758 114.234 341.125 113.961 341.375 113.617C341.625 113.258 341.75 112.844 341.75 112.375ZM361.414 94.1406V119.5H353.492V94.1406H361.414ZM353.023 87.6016C353.023 86.4766 353.43 85.5547 354.242 84.8359C355.055 84.1172 356.109 83.7578 357.406 83.7578C358.703 83.7578 359.758 84.1172 360.57 84.8359C361.383 85.5547 361.789 86.4766 361.789 87.6016C361.789 88.7266 361.383 89.6484 360.57 90.3672C359.758 91.0859 358.703 91.4453 357.406 91.4453C356.109 91.4453 355.055 91.0859 354.242 90.3672C353.43 89.6484 353.023 88.7266 353.023 87.6016ZM382.227 94.1406H389.398V118.516C389.398 120.859 388.859 122.844 387.781 124.469C386.703 126.109 385.195 127.352 383.258 128.195C381.336 129.055 379.086 129.484 376.508 129.484C375.367 129.484 374.203 129.336 373.016 129.039C371.828 128.758 370.719 128.336 369.688 127.773C368.656 127.211 367.789 126.516 367.086 125.688L370.391 121.047C371.031 121.766 371.836 122.375 372.805 122.875C373.773 123.391 374.914 123.648 376.227 123.648C377.367 123.648 378.32 123.445 379.086 123.039C379.867 122.633 380.461 122.039 380.867 121.258C381.273 120.492 381.477 119.562 381.477 118.469V100.141L382.227 94.1406ZM365.375 107.125V106.633C365.375 104.711 365.609 102.961 366.078 101.383C366.562 99.7891 367.25 98.4219 368.141 97.2812C369.047 96.125 370.141 95.2344 371.422 94.6094C372.703 93.9844 374.148 93.6719 375.758 93.6719C377.492 93.6719 378.914 94.0078 380.023 94.6797C381.148 95.3359 382.047 96.2578 382.719 97.4453C383.406 98.6328 383.938 100.023 384.312 101.617C384.703 103.195 385.031 104.898 385.297 106.727V107.312C385.031 109.031 384.664 110.656 384.195 112.188C383.742 113.703 383.148 115.047 382.414 116.219C381.68 117.391 380.758 118.312 379.648 118.984C378.555 119.641 377.242 119.969 375.711 119.969C374.117 119.969 372.68 119.648 371.398 119.008C370.133 118.367 369.047 117.469 368.141 116.312C367.25 115.156 366.562 113.797 366.078 112.234C365.609 110.672 365.375 108.969 365.375 107.125ZM373.273 106.633V107.125C373.273 108.078 373.359 108.961 373.531 109.773C373.719 110.586 374 111.305 374.375 111.93C374.75 112.539 375.211 113.016 375.758 113.359C376.32 113.703 376.977 113.875 377.727 113.875C378.867 113.875 379.789 113.633 380.492 113.148C381.195 112.664 381.703 111.977 382.016 111.086C382.328 110.195 382.461 109.148 382.414 107.945V106.094C382.445 105.062 382.375 104.156 382.203 103.375C382.031 102.578 381.758 101.914 381.383 101.383C381.023 100.852 380.539 100.453 379.93 100.188C379.336 99.9062 378.617 99.7656 377.773 99.7656C377.039 99.7656 376.391 99.9375 375.828 100.281C375.266 100.625 374.797 101.109 374.422 101.734C374.047 102.344 373.758 103.07 373.555 103.914C373.367 104.742 373.273 105.648 373.273 106.633ZM401.703 99.5547V119.5H393.805V94.1406H401.211L401.703 99.5547ZM400.766 105.953L398.914 106C398.914 104.062 399.148 102.336 399.617 100.82C400.086 99.2891 400.75 97.9922 401.609 96.9297C402.469 95.8672 403.492 95.0625 404.68 94.5156C405.883 93.9531 407.219 93.6719 408.688 93.6719C409.859 93.6719 410.93 93.8438 411.898 94.1875C412.883 94.5312 413.727 95.0859 414.43 95.8516C415.148 96.6172 415.695 97.6328 416.07 98.8984C416.461 100.148 416.656 101.695 416.656 103.539V119.5H408.711V103.516C408.711 102.5 408.57 101.727 408.289 101.195C408.008 100.648 407.602 100.273 407.07 100.07C406.539 99.8672 405.891 99.7656 405.125 99.7656C404.312 99.7656 403.625 99.9219 403.062 100.234C402.5 100.547 402.047 100.984 401.703 101.547C401.375 102.094 401.133 102.742 400.977 103.492C400.836 104.242 400.766 105.062 400.766 105.953Z" fill="black"/>
<path d="M1134.5 0.5H1348.5C1356.78 0.5 1363.5 7.21573 1363.5 15.5V148.5C1363.5 156.784 1356.78 163.5 1348.5 163.5H1134.5V0.5Z" fill="#091C25"/>
<path d="M1218.08 64.6667C1218.08 66.5281 1219.01 68.2419 1220.59 69.7434C1222.17 71.2429 1224.44 72.5619 1227.21 73.6553C1232.76 75.843 1240.43 77.1667 1249 77.1667C1257.57 77.1667 1265.24 75.843 1270.79 73.6553C1273.56 72.5619 1275.83 71.2429 1277.41 69.7434C1278.99 68.2419 1279.92 66.5281 1279.92 64.6667C1279.92 62.8052 1278.99 61.0914 1277.41 59.5899C1275.83 58.0905 1273.56 56.7714 1270.79 55.6781C1265.24 53.4903 1257.57 52.1667 1249 52.1667C1240.43 52.1667 1232.76 53.4903 1227.21 55.6781C1224.44 56.7714 1222.17 58.0905 1220.59 59.5899C1219.01 61.0914 1218.08 62.8052 1218.08 64.6667ZM1222.12 64.6667C1222.12 63.5283 1222.87 62.3878 1224.38 61.2921C1225.87 60.2042 1228.02 59.2293 1230.61 58.4144C1235.78 56.7864 1242.57 55.8333 1249 55.8333C1255.43 55.8333 1262.22 56.7864 1267.39 58.4144C1269.98 59.2293 1272.13 60.2042 1273.62 61.2921C1275.13 62.3878 1275.87 63.5283 1275.87 64.6667C1275.87 65.805 1275.13 66.9455 1273.62 68.0412C1272.13 69.1292 1269.98 70.1041 1267.39 70.9189C1262.22 72.5469 1255.43 73.5 1249 73.5C1242.57 73.5 1235.78 72.5469 1230.61 70.9189C1228.02 70.1041 1225.87 69.1292 1224.38 68.0412C1222.87 66.9455 1222.12 65.805 1222.12 64.6667Z" fill="white" stroke="white"/>
<path d="M1218.08 75.3333C1218.08 77.1948 1219.01 78.9086 1220.59 80.4101C1222.17 81.9095 1224.44 83.2286 1227.21 84.3219C1232.76 86.5097 1240.43 87.8333 1249 87.8333C1257.57 87.8333 1265.24 86.5097 1270.79 84.3219C1273.56 83.2286 1275.83 81.9095 1277.41 80.4101C1278.99 78.9086 1279.92 77.1948 1279.92 75.3333V64.6667C1279.92 64.1576 1279.69 63.6851 1279.3 63.3479C1278.92 63.0125 1278.41 62.8333 1277.9 62.8333C1277.38 62.8333 1276.87 63.0125 1276.49 63.3479C1276.11 63.6851 1275.87 64.1576 1275.87 64.6667V75.3333C1275.87 76.4717 1275.13 77.6122 1273.62 78.7079C1272.13 79.7958 1269.98 80.7707 1267.39 81.5856C1262.22 83.2136 1255.43 84.1667 1249 84.1667C1242.57 84.1667 1235.78 83.2136 1230.61 81.5856C1228.02 80.7707 1225.87 79.7958 1224.38 78.7079C1222.87 77.6122 1222.12 76.4717 1222.12 75.3333V64.6667C1222.12 64.1576 1221.89 63.6851 1221.51 63.3479C1221.13 63.0125 1220.62 62.8333 1220.1 62.8333C1219.59 62.8333 1219.08 63.0125 1218.7 63.3479C1218.31 63.6851 1218.08 64.1576 1218.08 64.6667V75.3333Z" fill="white" stroke="white"/>
<path d="M1218.08 87.3333C1218.08 89.1948 1219.01 90.9086 1220.59 92.4101C1222.17 93.9095 1224.44 95.2286 1227.21 96.3219C1232.76 98.5097 1240.43 99.8333 1249 99.8333C1257.57 99.8333 1265.24 98.5097 1270.79 96.3219C1273.56 95.2286 1275.83 93.9095 1277.41 92.4101C1278.99 90.9086 1279.92 89.1948 1279.92 87.3333V75.3333C1279.92 74.8243 1279.69 74.3517 1279.3 74.0146C1278.92 73.6792 1278.41 73.5 1277.9 73.5C1277.38 73.5 1276.87 73.6792 1276.49 74.0146C1276.11 74.3517 1275.87 74.8243 1275.87 75.3333V87.3333C1275.87 88.4717 1275.13 89.6122 1273.62 90.7079C1272.13 91.7958 1269.98 92.7707 1267.39 93.5856C1262.22 95.2136 1255.43 96.1667 1249 96.1667C1242.57 96.1667 1235.78 95.2136 1230.61 93.5856C1228.02 92.7707 1225.87 91.7958 1224.38 90.7079C1222.87 89.6122 1222.12 88.4717 1222.12 87.3333V75.3333C1222.12 74.8243 1221.89 74.3517 1221.51 74.0146C1221.13 73.6792 1220.62 73.5 1220.1 73.5C1219.59 73.5 1219.08 73.6792 1218.7 74.0146C1218.31 74.3517 1218.08 74.8243 1218.08 75.3333V87.3333Z" fill="white" stroke="white"/>
<path d="M1218.08 99.3333C1218.08 101.195 1219.01 102.909 1220.59 104.41C1222.17 105.91 1224.44 107.229 1227.21 108.322C1232.76 110.51 1240.43 111.833 1249 111.833C1257.57 111.833 1265.24 110.51 1270.79 108.322C1273.56 107.229 1275.83 105.91 1277.41 104.41C1278.99 102.909 1279.92 101.195 1279.92 99.3333V87.3333C1279.92 86.8243 1279.69 86.3517 1279.3 86.0146C1278.92 85.6792 1278.41 85.5 1277.9 85.5C1277.38 85.5 1276.87 85.6792 1276.49 86.0146C1276.11 86.3517 1275.87 86.8243 1275.87 87.3333V99.3333C1275.87 100.472 1275.13 101.612 1273.62 102.708C1272.13 103.796 1269.98 104.771 1267.39 105.586C1262.22 107.214 1255.43 108.167 1249 108.167C1242.57 108.167 1235.78 107.214 1230.61 105.586C1228.02 104.771 1225.87 103.796 1224.38 102.708C1222.87 101.612 1222.12 100.472 1222.12 99.3333V87.3333C1222.12 86.8243 1221.89 86.3517 1221.51 86.0146C1221.13 85.6792 1220.62 85.5 1220.1 85.5C1219.59 85.5 1219.08 85.6792 1218.7 86.0146C1218.31 86.3517 1218.08 86.8243 1218.08 87.3333V99.3333Z" fill="white" stroke="white"/>
</g>
<defs>
<clipPath id="clip0_1_9">
<rect width="1363" height="163" fill="white" transform="translate(0.5 0.5)"/>
</clipPath>
</defs>
</svg>
