<svg width="1364" height="164" viewBox="0 0 1364 164" fill="none" xmlns="http://www.w3.org/2000/svg">
<g clip-path="url(#clip0_1_47)">
<path d="M0.5 15.5C0.5 7.21573 7.21573 0.5 15.5 0.5H37.5V163.5H15.5C7.21573 163.5 0.5 156.784 0.5 148.5V15.5Z" fill="#091C25"/>
<path d="M1134.5 0.5H37.5V163.5H1134.5V0.5Z" fill="#F0F0F0"/>
<path d="M103.304 27.568L102.984 43.824L105.672 44.08C105.672 44.6773 105.491 45.3173 105.128 46H97.7681L97.6721 44.88C98.8241 44.496 99.8055 44.24 100.616 44.112C100.573 42.7253 100.499 39.8667 100.392 35.536C100.307 31.2053 100.232 27.856 100.168 25.488C99.3575 25.36 98.3975 25.104 97.2881 24.72L97.3841 23.6H103.72L115.4 42.256L114.856 25.488C114.067 25.3387 113.117 25.0827 112.008 24.72L112.104 23.6H120.104C120.467 24.2827 120.648 24.9227 120.648 25.52C119.581 25.6053 118.728 25.648 118.088 25.648L117.768 46H114.664L103.304 27.568ZM130.861 43.888C131.48 43.888 132.173 43.76 132.941 43.504C133.709 43.2267 134.338 42.896 134.829 42.512C134.744 37.968 134.669 34.5227 134.605 32.176C133.282 32.176 132.301 32.048 131.661 31.792L131.789 30.128C133.602 29.808 135.021 29.648 136.045 29.648C137.09 29.648 137.752 29.6693 138.029 29.712C138.029 30.096 137.965 30.608 137.837 31.248C137.73 31.888 137.656 32.24 137.613 32.304L137.229 43.728C138.36 43.792 139.277 43.92 139.981 44.112L139.917 45.744C138.978 46.0427 138.072 46.192 137.197 46.192C136.322 46.192 135.789 46.1813 135.597 46.16C135.192 45.3493 134.957 44.6027 134.893 43.92C133.848 44.7093 132.877 45.3173 131.981 45.744C131.106 46.1707 130.53 46.384 130.253 46.384C128.376 46.384 127.01 45.8827 126.157 44.88C125.325 43.856 124.909 42.3627 124.909 40.4C124.909 40.3787 125.005 37.648 125.197 32.208C123.96 32.208 122.818 32.0693 121.773 31.792L121.901 30.128C123.714 29.808 125.122 29.648 126.125 29.648C127.128 29.648 127.768 29.6693 128.045 29.712C128.045 30.224 127.981 30.7893 127.853 31.408C127.725 32.0267 127.65 32.3253 127.629 32.304L127.661 39.216C127.661 40.8373 127.864 42.0213 128.269 42.768C128.674 43.5147 129.538 43.888 130.861 43.888ZM157.949 43.856C161.128 43.856 162.717 42.5653 162.717 39.984C162.717 38.7253 161.938 37.6587 160.381 36.784C159.677 36.3787 158.898 35.9947 158.045 35.632C157.213 35.2693 156.37 34.8747 155.517 34.448C154.664 34.0213 153.885 33.5627 153.181 33.072C152.498 32.5813 151.933 31.9627 151.485 31.216C151.058 30.4693 150.845 29.6267 150.845 28.688C150.845 27.152 151.464 25.8507 152.701 24.784C153.96 23.696 155.677 23.152 157.853 23.152C160.029 23.152 162.322 23.8133 164.733 25.136C164.733 26.352 164.584 27.8773 164.285 29.712C163.816 29.776 163.197 29.808 162.429 29.808L161.469 26.096C161.213 25.968 160.701 25.84 159.933 25.712C159.186 25.584 158.525 25.52 157.949 25.52C156.712 25.52 155.752 25.7867 155.069 26.32C154.386 26.832 154.045 27.5573 154.045 28.496C154.045 29.4133 154.44 30.2453 155.229 30.992C156.04 31.7173 157.01 32.3467 158.141 32.88C159.293 33.392 160.434 33.9253 161.565 34.48C162.717 35.0347 163.688 35.76 164.477 36.656C165.288 37.5307 165.693 38.5547 165.693 39.728C165.693 41.8613 164.978 43.5147 163.549 44.688C162.12 45.84 160.253 46.416 157.949 46.416C156.69 46.416 155.325 46.224 153.853 45.84C152.402 45.4347 151.197 44.9227 150.237 44.304C150.28 42.8747 150.44 41.2213 150.717 39.344C151.186 39.28 151.805 39.248 152.573 39.248L153.245 43.088C153.714 43.28 154.418 43.4613 155.357 43.632C156.317 43.7813 157.181 43.856 157.949 43.856ZM175.909 46.384C173.349 46.384 171.439 45.6693 170.181 44.24C168.922 42.7893 168.293 40.7307 168.293 38.064C168.293 32.2613 170.874 29.36 176.037 29.36C176.869 29.36 177.733 29.488 178.629 29.744C179.525 29.9787 180.229 30.2453 180.741 30.544C180.677 32.528 180.474 33.936 180.133 34.768C179.749 34.8747 179.439 34.928 179.205 34.928H178.661C178.554 34.928 178.426 34.9173 178.277 34.896L177.477 31.376C176.773 31.312 176.367 31.28 176.261 31.28C174.725 31.28 173.498 31.7493 172.581 32.688C171.685 33.6267 171.237 35.2053 171.237 37.424C171.237 39.6427 171.578 41.328 172.261 42.48C172.965 43.632 174.309 44.208 176.293 44.208C177.231 44.208 178.703 43.76 180.709 42.864C181.114 43.4187 181.327 43.9093 181.349 44.336C180.261 44.976 179.194 45.4773 178.149 45.84C177.103 46.2027 176.357 46.384 175.909 46.384ZM196.25 35.536L196.09 43.792C197.008 43.856 197.925 44.0053 198.842 44.24L198.778 45.36C198.437 45.5307 197.818 45.7227 196.922 45.936C196.048 46.128 195.184 46.224 194.33 46.224C193.946 45.456 193.733 44.72 193.69 44.016C191.258 45.616 189.552 46.416 188.57 46.416C187.056 46.416 185.84 46.0107 184.922 45.2C184.005 44.3893 183.546 43.2587 183.546 41.808C183.546 38.4587 185.594 36.7307 189.69 36.624C192.08 36.56 193.285 36.528 193.306 36.528L193.274 35.44C193.232 33.968 192.954 32.912 192.442 32.272C191.93 31.6107 191.013 31.28 189.69 31.28C189.136 31.28 188.538 31.408 187.898 31.664L187.13 34.864C187.024 34.8853 186.842 34.896 186.586 34.896L185.274 34.8C184.933 33.8827 184.752 32.6133 184.73 30.992C185.136 30.7787 186.064 30.4587 187.514 30.032C188.965 29.584 189.893 29.36 190.298 29.36C192.474 29.36 194.01 29.84 194.906 30.8C195.802 31.76 196.25 33.3387 196.25 35.536ZM189.274 44.24C189.893 44.24 191.322 43.5467 193.562 42.16L193.402 38.16C191.952 38.288 190.736 38.4053 189.754 38.512C188.773 38.6187 187.984 38.9067 187.386 39.376C186.789 39.824 186.49 40.5387 186.49 41.52C186.49 43.3333 187.418 44.24 189.274 44.24ZM204.956 22.224C205.618 22.224 206.087 22.2453 206.364 22.288C206.364 23.0347 206.226 23.888 205.948 24.848C205.756 37.4347 205.66 43.76 205.66 43.824L208.348 44.08C208.348 44.6773 208.167 45.3173 207.804 46H200.444L200.348 44.88C201.33 44.5387 202.29 44.2827 203.228 44.112L202.908 24.752C201.735 24.688 200.796 24.56 200.092 24.368L200.22 22.704C201.308 22.384 202.887 22.224 204.956 22.224ZM218.202 44.208C219.141 44.208 220.613 43.76 222.618 42.864C223.023 43.4187 223.237 43.9093 223.258 44.336C222.17 44.976 221.103 45.4773 220.058 45.84C219.013 46.2027 218.266 46.384 217.818 46.384C215.343 46.384 213.455 45.648 212.154 44.176C210.853 42.6827 210.202 40.6027 210.202 37.936C210.202 35.2693 210.831 33.1787 212.09 31.664C213.37 30.128 215.279 29.36 217.818 29.36C219.781 29.36 221.274 30.064 222.298 31.472C223.343 32.88 223.866 34.768 223.866 37.136C223.695 37.4347 223.557 37.6373 223.45 37.744L213.146 37.584C213.167 39.7387 213.541 41.3813 214.266 42.512C215.013 43.6427 216.325 44.208 218.202 44.208ZM220.954 35.76C220.954 34.352 220.698 33.264 220.186 32.496C219.674 31.7067 218.821 31.312 217.626 31.312C216.431 31.312 215.365 31.536 214.426 31.984C213.786 33.264 213.381 34.576 213.21 35.92C214.895 35.8987 217.477 35.8453 220.954 35.76ZM236.273 32.048C236.166 31.9413 235.932 31.888 235.569 31.888C235.206 31.888 234.662 32.016 233.937 32.272C233.233 32.528 232.593 32.8267 232.017 33.168C231.889 37.904 231.804 41.456 231.761 43.824L234.449 44.08C234.449 44.6773 234.268 45.3173 233.905 46H226.545L226.449 44.88C227.43 44.5387 228.39 44.2827 229.329 44.112C229.201 38.6933 229.094 34.6827 229.009 32.08C227.836 32.016 226.897 31.888 226.193 31.696L226.321 30.032C227.452 29.712 229.126 29.552 231.345 29.552C231.686 30.0853 231.9 30.768 231.985 31.6C234.438 30.1067 235.9 29.36 236.369 29.36C236.838 29.36 237.382 29.456 238.001 29.648C238.62 29.8187 239.078 30.0107 239.377 30.224C239.377 32.3573 239.174 34.096 238.769 35.44C238.47 35.5253 238.118 35.568 237.713 35.568C237.329 35.568 237.062 35.5573 236.913 35.536L236.273 32.048Z" fill="#888888"/>
<path d="M107.188 119.5H99.6172L99.6641 113.172H107.188C108.75 113.172 110.07 112.797 111.148 112.047C112.242 111.297 113.07 110.18 113.633 108.695C114.211 107.195 114.5 105.352 114.5 103.164V101.688C114.5 100.047 114.336 98.6094 114.008 97.375C113.695 96.125 113.227 95.0859 112.602 94.2578C111.977 93.4141 111.195 92.7812 110.258 92.3594C109.336 91.9375 108.273 91.7266 107.07 91.7266H99.4766V85.375H107.07C109.383 85.375 111.5 85.7734 113.422 86.5703C115.359 87.3516 117.031 88.4766 118.438 89.9453C119.859 91.3984 120.953 93.125 121.719 95.125C122.5 97.1094 122.891 99.3125 122.891 101.734V103.164C122.891 105.57 122.5 107.773 121.719 109.773C120.953 111.773 119.867 113.5 118.461 114.953C117.055 116.406 115.391 117.531 113.469 118.328C111.562 119.109 109.469 119.5 107.188 119.5ZM104.328 85.375V119.5H96.1016V85.375H104.328ZM139.086 119.969C137.023 119.969 135.18 119.648 133.555 119.008C131.93 118.352 130.555 117.453 129.43 116.312C128.32 115.172 127.469 113.859 126.875 112.375C126.297 110.891 126.008 109.32 126.008 107.664V106.773C126.008 104.914 126.266 103.195 126.781 101.617C127.297 100.023 128.062 98.6328 129.078 97.4453C130.094 96.2578 131.367 95.3359 132.898 94.6797C134.43 94.0078 136.211 93.6719 138.242 93.6719C140.039 93.6719 141.648 93.9609 143.07 94.5391C144.492 95.1172 145.695 95.9453 146.68 97.0234C147.68 98.1016 148.438 99.4062 148.953 100.938C149.484 102.469 149.75 104.188 149.75 106.094V109.305H129.031V104.359H142.039V103.75C142.055 102.906 141.906 102.188 141.594 101.594C141.297 101 140.859 100.547 140.281 100.234C139.703 99.9219 139 99.7656 138.172 99.7656C137.312 99.7656 136.602 99.9531 136.039 100.328C135.492 100.703 135.062 101.219 134.75 101.875C134.453 102.516 134.242 103.258 134.117 104.102C133.992 104.945 133.93 105.836 133.93 106.773V107.664C133.93 108.602 134.055 109.453 134.305 110.219C134.57 110.984 134.945 111.641 135.43 112.188C135.93 112.719 136.523 113.133 137.211 113.43C137.914 113.727 138.711 113.875 139.602 113.875C140.68 113.875 141.742 113.672 142.789 113.266C143.836 112.859 144.734 112.188 145.484 111.25L149.07 115.516C148.555 116.25 147.82 116.961 146.867 117.648C145.93 118.336 144.805 118.898 143.492 119.336C142.18 119.758 140.711 119.969 139.086 119.969ZM160.93 99.0156V129.25H153.031V94.1406H160.391L160.93 99.0156ZM176.492 106.516V107.008C176.492 108.852 176.281 110.562 175.859 112.141C175.438 113.719 174.812 115.094 173.984 116.266C173.156 117.438 172.125 118.352 170.891 119.008C169.672 119.648 168.258 119.969 166.648 119.969C165.133 119.969 163.828 119.633 162.734 118.961C161.641 118.289 160.727 117.359 159.992 116.172C159.258 114.984 158.664 113.625 158.211 112.094C157.758 110.562 157.398 108.945 157.133 107.242V106.609C157.398 104.781 157.758 103.086 158.211 101.523C158.664 99.9453 159.258 98.5703 159.992 97.3984C160.727 96.2266 161.633 95.3125 162.711 94.6562C163.805 94 165.109 93.6719 166.625 93.6719C168.234 93.6719 169.648 93.9766 170.867 94.5859C172.102 95.1953 173.133 96.0703 173.961 97.2109C174.805 98.3359 175.438 99.6875 175.859 101.266C176.281 102.844 176.492 104.594 176.492 106.516ZM168.594 107.008V106.516C168.594 105.531 168.523 104.633 168.383 103.82C168.242 102.992 168.016 102.273 167.703 101.664C167.406 101.055 167.008 100.586 166.508 100.258C166.008 99.9297 165.391 99.7656 164.656 99.7656C163.812 99.7656 163.102 99.8984 162.523 100.164C161.961 100.414 161.508 100.805 161.164 101.336C160.836 101.852 160.602 102.5 160.461 103.281C160.336 104.047 160.281 104.945 160.297 105.977V107.898C160.266 109.086 160.383 110.133 160.648 111.039C160.914 111.93 161.375 112.625 162.031 113.125C162.688 113.625 163.578 113.875 164.703 113.875C165.453 113.875 166.078 113.703 166.578 113.359C167.078 113 167.477 112.508 167.773 111.883C168.07 111.242 168.281 110.508 168.406 109.68C168.531 108.852 168.594 107.961 168.594 107.008ZM188.352 83.5V119.5H180.43V83.5H188.352ZM192.242 107.078V106.586C192.242 104.727 192.508 103.016 193.039 101.453C193.57 99.875 194.352 98.5078 195.383 97.3516C196.414 96.1953 197.688 95.2969 199.203 94.6562C200.719 94 202.469 93.6719 204.453 93.6719C206.453 93.6719 208.211 94 209.727 94.6562C211.258 95.2969 212.539 96.1953 213.57 97.3516C214.602 98.5078 215.383 99.875 215.914 101.453C216.445 103.016 216.711 104.727 216.711 106.586V107.078C216.711 108.922 216.445 110.633 215.914 112.211C215.383 113.773 214.602 115.141 213.57 116.312C212.539 117.469 211.266 118.367 209.75 119.008C208.234 119.648 206.484 119.969 204.5 119.969C202.516 119.969 200.758 119.648 199.227 119.008C197.695 118.367 196.414 117.469 195.383 116.312C194.352 115.141 193.57 113.773 193.039 112.211C192.508 110.633 192.242 108.922 192.242 107.078ZM200.141 106.586V107.078C200.141 108.031 200.211 108.922 200.352 109.75C200.492 110.578 200.727 111.305 201.055 111.93C201.383 112.539 201.828 113.016 202.391 113.359C202.953 113.703 203.656 113.875 204.5 113.875C205.328 113.875 206.016 113.703 206.562 113.359C207.125 113.016 207.57 112.539 207.898 111.93C208.227 111.305 208.461 110.578 208.602 109.75C208.742 108.922 208.812 108.031 208.812 107.078V106.586C208.812 105.664 208.742 104.797 208.602 103.984C208.461 103.156 208.227 102.43 207.898 101.805C207.57 101.164 207.125 100.664 206.562 100.305C206 99.9453 205.297 99.7656 204.453 99.7656C203.625 99.7656 202.93 99.9453 202.367 100.305C201.82 100.664 201.383 101.164 201.055 101.805C200.727 102.43 200.492 103.156 200.352 103.984C200.211 104.797 200.141 105.664 200.141 106.586ZM227.633 116.523L234.195 94.1406H242.68L232.484 123.273C232.266 123.914 231.977 124.602 231.617 125.336C231.258 126.086 230.766 126.797 230.141 127.469C229.516 128.141 228.711 128.688 227.727 129.109C226.758 129.531 225.555 129.742 224.117 129.742C223.352 129.742 222.789 129.703 222.43 129.625C222.086 129.562 221.555 129.445 220.836 129.273V123.625C221.039 123.625 221.211 123.625 221.352 123.625C221.508 123.625 221.68 123.625 221.867 123.625C222.711 123.625 223.383 123.539 223.883 123.367C224.398 123.195 224.789 122.945 225.055 122.617C225.336 122.289 225.555 121.891 225.711 121.422L227.633 116.523ZM225.969 94.1406L230.961 111.883L231.828 120.25H226.531L217.508 94.1406H225.969ZM252.711 99.5078V119.5H244.812V94.1406H252.219L252.711 99.5078ZM251.75 105.953L249.945 106C249.945 104.219 250.156 102.578 250.578 101.078C251 99.5781 251.625 98.2734 252.453 97.1641C253.281 96.0547 254.297 95.1953 255.5 94.5859C256.719 93.9766 258.125 93.6719 259.719 93.6719C260.828 93.6719 261.836 93.8438 262.742 94.1875C263.648 94.5156 264.43 95.0391 265.086 95.7578C265.742 96.4609 266.242 97.3828 266.586 98.5234C266.945 99.6484 267.125 101 267.125 102.578V119.5H259.227V103.586C259.227 102.508 259.102 101.695 258.852 101.148C258.617 100.602 258.273 100.234 257.82 100.047C257.367 99.8594 256.812 99.7656 256.156 99.7656C255.469 99.7656 254.852 99.9219 254.305 100.234C253.758 100.547 253.289 100.984 252.898 101.547C252.523 102.094 252.234 102.742 252.031 103.492C251.844 104.242 251.75 105.062 251.75 105.953ZM266.234 105.953L264.031 106C264.031 104.219 264.227 102.578 264.617 101.078C265.023 99.5781 265.625 98.2734 266.422 97.1641C267.234 96.0547 268.242 95.1953 269.445 94.5859C270.648 93.9766 272.047 93.6719 273.641 93.6719C274.797 93.6719 275.859 93.8438 276.828 94.1875C277.797 94.5312 278.633 95.0859 279.336 95.8516C280.039 96.6172 280.586 97.6328 280.977 98.8984C281.367 100.148 281.562 101.695 281.562 103.539V119.5H273.641V103.539C273.641 102.492 273.516 101.703 273.266 101.172C273.031 100.625 272.688 100.258 272.234 100.07C271.781 99.8672 271.242 99.7656 270.617 99.7656C269.867 99.7656 269.219 99.9219 268.672 100.234C268.125 100.547 267.664 100.984 267.289 101.547C266.93 102.094 266.664 102.742 266.492 103.492C266.32 104.242 266.234 105.062 266.234 105.953ZM298.367 119.969C296.305 119.969 294.461 119.648 292.836 119.008C291.211 118.352 289.836 117.453 288.711 116.312C287.602 115.172 286.75 113.859 286.156 112.375C285.578 110.891 285.289 109.32 285.289 107.664V106.773C285.289 104.914 285.547 103.195 286.062 101.617C286.578 100.023 287.344 98.6328 288.359 97.4453C289.375 96.2578 290.648 95.3359 292.18 94.6797C293.711 94.0078 295.492 93.6719 297.523 93.6719C299.32 93.6719 300.93 93.9609 302.352 94.5391C303.773 95.1172 304.977 95.9453 305.961 97.0234C306.961 98.1016 307.719 99.4062 308.234 100.938C308.766 102.469 309.031 104.188 309.031 106.094V109.305H288.312V104.359H301.32V103.75C301.336 102.906 301.188 102.188 300.875 101.594C300.578 101 300.141 100.547 299.562 100.234C298.984 99.9219 298.281 99.7656 297.453 99.7656C296.594 99.7656 295.883 99.9531 295.32 100.328C294.773 100.703 294.344 101.219 294.031 101.875C293.734 102.516 293.523 103.258 293.398 104.102C293.273 104.945 293.211 105.836 293.211 106.773V107.664C293.211 108.602 293.336 109.453 293.586 110.219C293.852 110.984 294.227 111.641 294.711 112.188C295.211 112.719 295.805 113.133 296.492 113.43C297.195 113.727 297.992 113.875 298.883 113.875C299.961 113.875 301.023 113.672 302.07 113.266C303.117 112.859 304.016 112.188 304.766 111.25L308.352 115.516C307.836 116.25 307.102 116.961 306.148 117.648C305.211 118.336 304.086 118.898 302.773 119.336C301.461 119.758 299.992 119.969 298.367 119.969ZM320 99.5547V119.5H312.102V94.1406H319.508L320 99.5547ZM319.062 105.953L317.211 106C317.211 104.062 317.445 102.336 317.914 100.82C318.383 99.2891 319.047 97.9922 319.906 96.9297C320.766 95.8672 321.789 95.0625 322.977 94.5156C324.18 93.9531 325.516 93.6719 326.984 93.6719C328.156 93.6719 329.227 93.8438 330.195 94.1875C331.18 94.5312 332.023 95.0859 332.727 95.8516C333.445 96.6172 333.992 97.6328 334.367 98.8984C334.758 100.148 334.953 101.695 334.953 103.539V119.5H327.008V103.516C327.008 102.5 326.867 101.727 326.586 101.195C326.305 100.648 325.898 100.273 325.367 100.07C324.836 99.8672 324.188 99.7656 323.422 99.7656C322.609 99.7656 321.922 99.9219 321.359 100.234C320.797 100.547 320.344 100.984 320 101.547C319.672 102.094 319.43 102.742 319.273 103.492C319.133 104.242 319.062 105.062 319.062 105.953ZM352.695 94.1406V99.625H337.414V94.1406H352.695ZM340.625 87.8359H348.523V111.227C348.523 111.898 348.602 112.422 348.758 112.797C348.914 113.156 349.18 113.414 349.555 113.57C349.945 113.711 350.461 113.781 351.102 113.781C351.555 113.781 351.93 113.773 352.227 113.758C352.523 113.727 352.805 113.688 353.07 113.641V119.289C352.398 119.508 351.695 119.672 350.961 119.781C350.227 119.906 349.445 119.969 348.617 119.969C346.93 119.969 345.484 119.703 344.281 119.172C343.094 118.641 342.188 117.805 341.562 116.664C340.938 115.523 340.625 114.039 340.625 112.211V87.8359Z" fill="black"/>
<path d="M1134.5 0.5H1348.5C1356.78 0.5 1363.5 7.21573 1363.5 15.5V148.5C1363.5 156.784 1356.78 163.5 1348.5 163.5H1134.5V0.5Z" fill="#091C25"/>
<path d="M1213 118V46H1285V118H1213Z" fill="white" fill-opacity="0.01"/>
<path d="M1222 82.0125V109H1276V82" stroke="white" stroke-width="7.24" stroke-linecap="round" stroke-linejoin="round"/>
<path d="M1262.5 68.5L1249 55L1235.5 68.5" stroke="white" stroke-width="7.24" stroke-linecap="round" stroke-linejoin="round"/>
<path d="M1248.99 93.9999V55" stroke="white" stroke-width="7.24" stroke-linecap="round" stroke-linejoin="round"/>
</g>
<defs>
<clipPath id="clip0_1_47">
<rect width="1363" height="163" fill="white" transform="translate(0.5 0.5)"/>
</clipPath>
</defs>
</svg>
